<?xml version="1.0" encoding="utf-8" standalone="no"?>
<!DOCTYPE svg PUBLIC "-//W3C//DTD SVG 1.1//EN"
  "http://www.w3.org/Graphics/SVG/1.1/DTD/svg11.dtd">
<!-- Created with matplotlib (http://matplotlib.org/) -->
<svg height="395pt" version="1.1" viewBox="0 0 538 395" width="538pt" xmlns="http://www.w3.org/2000/svg" xmlns:xlink="http://www.w3.org/1999/xlink">
 <defs>
  <style type="text/css">
*{stroke-linecap:butt;stroke-linejoin:round;}
  </style>
 </defs>
 <g id="figure_1">
  <g id="patch_1">
   <path d="
M0 395.544
L538.019 395.544
L538.019 0
L0 0
z
" style="fill:#ffffff;"/>
  </g>
  <g id="axes_1">
   <g id="patch_2">
    <path d="
M63.28 349.406
L509.68 349.406
L509.68 14.6063
L63.28 14.6063
z
" style="fill:#ffffff;"/>
   </g>
   <g id="line2d_1">
    <path clip-path="url(#p98f34fbb35)" d="
M63.7264 180.148
L64.1728 160.799
L64.6192 39.9395
L65.0656 277.12
L65.512 154.43
L65.9584 98.8975
L66.4048 102.245
L66.8512 77.3136
L67.2976 266.357
L67.744 150.754
L68.1904 81.2502
L68.6368 137.809
L69.0832 113.95
L69.5296 211.474
L69.976 156.26
L70.4224 209.87
L70.8688 168.344
L71.3152 27.5891
L71.7616 78.0962
L72.208 263.466
L72.6544 165.412
L73.1008 239.918
L73.5472 186.723
L73.9936 199.99
L74.44 209.425
L74.8864 178.209
L75.3328 159.673
L75.7792 266.624
L76.672 137.373
L77.1184 130.236
L77.5648 154.719
L78.0112 135.075
L78.4576 192.616
L78.904 137.127
L79.3504 183.176
L79.7968 171.046
L80.2432 188.995
L80.6896 146.024
L81.136 177.102
L81.5824 138.978
L82.0288 222.102
L82.9216 148.997
L83.368 221.378
L83.8144 193.233
L84.2608 174.811
L84.7072 161.573
L85.1536 164.382
L85.6 115.306
L86.0464 189.559
L86.4928 192.352
L86.9392 198.37
L87.3856 228.24
L87.832 163.564
L88.2784 208.463
L88.7248 137.309
L89.6176 219.808
L90.5104 115.789
L90.9568 196.165
L91.4032 173.408
L91.8496 173.674
L92.296 196.174
L92.7424 169.349
L93.1888 173.475
L93.6352 139.369
L94.0816 167.747
L94.528 236.037
L94.9744 202.035
L95.4208 193.549
L95.8672 216.22
L96.3136 196.744
L96.76 182.265
L97.2064 172.061
L97.6528 169.023
L98.0992 192.362
L98.5456 169.299
L98.992 187.417
L99.4384 147.768
L99.8848 207.336
L100.331 175.069
L100.778 172.588
L101.224 185.466
L101.67 185.051
L102.117 210.712
L102.563 163.409
L103.01 176.219
L103.456 200.381
L103.902 186.595
L104.349 186.577
L104.795 181.783
L105.242 165.568
L105.688 185.245
L106.134 145.807
L106.581 175.66
L107.027 176.212
L107.474 135.729
L107.92 206.539
L108.366 190.675
L108.813 219.528
L109.259 195.603
L109.706 158.288
L110.152 192.196
L110.598 179.929
L111.045 187.78
L111.491 175.285
L111.938 158.626
L112.384 185.9
L112.83 182.055
L113.277 194.746
L113.723 182.232
L114.17 184.511
L114.616 175.988
L115.062 162.108
L115.509 207.348
L116.402 150.913
L116.848 200.01
L117.294 175.371
L117.741 181.67
L118.187 184.56
L118.634 177.426
L119.08 201.078
L119.526 163.086
L119.973 191.092
L120.419 165.065
L121.312 195.225
L121.758 161.388
L122.205 196.432
L122.651 198.521
L123.098 178.506
L123.544 195.834
L123.99 164.241
L124.437 189.113
L124.883 195.382
L125.33 184.037
L125.776 187.345
L126.222 203.133
L126.669 191.716
L127.115 153.137
L127.562 172.834
L128.008 140.33
L128.454 173.459
L128.901 191.841
L129.347 175.914
L129.794 184.991
L130.24 186.044
L130.686 174.099
L131.133 178.604
L131.579 172.788
L132.026 182.337
L132.472 215.985
L132.918 168.14
L133.365 191.816
L133.811 175.315
L134.258 152.821
L134.704 174.474
L135.15 184.281
L136.043 195.013
L136.49 184.672
L136.936 196.408
L137.382 198.897
L137.829 174.89
L138.275 190.613
L138.722 170.503
L139.168 176.596
L139.614 188.625
L140.061 187.077
L140.507 164.353
L141.4 195.527
L141.846 189.541
L142.293 179.02
L142.739 193.286
L143.186 201.726
L143.632 176.029
L144.525 197.684
L144.971 202.132
L145.418 203.816
L145.864 165.25
L146.31 189.793
L146.757 203.373
L147.65 155.881
L148.096 172.326
L148.542 194.622
L148.989 176.686
L149.435 183.532
L149.882 177.56
L150.328 194.338
L150.774 185.163
L151.221 206.316
L151.667 173.743
L152.114 169.572
L152.56 175.506
L153.006 202.489
L153.453 179.378
L153.899 194.581
L154.346 166.084
L154.792 192.013
L155.238 170.137
L155.685 178.623
L156.131 172.784
L156.578 171.153
L157.024 164.617
L157.47 190.21
L157.917 190.163
L158.363 176.465
L158.81 157.561
L159.256 194.137
L159.702 159.717
L160.149 168.623
L160.595 189.736
L161.042 189.92
L161.488 192.53
L161.934 179.955
L162.381 175.455
L162.827 197.782
L163.274 180.402
L163.72 188.223
L164.166 186.885
L164.613 197.43
L165.059 173.074
L165.506 179.559
L165.952 171.445
L166.398 175.905
L166.845 196.392
L167.291 192.001
L167.738 180.148
L168.184 175.265
L168.63 180.636
L169.077 167.022
L169.523 180.154
L169.97 176.883
L170.416 177.663
L170.862 162.2
L171.309 172.255
L171.755 171.77
L172.202 192.893
L172.648 199.064
L173.094 175.224
L173.541 174.13
L173.987 191.993
L174.434 188.488
L174.88 189.535
L175.326 180.195
L175.773 197.599
L176.219 192.385
L176.666 170.209
L177.112 192.895
L177.558 183.512
L178.005 183.456
L178.451 179.983
L178.898 174.528
L179.344 175.316
L179.79 175.062
L180.237 164.249
L180.683 188.802
L181.13 169.791
L181.576 189.115
L182.022 186.756
L182.469 172.578
L182.915 188.085
L183.362 182.752
L183.808 217.493
L184.254 167.032
L184.701 198.19
L185.147 173.078
L185.594 177.294
L186.04 199.624
L186.486 175.527
L186.933 175.816
L187.379 177.393
L188.272 200.496
L188.718 187.981
L189.165 186.312
L189.611 175.495
L190.058 183.868
L190.504 187.197
L191.397 155.582
L191.843 170.066
L192.29 180.717
L192.736 186.538
L193.182 189.74
L194.075 165.831
L194.522 189.859
L194.968 176.415
L195.414 175.322
L195.861 183.386
L196.307 198.498
L196.754 186.82
L197.2 184.047
L197.646 176.122
L198.093 178.938
L198.539 160.326
L198.986 160.87
L199.432 186.14
L199.878 172.671
L200.325 190.785
L200.771 181.006
L201.218 174.548
L201.664 178.96
L202.11 178.153
L202.557 164.914
L203.003 192.924
L203.45 184.423
L203.896 167.306
L204.342 177.059
L204.789 192.615
L205.235 190.354
L205.682 171.769
L206.128 197.571
L206.574 183.282
L207.021 179.517
L207.914 191.894
L208.36 179.41
L208.806 170.178
L209.253 174.021
L209.699 155.571
L210.146 179.031
L210.592 177.879
L211.038 161.14
L211.931 185.983
L212.378 171.534
L212.824 186.141
L213.27 185.934
L213.717 182.818
L214.163 172.75
L214.61 189.086
L215.056 183.744
L215.502 175.403
L216.395 192.955
L216.842 190.797
L217.288 183.935
L217.734 184.26
L218.181 172.559
L218.627 186.582
L219.074 183.219
L219.52 178.424
L219.966 179.57
L220.413 174.927
L220.859 193.342
L221.306 170.333
L221.752 176.225
L222.198 170.777
L222.645 186.237
L223.538 176.655
L223.984 190.265
L224.43 174.761
L224.877 179.745
L225.323 191.391
L225.77 165.192
L226.216 173.293
L226.662 201.48
L227.109 199.364
L227.555 179.012
L228.002 182.849
L228.448 192.815
L228.894 170.779
L229.341 187.015
L229.787 181.583
L230.234 185.868
L230.68 179.147
L231.126 178.279
L231.573 179.878
L232.019 191.932
L232.466 195.783
L233.358 179.268
L233.805 178.137
L234.251 174.321
L234.698 179.461
L235.144 193.729
L235.59 176.416
L236.037 191.328
L236.93 181.612
L237.376 191.039
L237.822 172.447
L238.269 191.111
L238.715 162.581
L239.162 180.017
L240.054 171.449
L240.501 178.159
L240.947 175.177
L241.394 187.925
L241.84 186.91
L242.286 167.558
L242.733 182.203
L243.179 168.137
L243.626 167.228
L244.072 177.864
L244.518 198.687
L244.965 179.074
L245.411 169.243
L245.858 194.371
L246.304 180.151
L246.75 180.688
L247.197 184.42
L247.643 192.194
L248.09 183.732
L248.536 183.529
L248.982 195.974
L249.429 178.345
L249.875 206.143
L250.322 166.947
L250.768 173.549
L251.214 195.338
L251.661 173.339
L252.107 176.471
L252.554 167.43
L253 166.749
L253.446 185.258
L253.893 189.029
L254.339 171.778
L254.786 165.971
L255.232 172.599
L255.678 168.947
L256.125 196.297
L256.571 183.81
L257.018 159.274
L257.464 180.792
L257.91 167.452
L258.357 182.331
L259.25 188.304
L259.696 187.545
L260.142 167.244
L260.589 185.369
L261.035 178.657
L261.482 179.739
L261.928 166.795
L262.374 191.789
L262.821 183.451
L263.267 180.427
L263.714 192.536
L264.16 189.205
L264.606 180.549
L265.053 180.628
L265.499 186.707
L265.946 189.782
L266.392 187.296
L266.838 181.833
L267.285 186.514
L267.731 187.761
L268.178 186.424
L268.624 175.502
L269.07 191.559
L269.517 176.992
L269.963 175.627
L270.41 176.513
L270.856 181.834
L271.302 178.014
L271.749 179.351
L272.195 166.522
L272.642 178.742
L273.088 182.924
L273.534 160.847
L273.981 186.383
L274.427 198.396
L274.874 175.831
L275.32 182.754
L275.766 177.648
L276.659 192.555
L277.106 194.278
L277.552 173.608
L277.998 173.549
L278.445 184.904
L278.891 167.798
L279.338 181.205
L279.784 185.094
L280.23 164.997
L280.677 196.195
L281.123 181.355
L281.57 184.581
L282.016 180.204
L282.462 185.825
L282.909 188.217
L283.355 183.819
L283.802 171.607
L284.248 191.156
L284.694 197.207
L285.141 182.528
L285.587 190.309
L286.034 185.585
L286.48 185.038
L287.373 172.608
L287.819 175.387
L288.266 179.298
L288.712 180.32
L289.158 172.187
L289.605 190.765
L290.051 185.744
L290.498 172.48
L290.944 188.785
L291.39 178.061
L291.837 201.069
L292.73 168.717
L293.176 185.764
L293.622 188.719
L294.069 168.647
L294.515 193.161
L294.962 177.192
L295.408 187.848
L295.854 185.468
L296.301 188.043
L296.747 179.343
L297.64 198.268
L298.086 183.91
L298.533 188.486
L298.979 179.98
L299.426 195.627
L299.872 179.421
L300.318 188.037
L300.765 172.404
L301.211 188.819
L301.658 188.475
L302.104 184.378
L302.55 176.496
L302.997 195.166
L303.443 179.786
L303.89 185.502
L304.336 183.671
L304.782 182.371
L305.229 191.279
L305.675 174.03
L306.122 173.871
L306.568 188.347
L307.014 186.228
L307.907 174.494
L308.354 188.126
L308.8 158.362
L309.246 173.777
L310.139 196.715
L310.586 181.461
L311.032 176.722
L311.478 184.304
L311.925 184.77
L312.371 185.967
L312.818 190.808
L313.264 185.225
L313.71 169.119
L314.157 183.676
L314.603 186.069
L315.05 180.995
L315.496 192.617
L315.942 181.174
L316.389 187.626
L316.835 190.643
L317.728 183.149
L318.621 170.215
L319.067 193.089
L319.514 172.808
L319.96 186.73
L320.406 176.448
L320.853 175.623
L321.299 175.749
L321.746 178.151
L322.192 189.394
L322.638 178.388
L323.085 186.395
L323.531 169.88
L324.424 177.829
L324.87 195.552
L325.317 191.309
L325.763 188.49
L326.21 177.409
L326.656 184.095
L327.102 187.496
L327.549 182.739
L327.995 175.13
L328.442 182.679
L328.888 192.702
L329.334 158.599
L329.781 200.76
L330.674 170.067
L331.12 173.69
L331.566 184.296
L332.013 180.091
L332.459 184.214
L332.906 194.307
L333.352 184.512
L333.798 186.796
L334.245 174.442
L334.691 177.357
L335.138 172.144
L335.584 194.75
L336.03 177.906
L336.477 183.074
L336.923 182.587
L337.37 183.344
L337.816 190.728
L338.262 188.848
L338.709 182.732
L339.155 187.648
L339.602 194.698
L340.048 191.623
L340.494 177.238
L340.941 176.08
L341.387 184.627
L341.834 184.27
L342.28 181.975
L342.726 184.349
L343.173 182.207
L343.619 186.87
L344.066 181.843
L344.512 193.484
L344.958 178.494
L345.405 183.743
L345.851 179.845
L346.298 189.747
L346.744 179.014
L347.637 188.36
L348.083 173.641
L348.53 184.279
L348.976 177.932
L349.422 181.263
L349.869 177.994
L350.315 181.271
L350.762 185.551
L351.208 184.335
L351.654 174.104
L352.101 186.433
L352.547 182.044
L352.994 190.621
L353.886 175.164
L354.333 174.726
L354.779 174.469
L355.226 189.382
L355.672 174.924
L356.118 175.289
L356.565 191.442
L357.011 183.792
L357.458 190.426
L357.904 188.544
L358.35 177.145
L358.797 175.454
L359.243 185.461
L359.69 187.313
L360.136 187.633
L360.582 178.394
L361.029 190.661
L361.475 190.637
L361.922 171.915
L362.368 177.142
L362.814 178.497
L363.261 178.164
L363.707 176.351
L364.154 180.621
L364.6 192.773
L365.046 176.17
L365.493 187.705
L365.939 179.033
L366.386 183.011
L366.832 188.763
L367.278 191.302
L367.725 192.308
L368.171 179.104
L368.618 181.406
L369.064 178.415
L369.51 195.751
L369.957 192.191
L370.403 184.079
L370.85 173.226
L371.296 186.272
L371.742 170.012
L372.189 177.955
L372.635 181.428
L373.082 187.191
L373.528 181.189
L373.974 182.498
L374.421 170.105
L374.867 176.337
L375.314 184.361
L375.76 172.531
L376.653 192.289
L377.099 184.355
L377.546 171.983
L377.992 173.307
L378.438 189.718
L378.885 183.427
L379.331 167.98
L379.778 172.12
L380.224 174.261
L380.67 189.83
L381.117 176.656
L381.563 175.794
L382.01 185.287
L382.456 175.961
L382.902 205.164
L383.349 192.866
L383.795 193.804
L384.242 194.014
L384.688 186.765
L385.134 173.914
L385.581 185.117
L386.027 178.571
L386.474 175.079
L386.92 172.695
L387.366 174.933
L387.813 181.05
L388.259 195.474
L388.706 186.8
L389.152 185.468
L389.598 173.857
L390.045 193.629
L390.491 195.387
L390.938 188.788
L391.384 195.183
L391.83 184.827
L392.277 189.033
L392.723 181.18
L393.17 184.08
L393.616 185.474
L394.062 182.302
L394.509 174.723
L394.955 172.138
L395.848 197.072
L396.294 181.965
L396.741 178.784
L397.187 186.577
L398.08 181.945
L398.526 181.533
L398.973 192.887
L399.866 177.42
L400.312 188.549
L400.758 184.571
L401.205 174.094
L402.098 185.087
L402.544 188.063
L402.99 181.487
L403.437 178.291
L403.883 183.944
L404.33 185.899
L404.776 175.869
L405.222 188.684
L405.669 186.482
L406.115 189.699
L406.562 188.445
L407.008 190.552
L407.454 188.805
L407.901 182.018
L408.347 172.254
L408.794 176.819
L409.24 183.802
L409.686 177.633
L410.133 197.364
L411.472 175
L411.918 182.201
L412.365 184.644
L412.811 181.991
L413.704 173.579
L414.15 193.016
L414.597 178.53
L415.49 187.163
L416.382 177.139
L417.275 180.916
L417.722 182.796
L418.168 192.884
L418.614 182.666
L419.061 184.106
L419.507 188.303
L419.954 190.858
L420.4 189.58
L420.846 179.883
L421.293 188.444
L421.739 185.478
L422.186 164.176
L422.632 198.845
L423.078 178.189
L423.525 181.618
L423.971 188.959
L424.418 166.44
L424.864 179.6
L425.31 177.744
L425.757 183.482
L426.203 179.419
L426.65 165.022
L427.096 175.78
L427.542 174.038
L427.989 177.808
L428.435 179.441
L428.882 187.279
L429.328 188.007
L429.774 181.988
L430.221 186.407
L430.667 181.332
L431.114 177.545
L431.56 168.79
L432.006 186.005
L432.453 184.519
L432.899 169.537
L433.346 183.21
L433.792 184.343
L434.238 181.797
L434.685 176.931
L435.131 173.821
L435.578 179.351
L436.024 170.346
L436.47 184.82
L437.363 180.39
L437.81 182.791
L438.256 173.623
L438.702 187.293
L439.149 180.801
L439.595 176.248
L440.042 184.805
L440.488 165.29
L440.934 179.703
L441.381 184.57
L441.827 182.177
L442.274 176.093
L442.72 175.197
L443.166 179.424
L443.613 193.14
L444.059 174.451
L444.506 185.579
L444.952 184.615
L445.398 184.289
L445.845 185.423
L446.291 166.401
L446.738 185.233
L447.184 171.176
L447.63 193.118
L448.523 176.724
L448.97 191.939
L449.416 179.33
L449.862 176.874
L450.309 172.749
L450.755 187.41
L451.202 191.84
L452.094 168.428
L452.987 192.86
L453.88 176.442
L454.326 192.131
L454.773 194.34
L455.219 176.813
L456.112 185.748
L456.558 186.109
L457.005 198.62
L457.451 182.692
L457.898 186.158
L458.344 179.083
L458.79 178.718
L459.237 191.274
L459.683 178.399
L460.13 176.385
L460.576 182.209
L461.022 180.39
L461.469 179.935
L461.915 189.681
L462.362 187.017
L462.808 178.295
L463.254 183.038
L463.701 192.45
L464.594 171.779
L465.04 172.408
L465.486 182.176
L465.933 185.645
L466.379 183.273
L466.826 181.63
L467.272 171.957
L467.718 193.825
L468.165 181.862
L468.611 176.118
L469.058 184.553
L469.504 175.975
L469.95 190.66
L470.397 190.83
L470.843 188.41
L471.29 174.919
L471.736 179.792
L472.182 177.354
L472.629 194.896
L473.075 179.085
L473.522 180.822
L473.968 180.589
L474.414 184.763
L474.861 174.489
L475.307 183.904
L475.754 183.933
L476.2 182.537
L476.646 183.11
L477.093 188.924
L477.539 179.402
L477.986 189.948
L478.432 181.449
L478.878 167.268
L479.325 194.988
L479.771 177.857
L480.218 171.503
L480.664 191.143
L481.11 188.741
L482.003 168.143
L482.45 179.993
L482.896 170.099
L483.342 178.386
L483.789 184.074
L484.235 180.586
L484.682 185.886
L485.128 184.291
L485.574 181.303
L486.021 186.71
L486.467 177.845
L486.914 187.353
L487.36 171.872
L487.806 181.697
L488.253 183.097
L488.699 177.258
L489.146 173.782
L489.592 173.291
L490.931 188.494
L491.378 179.83
L491.824 176.704
L492.27 185.522
L492.717 180.198
L493.163 183.739
L493.61 184.027
L494.056 170.329
L494.502 184.381
L494.949 178.453
L495.395 191.999
L495.842 192.757
L496.288 180.298
L496.734 180.982
L497.181 183.426
L497.627 174.418
L498.52 181.972
L498.966 183.82
L499.413 183.831
L500.306 186.415
L500.752 178.232
L501.198 184.156
L501.645 183.72
L502.091 177.806
L502.538 170.265
L502.984 190.577
L503.43 182.598
L503.877 189.896
L504.323 183.735
L504.77 188.579
L505.216 191.558
L505.662 183.466
L506.109 180.043
L506.555 191.042
L507.002 175.242
L507.448 187.313
L507.894 179.662
L508.341 176.627
L508.787 179.039
L509.234 183.457
L509.68 177.26
L509.68 177.26" style="fill:none;stroke:#e41a1c;stroke-linecap:square;"/>
   </g>
   <g id="line2d_2">
    <path clip-path="url(#p98f34fbb35)" d="
M63.7264 140.754
L64.1728 340.055
L64.6192 198.348
L65.0656 167.118
L65.512 309.828
L65.9584 98.8266
L66.4048 92.4651
L66.8512 222.578
L67.2976 235.015
L67.744 160.994
L68.1904 239.385
L68.6368 209.907
L69.0832 291.741
L69.5296 133.624
L69.976 170.421
L70.4224 254.567
L70.8688 209.107
L71.3152 99.7102
L71.7616 184.072
L72.208 204.114
L72.6544 180.064
L73.1008 166.462
L73.9936 245.619
L74.44 178.184
L74.8864 141.422
L75.3328 212.012
L75.7792 162.656
L76.2256 260.595
L76.672 165.088
L77.1184 151.393
L78.0112 229.524
L78.4576 168.891
L78.904 159.895
L79.3504 175.571
L79.7968 206.801
L80.2432 126.995
L80.6896 128.45
L81.136 214.454
L81.5824 179.665
L82.0288 197.582
L82.4752 186.405
L82.9216 204.658
L83.368 180.687
L83.8144 220.814
L84.2608 223.614
L84.7072 178.37
L85.1536 157.67
L85.6 208.353
L86.0464 159.902
L86.4928 196.239
L86.9392 130.149
L87.832 230.108
L88.2784 173.259
L89.1712 207.82
L89.6176 198.501
L90.064 185.795
L90.5104 225.699
L90.9568 196.845
L91.4032 184.247
L91.8496 147.836
L92.296 186.903
L92.7424 199.38
L93.1888 179.476
L93.6352 150.956
L94.0816 220.431
L94.528 187.768
L94.9744 210.856
L95.4208 182.718
L95.8672 183.111
L96.3136 176.485
L96.76 200.247
L97.2064 199.619
L97.6528 216.527
L98.0992 181.82
L98.5456 194.334
L98.992 163.699
L99.4384 185.411
L99.8848 171.762
L100.331 172.213
L100.778 197.254
L101.224 180.186
L101.67 213.839
L102.117 196.971
L103.01 177.308
L103.456 154.425
L103.902 202.522
L104.349 177.377
L104.795 173.483
L105.242 202.991
L105.688 205.165
L106.134 161.246
L106.581 187.825
L107.027 152.613
L107.474 168.737
L107.92 200.802
L108.366 183.505
L108.813 181.966
L109.259 164.068
L109.706 164.86
L110.152 194.532
L111.045 191.621
L111.491 164.361
L111.938 181.585
L112.384 175.265
L112.83 210.225
L113.277 163.025
L113.723 196.09
L114.17 181.249
L114.616 175.246
L115.062 197.205
L115.509 196.014
L115.955 182.226
L116.402 156.734
L116.848 165.319
L117.294 177.777
L117.741 178.438
L118.187 174.148
L118.634 174.218
L119.08 173.048
L119.526 154.23
L119.973 173.57
L120.419 168.277
L120.866 182.204
L121.312 204.625
L121.758 190.01
L122.205 169.345
L122.651 186.099
L123.098 193.726
L123.544 167.236
L123.99 162.079
L124.437 200.607
L124.883 170.171
L125.776 190.722
L126.222 170.948
L126.669 195.598
L127.115 211.837
L127.562 181.787
L128.008 215.233
L128.454 194.246
L128.901 211.591
L129.347 185.874
L129.794 179.465
L130.24 196.243
L130.686 191.013
L131.133 181.317
L131.579 168.823
L132.026 179.034
L132.472 204.857
L132.918 176.898
L133.365 188.484
L133.811 176.761
L134.258 193.232
L134.704 155.342
L135.15 180.568
L135.597 198.985
L136.043 173.957
L136.49 173.824
L136.936 185.542
L137.382 186.095
L137.829 157.352
L138.275 184.102
L138.722 175.272
L139.168 163.376
L139.614 182.984
L140.061 178.806
L140.954 160.125
L141.4 197.649
L141.846 190.146
L142.293 170.731
L142.739 167.078
L143.186 198.896
L143.632 197.778
L144.078 195.784
L144.525 203.598
L144.971 171.174
L145.418 199.496
L145.864 198.534
L146.757 168.358
L147.203 186.92
L147.65 188.885
L148.096 175.694
L148.542 197.866
L148.989 164.324
L149.435 169.548
L149.882 156.556
L150.328 197.191
L150.774 176.868
L151.221 213.29
L151.667 183.787
L152.114 179.444
L152.56 188.517
L153.006 171.009
L153.453 176.562
L153.899 197.183
L154.346 177.238
L154.792 195.882
L155.238 191.862
L155.685 222.851
L156.131 185.939
L156.578 205.35
L157.024 174.954
L157.917 185.651
L158.363 188.357
L158.81 184.357
L159.256 173.066
L159.702 196.397
L160.149 186.901
L160.595 163.546
L161.042 189.378
L161.488 193.985
L161.934 204.365
L162.381 192.837
L162.827 177.703
L163.274 169.778
L163.72 186.249
L164.166 191.539
L164.613 202.113
L165.059 197.245
L165.506 179.434
L165.952 179.487
L166.398 174.514
L166.845 175.774
L167.291 202.519
L168.184 187.38
L168.63 166.191
L169.077 196.269
L169.523 188.414
L169.97 206.924
L170.416 191.565
L170.862 188.63
L171.309 189.898
L171.755 182.177
L172.202 182.116
L172.648 186.233
L173.094 200.888
L173.541 183.865
L173.987 179.558
L174.434 167.724
L174.88 180.119
L175.326 187.401
L175.773 197.844
L176.219 154.416
L176.666 201.104
L177.112 180.32
L177.558 153.131
L178.005 177.482
L178.451 182.776
L178.898 195.153
L179.344 179.889
L179.79 196.203
L180.683 174.842
L181.13 189.577
L181.576 179.566
L182.022 189.512
L182.469 152.611
L182.915 182.742
L183.362 182.145
L183.808 178.517
L184.254 176.35
L184.701 185.131
L185.147 181.385
L185.594 186.85
L186.04 171.455
L186.486 184.265
L186.933 183.624
L187.379 175.238
L187.826 188.064
L188.272 170.431
L188.718 167.685
L189.611 187.622
L190.058 167.997
L190.504 187.587
L190.95 193.688
L191.397 173.391
L191.843 174.186
L192.29 189.421
L192.736 190.617
L193.182 189.114
L193.629 196.815
L194.075 172.534
L194.522 192.542
L194.968 184.257
L195.414 169.458
L195.861 172.987
L196.307 184.895
L196.754 202.857
L197.2 179.51
L197.646 195.935
L198.093 189.177
L198.539 167.709
L198.986 186.032
L199.432 189.705
L199.878 168.699
L200.325 154.167
L200.771 160.824
L201.218 183.928
L201.664 170.868
L202.11 165.901
L202.557 180.896
L203.003 200.266
L203.45 161.501
L203.896 197.861
L204.342 172.725
L204.789 172.971
L205.235 183.965
L205.682 187.831
L206.128 203.071
L206.574 176.366
L207.021 189.067
L207.467 195.754
L207.914 166.467
L208.36 169.415
L208.806 177.136
L209.253 182.732
L209.699 203.596
L210.146 196.329
L210.592 166.792
L211.485 200.785
L211.931 168.906
L212.378 178.024
L212.824 182.271
L213.27 184.67
L213.717 192.677
L214.163 151.234
L214.61 160.529
L215.056 166.708
L215.502 176.088
L215.949 176.776
L216.395 179.77
L216.842 181.048
L217.288 185.068
L217.734 181.735
L218.181 183.945
L218.627 193.149
L219.074 181.289
L219.52 163.935
L219.966 186.831
L220.413 184.879
L220.859 171.44
L221.306 178.73
L221.752 183.302
L222.198 168.93
L222.645 181.035
L223.091 186.317
L223.538 166.344
L223.984 181.728
L224.43 168.672
L224.877 198.198
L225.323 166.725
L225.77 190.744
L226.216 172.531
L226.662 187.918
L227.109 171.272
L227.555 187.409
L228.002 179.164
L228.448 181.775
L228.894 166.809
L229.341 167.388
L229.787 201.633
L230.234 177.756
L230.68 191.626
L231.126 179.643
L231.573 178.65
L232.019 176.542
L232.466 196.991
L232.912 173.983
L233.358 171.44
L233.805 170.722
L234.251 186.364
L234.698 155.437
L235.144 192.612
L235.59 191.272
L236.037 174.971
L236.483 187.254
L236.93 192.581
L237.376 191.833
L237.822 171.676
L238.269 167.938
L238.715 171.969
L239.162 173.375
L240.054 187.419
L240.501 189.415
L240.947 207.286
L241.394 177.396
L241.84 195.557
L242.286 201.255
L242.733 185.347
L243.179 174.629
L243.626 190.294
L244.072 194.705
L244.518 189.165
L244.965 186.619
L245.411 187.009
L245.858 185.896
L246.304 171.682
L246.75 177.501
L247.197 186.888
L247.643 177.096
L248.09 185.422
L248.536 185.917
L248.982 189.346
L249.429 182.374
L249.875 186.145
L250.322 167.8
L250.768 175.543
L251.214 176.115
L251.661 170.622
L252.107 170.93
L252.554 201.792
L253 171.246
L253.446 197.016
L253.893 186.087
L254.339 195.116
L254.786 175.943
L255.232 183.162
L255.678 188.161
L256.125 168.399
L256.571 159.605
L257.018 187.146
L257.464 178.218
L257.91 186.057
L258.357 184.354
L258.803 169.78
L259.25 181.982
L259.696 190.283
L260.142 182.34
L260.589 169.953
L261.035 173.575
L261.482 195.555
L261.928 179.712
L262.374 185.223
L262.821 185.784
L263.267 189.294
L263.714 175.943
L264.16 176.384
L264.606 187.275
L265.053 186.923
L265.499 197.165
L265.946 197.34
L266.392 181.232
L266.838 188.066
L267.285 199.55
L267.731 187.6
L268.178 171.822
L268.624 186.553
L269.07 171.551
L269.517 184.035
L269.963 178.037
L270.41 179.8
L270.856 184.244
L271.302 183.793
L271.749 185.18
L272.195 166.208
L272.642 192.463
L273.088 192.3
L273.534 185.142
L273.981 186.698
L274.427 176.716
L274.874 188.15
L275.32 171.551
L275.766 185.588
L276.213 183.389
L276.659 180.286
L277.106 179.405
L277.552 175.608
L277.998 187.854
L278.445 174.122
L278.891 177.5
L279.338 187.406
L280.23 181.356
L280.677 169.636
L281.123 185.874
L281.57 178.482
L282.016 186.335
L282.462 178.494
L282.909 179.732
L283.355 178.099
L283.802 172.515
L284.248 193.212
L284.694 168.475
L285.141 178.514
L285.587 183.998
L286.034 178.971
L286.48 186.084
L286.926 186.062
L287.373 170.237
L287.819 186.274
L288.266 176.464
L288.712 178.698
L289.158 192.937
L289.605 174.45
L290.051 188.257
L290.498 196.37
L290.944 174.056
L291.39 175.825
L291.837 188.235
L292.283 182.705
L292.73 181.162
L293.176 186.072
L293.622 155.777
L294.069 176.787
L294.962 192.877
L295.408 193.773
L295.854 195.513
L296.301 173.446
L296.747 182.387
L297.194 179.02
L297.64 183.414
L298.086 164.761
L298.533 184.399
L298.979 184.466
L299.426 189.248
L299.872 166.916
L300.318 168.109
L300.765 203.385
L301.211 172.599
L301.658 186.587
L302.104 175.855
L302.55 178.593
L302.997 172.555
L303.443 171.982
L303.89 176.168
L304.336 189.613
L304.782 191.958
L305.229 165.534
L305.675 185.51
L307.014 175.699
L307.461 183.997
L307.907 170.829
L308.354 189.189
L308.8 170.984
L309.246 184.912
L309.693 179.091
L310.139 177.054
L310.586 185.491
L311.032 177.108
L311.478 182.413
L311.925 191.657
L312.371 181.833
L312.818 167.421
L313.264 185.622
L313.71 182.74
L314.157 171.832
L314.603 173.932
L315.05 184.377
L315.496 177.412
L315.942 179.696
L316.389 186.002
L316.835 180.316
L317.282 177.882
L317.728 182.343
L318.174 173.719
L318.621 195.791
L319.067 180.711
L319.514 183.683
L319.96 171.189
L320.406 180.615
L320.853 183.616
L321.299 182.324
L321.746 190.087
L322.638 170.079
L323.085 170.848
L323.531 173.029
L323.978 176.646
L324.424 182.272
L324.87 179.973
L325.317 178.259
L325.763 178.019
L326.21 169.675
L326.656 185.142
L327.102 185.323
L327.549 181.652
L327.995 181.939
L328.442 180.069
L328.888 174.833
L329.334 177.459
L329.781 164.774
L330.227 191.884
L330.674 184.285
L331.12 181.592
L331.566 180.411
L332.013 192.058
L332.459 181.876
L332.906 168.634
L333.352 185.032
L333.798 180.741
L334.245 181.806
L334.691 176.735
L335.138 181.332
L335.584 172.314
L336.03 190.566
L336.477 190.574
L336.923 181.453
L337.37 183.923
L337.816 182.484
L338.262 187.087
L338.709 177.352
L339.155 179.687
L339.602 175.765
L340.048 186.98
L340.494 183.171
L340.941 189.156
L341.387 188.262
L341.834 177.41
L342.726 187.119
L343.173 184.713
L343.619 181.682
L344.066 182.798
L344.512 173.488
L344.958 176.839
L345.405 182.372
L346.298 172.204
L346.744 187.012
L347.19 183.163
L347.637 178
L348.083 185.273
L348.53 179.133
L348.976 180.704
L349.422 178.941
L349.869 182.881
L350.315 190.956
L350.762 177.657
L351.208 197.404
L352.547 168.806
L352.994 180.003
L353.44 182.722
L353.886 180.322
L354.333 192.115
L354.779 183.007
L355.226 193.008
L355.672 180.118
L356.118 180.751
L356.565 177.079
L357.011 180.462
L357.458 176.548
L357.904 180.837
L358.35 177.646
L358.797 191.806
L359.243 184.469
L359.69 172.747
L360.136 187.928
L361.029 177.249
L361.475 184.559
L361.922 175.719
L362.368 187.19
L362.814 189.727
L363.261 190.312
L363.707 190.045
L364.154 176.267
L364.6 180.604
L365.046 177.6
L365.939 185.241
L366.386 179.974
L367.278 175.58
L367.725 182.672
L368.171 183.815
L368.618 189.038
L369.064 191.502
L369.51 190.926
L369.957 180.915
L370.403 164.745
L370.85 177.874
L371.296 173.449
L371.742 178.169
L372.189 175.816
L372.635 188.016
L373.082 175.951
L373.528 186.846
L373.974 185.812
L374.421 200.03
L374.867 188.971
L375.314 193.067
L375.76 177.988
L376.206 182.085
L376.653 188.503
L377.099 186.469
L377.546 173.116
L377.992 185.6
L378.438 183.684
L378.885 177.095
L379.331 166.833
L379.778 177.618
L380.224 177.718
L380.67 181.367
L381.117 173.703
L381.563 172.713
L382.01 179.269
L382.456 180.331
L383.349 160.945
L383.795 172.287
L384.242 186.491
L384.688 186.845
L385.134 173.503
L385.581 170.783
L386.027 181.334
L386.474 175.252
L386.92 187.496
L387.366 186.563
L387.813 167.225
L388.259 178.578
L388.706 185.078
L389.152 175.838
L389.598 183.451
L390.045 171.392
L390.491 199.202
L390.938 174.892
L391.384 168.686
L391.83 181.821
L392.277 188.136
L392.723 187.435
L393.17 172.722
L393.616 184.939
L394.062 188.36
L394.509 186.542
L394.955 188.584
L395.402 192.262
L395.848 164.834
L396.294 189.758
L396.741 173.631
L397.634 181.428
L398.526 187.516
L398.973 175.578
L399.866 165.074
L400.758 180.859
L401.205 183.532
L401.651 189.31
L402.098 180.985
L402.544 189.389
L402.99 172.81
L403.437 170.877
L403.883 191.69
L404.33 186.492
L404.776 195.201
L405.222 175.155
L405.669 189.541
L406.115 194.489
L406.562 179.08
L407.008 187.929
L407.454 175.984
L407.901 188.219
L408.347 169.716
L408.794 169.096
L409.24 169.751
L409.686 201.217
L410.133 177.025
L410.579 183.308
L411.026 178.62
L411.472 178.471
L411.918 176.866
L412.365 182.645
L412.811 172.202
L413.258 188.794
L413.704 178.821
L414.15 184.725
L414.597 184.627
L415.043 187.467
L415.49 168.459
L415.936 186.924
L416.382 186.929
L416.829 188.421
L417.275 179.424
L417.722 177.71
L418.168 181.422
L418.614 183.784
L419.061 183.762
L419.507 176.311
L419.954 182.392
L420.4 175.109
L420.846 183.954
L421.293 185.217
L421.739 182.222
L422.186 186.871
L422.632 182.791
L423.078 187.854
L423.525 184.046
L423.971 184.145
L424.418 187.329
L425.31 174.725
L425.757 179.184
L426.203 175.437
L426.65 192.783
L427.096 185.855
L427.989 183.187
L428.435 187.011
L428.882 187.918
L429.328 191.301
L429.774 189.147
L430.221 177.54
L430.667 178.457
L431.114 185.619
L431.56 184.392
L432.006 190.774
L432.453 178.316
L432.899 184.171
L433.346 173.838
L433.792 178.1
L434.238 185.902
L435.131 180.627
L435.578 187.301
L436.024 180.779
L436.47 184.097
L436.917 172.834
L437.363 184.166
L437.81 176.537
L438.256 183.514
L438.702 180.058
L439.149 188.027
L439.595 172.831
L440.042 178.614
L440.488 186.448
L440.934 187.695
L441.381 182.705
L441.827 172.039
L442.274 186.9
L442.72 180.946
L443.166 195.218
L443.613 178.894
L444.059 181.297
L444.506 181.973
L444.952 184.67
L445.398 176.06
L445.845 176.766
L446.291 180.74
L446.738 178.361
L447.184 172.954
L447.63 179.051
L448.077 190.536
L448.523 182.033
L448.97 183.078
L449.416 172.909
L449.862 187.999
L450.309 181.732
L450.755 179.619
L451.202 178.923
L451.648 188.02
L452.094 173.75
L452.541 181.514
L452.987 184.344
L453.434 177.658
L453.88 179.576
L454.326 185.796
L454.773 181.526
L455.219 179.965
L455.666 183.892
L456.112 189.101
L456.558 182.874
L457.005 188.996
L457.451 173.362
L457.898 189.998
L458.344 176.323
L458.79 192.961
L459.237 166.814
L459.683 172.65
L460.13 189.035
L460.576 179.375
L461.022 178.013
L461.469 174.36
L461.915 178.847
L462.362 189.5
L462.808 174.096
L463.254 174.839
L463.701 173.733
L464.147 181.77
L464.594 185.237
L465.04 184.371
L465.486 167.268
L465.933 177.922
L466.379 180.889
L466.826 186.378
L467.272 171.064
L467.718 185.134
L468.165 185.093
L468.611 193.21
L469.058 186.171
L469.504 162.839
L469.95 180.934
L470.397 178.248
L470.843 188.287
L471.29 185.17
L471.736 168.909
L472.182 185.354
L472.629 184.973
L473.075 190.284
L473.522 179.741
L473.968 180.551
L474.414 174.516
L474.861 192.203
L475.307 185.72
L475.754 182.866
L476.2 177.587
L476.646 182.563
L477.093 174.01
L477.539 178.988
L477.986 173.93
L478.432 182.528
L478.878 183.398
L479.325 179.828
L479.771 174.15
L480.218 184.81
L481.11 170.822
L481.557 188.462
L482.003 185.03
L482.45 184.455
L482.896 188.874
L483.342 181.245
L483.789 180.489
L484.235 178.133
L485.128 191.648
L485.574 185.668
L486.021 177.405
L486.467 174.297
L486.914 174.641
L487.36 173.073
L487.806 175.395
L488.253 177.086
L488.699 196.61
L489.146 184.159
L489.592 184.72
L490.038 183.617
L490.485 182.014
L490.931 189.909
L491.378 183.696
L492.27 178.921
L492.717 194.809
L493.163 189.488
L493.61 177.467
L494.056 183.339
L494.502 172.764
L494.949 192.895
L495.395 174.231
L495.842 184.902
L496.288 177.303
L496.734 190.281
L497.181 170.823
L497.627 186.378
L498.074 175.848
L499.413 189.436
L499.859 175.818
L500.306 185.759
L500.752 179.322
L501.198 185.376
L501.645 170.484
L502.091 169.061
L502.538 176.585
L503.43 186.564
L503.877 180.452
L504.323 188.884
L504.77 180.906
L505.216 175.841
L505.662 177.106
L506.109 186.345
L506.555 187.665
L507.002 167.545
L507.448 174.65
L507.894 183.589
L508.341 183.671
L508.787 185.146
L509.234 179.529
L509.68 180.906
L509.68 180.906" style="fill:none;stroke:#377eb8;stroke-linecap:square;"/>
   </g>
   <g id="patch_3">
    <path d="
M63.28 14.6063
L509.68 14.6063" style="fill:none;stroke:#000000;stroke-linecap:square;stroke-linejoin:miter;"/>
   </g>
   <g id="patch_4">
    <path d="
M509.68 349.406
L509.68 14.6062" style="fill:none;stroke:#000000;stroke-linecap:square;stroke-linejoin:miter;"/>
   </g>
   <g id="patch_5">
    <path d="
M63.28 349.406
L509.68 349.406" style="fill:none;stroke:#000000;stroke-linecap:square;stroke-linejoin:miter;"/>
   </g>
   <g id="patch_6">
    <path d="
M63.28 349.406
L63.28 14.6062" style="fill:none;stroke:#000000;stroke-linecap:square;stroke-linejoin:miter;"/>
   </g>
   <g id="matplotlib.axis_1">
    <g id="xtick_1">
     <g id="line2d_3">
      <defs>
       <path d="
M0 0
L0 -4" id="m93b0483c22" style="stroke:#000000;stroke-width:0.5;"/>
      </defs>
      <g>
       <use style="stroke:#000000;stroke-width:0.5;" x="63.28" xlink:href="#m93b0483c22" y="349.40625"/>
      </g>
     </g>
     <g id="line2d_4">
      <defs>
       <path d="
M0 0
L0 4" id="m741efc42ff" style="stroke:#000000;stroke-width:0.5;"/>
      </defs>
      <g>
       <use style="stroke:#000000;stroke-width:0.5;" x="63.28" xlink:href="#m741efc42ff" y="14.60625"/>
      </g>
     </g>
     <g id="text_1">
      <!-- 0 -->
      <defs>
       <path d="
M27.0469 69.9219
Q40.625 69.9219 46.6875 58.7344
Q51.375 50.0938 51.375 35.0625
Q51.375 20.7969 47.125 11.4688
Q40.9688 -1.90625 27 -1.90625
Q14.4062 -1.90625 8.25 9.03125
Q3.125 18.1719 3.125 33.5469
Q3.125 45.4531 6.20312 54
Q11.9688 69.9219 27.0469 69.9219
z

M26.9531 6.10938
Q33.7969 6.10938 37.8438 12.1562
Q41.8906 18.2188 41.8906 34.7188
Q41.8906 46.625 38.9531 54.3125
Q36.0312 62.0156 27.5938 62.0156
Q19.8281 62.0156 16.2344 54.7031
Q12.6406 47.4062 12.6406 33.2031
Q12.6406 22.5156 14.9375 16.0156
Q18.4531 6.10938 26.9531 6.10938
z
" id="Helvetica-30"/>
      </defs>
      <g transform="translate(59.42 364.88375)scale(0.16 -0.16)">
       <use xlink:href="#Helvetica-30"/>
      </g>
     </g>
    </g>
    <g id="xtick_2">
     <g id="line2d_5">
      <g>
       <use style="stroke:#000000;stroke-width:0.5;" x="152.56" xlink:href="#m93b0483c22" y="349.40625"/>
      </g>
     </g>
     <g id="line2d_6">
      <g>
       <use style="stroke:#000000;stroke-width:0.5;" x="152.56" xlink:href="#m741efc42ff" y="14.60625"/>
      </g>
     </g>
     <g id="text_2">
      <!-- 2000 -->
      <defs>
       <path d="
M3.125 0
Q3.60938 9.03125 6.85938 15.7188
Q10.1094 22.4062 19.5312 27.875
L28.9062 33.2969
Q35.2031 36.9688 37.75 39.5469
Q41.75 43.6094 41.75 48.8281
Q41.75 54.9375 38.0781 58.5156
Q34.4219 62.1094 28.3281 62.1094
Q19.2812 62.1094 15.8281 55.2812
Q13.9688 51.6094 13.7656 45.125
L4.82812 45.125
Q4.98438 54.25 8.20312 60.0156
Q13.9219 70.1719 28.375 70.1719
Q40.375 70.1719 45.9219 63.6719
Q51.4688 57.1719 51.4688 49.2188
Q51.4688 40.8281 45.5625 34.8594
Q42.1406 31.3906 33.2969 26.4688
L26.6094 22.75
Q21.8281 20.125 19.0938 17.7188
Q14.2031 13.4844 12.9375 8.29688
L51.125 8.29688
L51.125 0
L3.125 0
z
" id="Helvetica-32"/>
      </defs>
      <g transform="translate(135.35375 364.88375)scale(0.16 -0.16)">
       <use xlink:href="#Helvetica-32"/>
       <use x="55.615234375" xlink:href="#Helvetica-30"/>
       <use x="111.23046875" xlink:href="#Helvetica-30"/>
       <use x="166.845703125" xlink:href="#Helvetica-30"/>
      </g>
     </g>
    </g>
    <g id="xtick_3">
     <g id="line2d_7">
      <g>
       <use style="stroke:#000000;stroke-width:0.5;" x="241.84" xlink:href="#m93b0483c22" y="349.40625"/>
      </g>
     </g>
     <g id="line2d_8">
      <g>
       <use style="stroke:#000000;stroke-width:0.5;" x="241.84" xlink:href="#m741efc42ff" y="14.60625"/>
      </g>
     </g>
     <g id="text_3">
      <!-- 4000 -->
      <defs>
       <path d="
M33.0625 24.75
L33.0625 56.4531
L10.6406 24.75
z

M33.2031 0
L33.2031 17.0938
L2.54688 17.0938
L2.54688 25.6875
L34.5781 70.125
L42 70.125
L42 24.75
L52.2969 24.75
L52.2969 17.0938
L42 17.0938
L42 0
z
" id="Helvetica-34"/>
      </defs>
      <g transform="translate(224.5875 364.88375)scale(0.16 -0.16)">
       <use xlink:href="#Helvetica-34"/>
       <use x="55.615234375" xlink:href="#Helvetica-30"/>
       <use x="111.23046875" xlink:href="#Helvetica-30"/>
       <use x="166.845703125" xlink:href="#Helvetica-30"/>
      </g>
     </g>
    </g>
    <g id="xtick_4">
     <g id="line2d_9">
      <g>
       <use style="stroke:#000000;stroke-width:0.5;" x="331.12" xlink:href="#m93b0483c22" y="349.40625"/>
      </g>
     </g>
     <g id="line2d_10">
      <g>
       <use style="stroke:#000000;stroke-width:0.5;" x="331.12" xlink:href="#m741efc42ff" y="14.60625"/>
      </g>
     </g>
     <g id="text_4">
      <!-- 6000 -->
      <defs>
       <path d="
M29.25 70.2188
Q40.9688 70.2188 45.5781 64.1406
Q50.2031 58.0625 50.2031 51.6094
L41.5 51.6094
Q40.7188 55.7656 39.0156 58.1094
Q35.8438 62.5 29.3906 62.5
Q22.0156 62.5 17.6719 55.6875
Q13.3281 48.875 12.8438 36.1875
Q15.875 40.625 20.4531 42.8281
Q24.6562 44.7812 29.8281 44.7812
Q38.625 44.7812 45.1562 39.1562
Q51.7031 33.5469 51.7031 22.4062
Q51.7031 12.8906 45.5 5.53125
Q39.3125 -1.8125 27.8281 -1.8125
Q18.0156 -1.8125 10.8906 5.64062
Q3.76562 13.0938 3.76562 30.7188
Q3.76562 43.75 6.9375 52.8281
Q13.0312 70.2188 29.25 70.2188
z

M28.6094 6
Q35.5469 6 38.9844 10.6562
Q42.4375 15.3281 42.4375 21.6875
Q42.4375 27.0469 39.3594 31.9062
Q36.2812 36.7656 28.1719 36.7656
Q22.5156 36.7656 18.2344 33
Q13.9688 29.25 13.9688 21.6875
Q13.9688 15.0469 17.8438 10.5156
Q21.7344 6 28.6094 6
z
" id="Helvetica-36"/>
      </defs>
      <g transform="translate(313.965 364.88375)scale(0.16 -0.16)">
       <use xlink:href="#Helvetica-36"/>
       <use x="55.615234375" xlink:href="#Helvetica-30"/>
       <use x="111.23046875" xlink:href="#Helvetica-30"/>
       <use x="166.845703125" xlink:href="#Helvetica-30"/>
      </g>
     </g>
    </g>
    <g id="xtick_5">
     <g id="line2d_11">
      <g>
       <use style="stroke:#000000;stroke-width:0.5;" x="420.4" xlink:href="#m93b0483c22" y="349.40625"/>
      </g>
     </g>
     <g id="line2d_12">
      <g>
       <use style="stroke:#000000;stroke-width:0.5;" x="420.4" xlink:href="#m741efc42ff" y="14.60625"/>
      </g>
     </g>
     <g id="text_5">
      <!-- 8000 -->
      <defs>
       <path d="
M27.2031 40.625
Q33.0156 40.625 36.2812 43.875
Q39.5469 47.125 39.5469 51.6094
Q39.5469 55.5156 36.4219 58.7812
Q33.2969 62.0625 26.9062 62.0625
Q20.5625 62.0625 17.7188 58.7812
Q14.8906 55.5156 14.8906 51.125
Q14.8906 46.1875 18.5469 43.4062
Q22.2188 40.625 27.2031 40.625
z

M27.7344 6
Q33.8438 6 37.8594 9.29688
Q41.8906 12.5938 41.8906 19.1406
Q41.8906 25.9219 37.7344 29.4375
Q33.5938 32.9531 27.0938 32.9531
Q20.7969 32.9531 16.8125 29.3594
Q12.8438 25.7812 12.8438 19.4375
Q12.8438 13.9688 16.4844 9.98438
Q20.125 6 27.7344 6
z

M15.2344 37.25
Q11.5781 38.8125 9.51562 40.9219
Q5.67188 44.8281 5.67188 51.0781
Q5.67188 58.8906 11.3281 64.5
Q17 70.125 27.3906 70.125
Q37.4531 70.125 43.1562 64.8125
Q48.875 59.5156 48.875 52.4375
Q48.875 45.9062 45.5625 41.8438
Q43.7031 39.5469 39.7969 37.3594
Q44.1406 35.3594 46.625 32.7656
Q51.2656 27.875 51.2656 20.0625
Q51.2656 10.8438 45.0625 4.42188
Q38.875 -2 27.5469 -2
Q17.3281 -2 10.2656 3.53125
Q3.21875 9.07812 3.21875 19.625
Q3.21875 25.8281 6.25 30.3438
Q9.28125 34.8594 15.2344 37.25
z
" id="Helvetica-38"/>
      </defs>
      <g transform="translate(403.20125 364.88375)scale(0.16 -0.16)">
       <use xlink:href="#Helvetica-38"/>
       <use x="55.615234375" xlink:href="#Helvetica-30"/>
       <use x="111.23046875" xlink:href="#Helvetica-30"/>
       <use x="166.845703125" xlink:href="#Helvetica-30"/>
      </g>
     </g>
    </g>
    <g id="xtick_6">
     <g id="line2d_13">
      <g>
       <use style="stroke:#000000;stroke-width:0.5;" x="509.68" xlink:href="#m93b0483c22" y="349.40625"/>
      </g>
     </g>
     <g id="line2d_14">
      <g>
       <use style="stroke:#000000;stroke-width:0.5;" x="509.68" xlink:href="#m741efc42ff" y="14.60625"/>
      </g>
     </g>
     <g id="text_6">
      <!-- 10000 -->
      <defs>
       <path d="
M9.57812 49.5156
L9.57812 56.25
Q19.0938 57.1719 22.8438 59.3438
Q26.6094 61.5312 28.4688 69.625
L35.4062 69.625
L35.4062 0
L26.0312 0
L26.0312 49.5156
z
" id="Helvetica-31"/>
      </defs>
      <g transform="translate(488.54125 364.88375)scale(0.16 -0.16)">
       <use xlink:href="#Helvetica-31"/>
       <use x="55.615234375" xlink:href="#Helvetica-30"/>
       <use x="111.23046875" xlink:href="#Helvetica-30"/>
       <use x="166.845703125" xlink:href="#Helvetica-30"/>
       <use x="222.4609375" xlink:href="#Helvetica-30"/>
      </g>
     </g>
    </g>
    <g id="text_7">
     <!-- Sample size -->
     <defs>
      <path id="Helvetica-20"/>
      <path d="
M6.45312 52.0469
L15.375 52.0469
L15.375 0
L6.45312 0
z

M6.45312 71.7344
L15.375 71.7344
L15.375 61.7656
L6.45312 61.7656
z
" id="Helvetica-69"/>
      <path d="
M13.9688 23.1406
Q14.3125 17.0469 16.8438 13.2344
Q21.6875 6.10938 33.8906 6.10938
Q39.3594 6.10938 43.8438 7.67188
Q52.5469 10.6875 52.5469 18.5
Q52.5469 24.3594 48.875 26.8594
Q45.1719 29.2969 37.25 31.1094
L27.5469 33.2969
Q18.0156 35.4531 14.0625 38.0312
Q7.23438 42.5312 7.23438 51.4688
Q7.23438 61.1406 13.9219 67.3281
Q20.6094 73.5312 32.8594 73.5312
Q44.1406 73.5312 52.0156 68.0781
Q59.9062 62.6406 59.9062 50.6875
L50.7812 50.6875
Q50.0469 56.4531 47.6562 59.5156
Q43.2188 65.1406 32.5625 65.1406
Q23.9688 65.1406 20.2031 61.5156
Q16.4531 57.9062 16.4531 53.125
Q16.4531 47.8594 20.8438 45.4062
Q23.7344 43.8438 33.8906 41.5
L43.9531 39.2031
Q51.2188 37.5469 55.1719 34.6719
Q62.0156 29.6406 62.0156 20.0625
Q62.0156 8.15625 53.3438 3.03125
Q44.6719 -2.09375 33.2031 -2.09375
Q19.8281 -2.09375 12.25 4.73438
Q4.6875 11.5312 4.82812 23.1406
z

M33.5938 73.6875
z
" id="Helvetica-53"/>
      <path d="
M28.2188 53.4688
Q33.7969 53.4688 39.0156 50.8594
Q44.2344 48.25 46.9688 44.0938
Q49.6094 40.1406 50.4844 34.8594
Q51.2656 31.25 51.2656 23.3438
L12.9375 23.3438
Q13.1875 15.375 16.7031 10.5625
Q20.2188 5.76562 27.5938 5.76562
Q34.4688 5.76562 38.5781 10.2969
Q40.9219 12.9375 41.8906 16.4062
L50.5312 16.4062
Q50.2031 13.5312 48.2656 9.98438
Q46.3438 6.45312 43.9531 4.20312
Q39.9375 0.296875 34.0312 -1.07812
Q30.8594 -1.85938 26.8594 -1.85938
Q17.0938 -1.85938 10.2969 5.25
Q3.51562 12.3594 3.51562 25.1406
Q3.51562 37.75 10.3438 45.6094
Q17.1875 53.4688 28.2188 53.4688
z

M42.2344 30.3281
Q41.7031 36.0312 39.75 39.4531
Q36.1406 45.7969 27.6875 45.7969
Q21.625 45.7969 17.5156 41.4219
Q13.4219 37.0625 13.1875 30.3281
z

M27.3906 53.5625
z
" id="Helvetica-65"/>
      <path d="
M11.6719 16.4062
Q12.0625 12.0156 13.875 9.67188
Q17.1875 5.42188 25.3906 5.42188
Q30.2812 5.42188 33.9844 7.54688
Q37.7031 9.67188 37.7031 14.1094
Q37.7031 17.4844 34.7188 19.2344
Q32.8125 20.3125 27.2031 21.7344
L20.2188 23.4844
Q13.5312 25.1406 10.3594 27.2031
Q4.6875 30.7656 4.6875 37.0625
Q4.6875 44.4844 10.0312 49.0625
Q15.375 53.6562 24.4219 53.6562
Q36.2344 53.6562 41.4531 46.7344
Q44.7344 42.3281 44.625 37.25
L36.3281 37.25
Q36.0781 40.2344 34.2344 42.6719
Q31.2031 46.1406 23.7344 46.1406
Q18.75 46.1406 16.1875 44.2344
Q13.625 42.3281 13.625 39.2031
Q13.625 35.7969 17 33.7344
Q18.9531 32.5156 22.75 31.5938
L28.5625 30.1719
Q38.0312 27.875 41.2656 25.7344
Q46.3906 22.3594 46.3906 15.1406
Q46.3906 8.15625 41.0938 3.07812
Q35.7969 -2 24.9531 -2
Q13.2812 -2 8.42188 3.29688
Q3.5625 8.59375 3.21875 16.4062
z

M24.6562 53.5625
z
" id="Helvetica-73"/>
      <path d="
M13.1875 13.9219
Q13.1875 10.1094 15.9688 7.90625
Q18.75 5.71875 22.5625 5.71875
Q27.2031 5.71875 31.5469 7.85938
Q38.875 11.4219 38.875 19.5312
L38.875 26.6094
Q37.25 25.5938 34.7031 24.9062
Q32.1719 24.2188 29.7344 23.9219
L24.4219 23.25
Q19.625 22.6094 17.2344 21.2344
Q13.1875 18.9531 13.1875 13.9219
z

M34.4688 31.6875
Q37.5 32.0781 38.5312 34.2344
Q39.1094 35.4062 39.1094 37.5938
Q39.1094 42.0938 35.9062 44.1094
Q32.7188 46.1406 26.7656 46.1406
Q19.875 46.1406 17 42.4375
Q15.375 40.375 14.8906 36.3281
L6.6875 36.3281
Q6.9375 46 12.9688 49.7812
Q19 53.5625 26.9531 53.5625
Q36.1875 53.5625 41.9375 50.0469
Q47.6562 46.5312 47.6562 39.1094
L47.6562 8.98438
Q47.6562 7.625 48.2188 6.78125
Q48.7812 5.95312 50.5938 5.95312
Q51.1719 5.95312 51.9062 6.03125
Q52.6406 6.10938 53.4688 6.25
L53.4688 -0.25
Q51.4219 -0.828125 50.3438 -0.96875
Q49.2656 -1.125 47.4062 -1.125
Q42.875 -1.125 40.8281 2.09375
Q39.75 3.8125 39.3125 6.9375
Q36.625 3.42188 31.5938 0.828125
Q26.5625 -1.76562 20.5156 -1.76562
Q13.2344 -1.76562 8.60938 2.65625
Q4 7.07812 4 13.7188
Q4 21 8.54688 25
Q13.0938 29 20.4531 29.9375
z

M27.2031 53.5625
z
" id="Helvetica-61"/>
      <path d="
M28.5156 5.90625
Q34.6719 5.90625 38.75 11.0625
Q42.8281 16.2188 42.8281 26.4688
Q42.8281 32.7188 41.0156 37.2031
Q37.5938 45.8438 28.5156 45.8438
Q19.3906 45.8438 16.0156 36.7188
Q14.2031 31.8438 14.2031 24.3125
Q14.2031 18.2656 16.0156 14.0156
Q19.4375 5.90625 28.5156 5.90625
z

M5.76562 52.0469
L14.3125 52.0469
L14.3125 45.125
Q16.9375 48.6875 20.0625 50.6406
Q24.5156 53.5625 30.5156 53.5625
Q39.4062 53.5625 45.6094 46.75
Q51.8125 39.9375 51.8125 27.2969
Q51.8125 10.2031 42.875 2.875
Q37.2031 -1.76562 29.6875 -1.76562
Q23.7812 -1.76562 19.7812 0.828125
Q17.4375 2.29688 14.5469 5.85938
L14.5469 -20.8438
L5.76562 -20.8438
z
" id="Helvetica-70"/>
      <path d="
M6.45312 52.2969
L15.1406 52.2969
L15.1406 44.875
Q18.2656 48.7344 20.7969 50.4844
Q25.1406 53.4688 30.6719 53.4688
Q36.9219 53.4688 40.7188 50.3906
Q42.875 48.6406 44.625 45.2188
Q47.5625 49.4219 51.5156 51.4375
Q55.4688 53.4688 60.4062 53.4688
Q70.9531 53.4688 74.75 45.8438
Q76.8125 41.75 76.8125 34.8125
L76.8125 0
L67.6719 0
L67.6719 36.3281
Q67.6719 41.5469 65.0625 43.5
Q62.4531 45.4531 58.6875 45.4531
Q53.5156 45.4531 49.7812 41.9844
Q46.0469 38.5312 46.0469 30.4219
L46.0469 0
L37.1094 0
L37.1094 34.125
Q37.1094 39.4531 35.8438 41.8906
Q33.8438 45.5625 28.375 45.5625
Q23.3906 45.5625 19.3125 41.7031
Q15.2344 37.8438 15.2344 27.7344
L15.2344 0
L6.45312 0
z
" id="Helvetica-6d"/>
      <path d="
M2.54688 6.9375
L33.5469 44.4375
L4.82812 44.4375
L4.82812 52.2969
L45.3594 52.2969
L45.3594 45.125
L14.5469 7.85938
L46.2969 7.85938
L46.2969 0
L2.54688 0
z

M25.1406 53.5625
z
" id="Helvetica-7a"/>
      <path d="
M6.6875 71.7344
L15.4844 71.7344
L15.4844 0
L6.6875 0
z
" id="Helvetica-6c"/>
     </defs>
     <g transform="translate(243.255 385.00875)scale(0.16 -0.16)">
      <use xlink:href="#Helvetica-53"/>
      <use x="66.69921875" xlink:href="#Helvetica-61"/>
      <use x="122.314453125" xlink:href="#Helvetica-6d"/>
      <use x="205.615234375" xlink:href="#Helvetica-70"/>
      <use x="261.23046875" xlink:href="#Helvetica-6c"/>
      <use x="283.447265625" xlink:href="#Helvetica-65"/>
      <use x="339.0625" xlink:href="#Helvetica-20"/>
      <use x="366.845703125" xlink:href="#Helvetica-73"/>
      <use x="416.845703125" xlink:href="#Helvetica-69"/>
      <use x="439.0625" xlink:href="#Helvetica-7a"/>
      <use x="489.0625" xlink:href="#Helvetica-65"/>
     </g>
    </g>
   </g>
   <g id="matplotlib.axis_2">
    <g id="ytick_1">
     <g id="line2d_15">
      <defs>
       <path d="
M0 0
L4 0" id="m728421d6d4" style="stroke:#000000;stroke-width:0.5;"/>
      </defs>
      <g>
       <use style="stroke:#000000;stroke-width:0.5;" x="63.28" xlink:href="#m728421d6d4" y="349.40625"/>
      </g>
     </g>
     <g id="line2d_16">
      <defs>
       <path d="
M0 0
L-4 0" id="mcb0005524f" style="stroke:#000000;stroke-width:0.5;"/>
      </defs>
      <g>
       <use style="stroke:#000000;stroke-width:0.5;" x="509.68" xlink:href="#mcb0005524f" y="349.40625"/>
      </g>
     </g>
     <g id="text_8">
      <!-- 0.80 -->
      <defs>
       <path d="
M8.54688 10.6406
L18.75 10.6406
L18.75 0
L8.54688 0
z
" id="Helvetica-2e"/>
      </defs>
      <g transform="translate(29.32 353.4775)scale(0.16 -0.16)">
       <use xlink:href="#Helvetica-30"/>
       <use x="55.615234375" xlink:href="#Helvetica-2e"/>
       <use x="83.3984375" xlink:href="#Helvetica-38"/>
       <use x="139.013671875" xlink:href="#Helvetica-30"/>
      </g>
     </g>
    </g>
    <g id="ytick_2">
     <g id="line2d_17">
      <g>
       <use style="stroke:#000000;stroke-width:0.5;" x="63.28" xlink:href="#m728421d6d4" y="307.55625"/>
      </g>
     </g>
     <g id="line2d_18">
      <g>
       <use style="stroke:#000000;stroke-width:0.5;" x="509.68" xlink:href="#mcb0005524f" y="307.55625"/>
      </g>
     </g>
     <g id="text_9">
      <!-- 0.85 -->
      <defs>
       <path d="
M12.3594 17.8281
Q13.2344 10.2969 19.3438 7.42188
Q22.4688 5.95312 26.5625 5.95312
Q34.375 5.95312 38.125 10.9375
Q41.8906 15.9219 41.8906 21.9688
Q41.8906 29.2969 37.4219 33.2969
Q32.9531 37.3125 26.7031 37.3125
Q22.1719 37.3125 18.9219 35.5469
Q15.6719 33.7969 13.375 30.6719
L5.76562 31.1094
L11.0781 68.75
L47.4062 68.75
L47.4062 60.25
L17.6719 60.25
L14.7031 40.8281
Q17.1406 42.6719 19.3438 43.6094
Q23.25 45.2188 28.375 45.2188
Q37.9844 45.2188 44.6719 39.0156
Q51.375 32.8125 51.375 23.2969
Q51.375 13.375 45.2344 5.79688
Q39.1094 -1.76562 25.6875 -1.76562
Q17.1406 -1.76562 10.5625 3.04688
Q4 7.85938 3.21875 17.8281
z
" id="Helvetica-35"/>
      </defs>
      <g transform="translate(29.32 311.6275)scale(0.16 -0.16)">
       <use xlink:href="#Helvetica-30"/>
       <use x="55.615234375" xlink:href="#Helvetica-2e"/>
       <use x="83.3984375" xlink:href="#Helvetica-38"/>
       <use x="139.013671875" xlink:href="#Helvetica-35"/>
      </g>
     </g>
    </g>
    <g id="ytick_3">
     <g id="line2d_19">
      <g>
       <use style="stroke:#000000;stroke-width:0.5;" x="63.28" xlink:href="#m728421d6d4" y="265.70625"/>
      </g>
     </g>
     <g id="line2d_20">
      <g>
       <use style="stroke:#000000;stroke-width:0.5;" x="509.68" xlink:href="#mcb0005524f" y="265.70625"/>
      </g>
     </g>
     <g id="text_10">
      <!-- 0.90 -->
      <defs>
       <path d="
M13.2812 16.8906
Q13.6719 9.625 18.8906 6.84375
Q21.5781 5.375 24.9531 5.375
Q31.25 5.375 35.6875 10.625
Q40.1406 15.875 42 31.9375
Q39.0625 27.2969 34.7344 25.4062
Q30.4219 23.5312 25.4375 23.5312
Q15.3281 23.5312 9.4375 29.8281
Q3.5625 36.1406 3.5625 46.0469
Q3.5625 55.5625 9.375 62.7812
Q15.1875 70.0156 26.5156 70.0156
Q41.7969 70.0156 47.6094 56.25
Q50.8281 48.6875 50.8281 37.3125
Q50.8281 24.4688 46.9688 14.5469
Q40.5781 -1.95312 25.2969 -1.95312
Q15.0469 -1.95312 9.71875 3.42188
Q4.39062 8.79688 4.39062 16.8906
z

M26.6094 31.25
Q31.8438 31.25 36.1562 34.6875
Q40.4844 38.1406 40.4844 46.7344
Q40.4844 54.4375 36.5938 58.2188
Q32.7188 62.0156 26.7031 62.0156
Q20.2656 62.0156 16.4844 57.6875
Q12.7031 53.375 12.7031 46.1406
Q12.7031 39.3125 16.0156 35.2812
Q19.3438 31.25 26.6094 31.25
z
" id="Helvetica-39"/>
      </defs>
      <g transform="translate(29.32 269.7775)scale(0.16 -0.16)">
       <use xlink:href="#Helvetica-30"/>
       <use x="55.615234375" xlink:href="#Helvetica-2e"/>
       <use x="83.3984375" xlink:href="#Helvetica-39"/>
       <use x="139.013671875" xlink:href="#Helvetica-30"/>
      </g>
     </g>
    </g>
    <g id="ytick_4">
     <g id="line2d_21">
      <g>
       <use style="stroke:#000000;stroke-width:0.5;" x="63.28" xlink:href="#m728421d6d4" y="223.85625"/>
      </g>
     </g>
     <g id="line2d_22">
      <g>
       <use style="stroke:#000000;stroke-width:0.5;" x="509.68" xlink:href="#mcb0005524f" y="223.85625"/>
      </g>
     </g>
     <g id="text_11">
      <!-- 0.95 -->
      <g transform="translate(29.32 227.9275)scale(0.16 -0.16)">
       <use xlink:href="#Helvetica-30"/>
       <use x="55.615234375" xlink:href="#Helvetica-2e"/>
       <use x="83.3984375" xlink:href="#Helvetica-39"/>
       <use x="139.013671875" xlink:href="#Helvetica-35"/>
      </g>
     </g>
    </g>
    <g id="ytick_5">
     <g id="line2d_23">
      <g>
       <use style="stroke:#000000;stroke-width:0.5;" x="63.28" xlink:href="#m728421d6d4" y="182.00625"/>
      </g>
     </g>
     <g id="line2d_24">
      <g>
       <use style="stroke:#000000;stroke-width:0.5;" x="509.68" xlink:href="#mcb0005524f" y="182.00625"/>
      </g>
     </g>
     <g id="text_12">
      <!-- 1.00 -->
      <g transform="translate(30.3525 186.0775)scale(0.16 -0.16)">
       <use xlink:href="#Helvetica-31"/>
       <use x="55.615234375" xlink:href="#Helvetica-2e"/>
       <use x="83.3984375" xlink:href="#Helvetica-30"/>
       <use x="139.013671875" xlink:href="#Helvetica-30"/>
      </g>
     </g>
    </g>
    <g id="ytick_6">
     <g id="line2d_25">
      <g>
       <use style="stroke:#000000;stroke-width:0.5;" x="63.28" xlink:href="#m728421d6d4" y="140.15625"/>
      </g>
     </g>
     <g id="line2d_26">
      <g>
       <use style="stroke:#000000;stroke-width:0.5;" x="509.68" xlink:href="#mcb0005524f" y="140.15625"/>
      </g>
     </g>
     <g id="text_13">
      <!-- 1.05 -->
      <g transform="translate(30.3525 144.2275)scale(0.16 -0.16)">
       <use xlink:href="#Helvetica-31"/>
       <use x="55.615234375" xlink:href="#Helvetica-2e"/>
       <use x="83.3984375" xlink:href="#Helvetica-30"/>
       <use x="139.013671875" xlink:href="#Helvetica-35"/>
      </g>
     </g>
    </g>
    <g id="ytick_7">
     <g id="line2d_27">
      <g>
       <use style="stroke:#000000;stroke-width:0.5;" x="63.28" xlink:href="#m728421d6d4" y="98.30625"/>
      </g>
     </g>
     <g id="line2d_28">
      <g>
       <use style="stroke:#000000;stroke-width:0.5;" x="509.68" xlink:href="#mcb0005524f" y="98.30625"/>
      </g>
     </g>
     <g id="text_14">
      <!-- 1.10 -->
      <g transform="translate(30.3525 102.3775)scale(0.16 -0.16)">
       <use xlink:href="#Helvetica-31"/>
       <use x="55.615234375" xlink:href="#Helvetica-2e"/>
       <use x="83.3984375" xlink:href="#Helvetica-31"/>
       <use x="139.013671875" xlink:href="#Helvetica-30"/>
      </g>
     </g>
    </g>
    <g id="ytick_8">
     <g id="line2d_29">
      <g>
       <use style="stroke:#000000;stroke-width:0.5;" x="63.28" xlink:href="#m728421d6d4" y="56.45625"/>
      </g>
     </g>
     <g id="line2d_30">
      <g>
       <use style="stroke:#000000;stroke-width:0.5;" x="509.68" xlink:href="#mcb0005524f" y="56.45625"/>
      </g>
     </g>
     <g id="text_15">
      <!-- 1.15 -->
      <g transform="translate(30.3525 60.5275)scale(0.16 -0.16)">
       <use xlink:href="#Helvetica-31"/>
       <use x="55.615234375" xlink:href="#Helvetica-2e"/>
       <use x="83.3984375" xlink:href="#Helvetica-31"/>
       <use x="139.013671875" xlink:href="#Helvetica-35"/>
      </g>
     </g>
    </g>
    <g id="ytick_9">
     <g id="line2d_31">
      <g>
       <use style="stroke:#000000;stroke-width:0.5;" x="63.28" xlink:href="#m728421d6d4" y="14.60625"/>
      </g>
     </g>
     <g id="line2d_32">
      <g>
       <use style="stroke:#000000;stroke-width:0.5;" x="509.68" xlink:href="#mcb0005524f" y="14.60625"/>
      </g>
     </g>
     <g id="text_16">
      <!-- 1.20 -->
      <g transform="translate(30.3525 18.6775)scale(0.16 -0.16)">
       <use xlink:href="#Helvetica-31"/>
       <use x="55.615234375" xlink:href="#Helvetica-2e"/>
       <use x="83.3984375" xlink:href="#Helvetica-32"/>
       <use x="139.013671875" xlink:href="#Helvetica-30"/>
      </g>
     </g>
    </g>
    <g id="text_17">
     <!-- $RMS/\sqrt{\mu}$ -->
     <defs>
      <path d="
M5.07812 0
Q4.10938 0 4.10938 1.3125
Q4.15625 1.5625 4.29688 2.14062
Q4.4375 2.73438 4.6875 3.125
Q4.9375 3.51562 5.42188 3.51562
Q14.9375 3.51562 16.5 9.625
L29.5 61.8125
Q29.6875 62.7969 29.6875 63.1875
Q29.6875 64.2656 28.5156 64.4062
Q26.6094 64.7969 21.2969 64.7969
Q20.3125 64.7969 20.3125 66.1094
Q20.3594 66.3594 20.5 66.9688
Q20.6562 67.5781 20.9219 67.9375
Q21.1875 68.3125 21.5781 68.3125
L39.2031 68.3125
Q40.3281 68.3125 40.4844 67.1875
L48.2969 9.90625
L84.7188 67.1875
Q85.4062 68.3125 86.625 68.3125
L103.609 68.3125
Q104.594 68.3125 104.594 67
Q104.547 66.75 104.391 66.1406
Q104.25 65.5312 103.984 65.1562
Q103.719 64.7969 103.328 64.7969
Q97.2188 64.7969 94.8281 64.1094
Q93.5 63.6719 92.9219 61.375
L79.2031 6.5
Q79 5.51562 79 5.07812
Q79 4.6875 79.125 4.42188
Q79.25 4.15625 79.4688 4.07812
Q79.6875 4 80.1719 3.90625
Q82.0781 3.51562 87.4062 3.51562
Q88.375 3.51562 88.375 2.20312
Q88.0312 0.78125 87.8281 0.390625
Q87.6406 0 86.7188 0
L60.5938 0
Q59.625 0 59.625 1.3125
Q59.6719 1.5625 59.8125 2.17188
Q59.9688 2.78125 60.2344 3.14062
Q60.5 3.51562 60.8906 3.51562
Q67 3.51562 69.3906 4.20312
Q70.7031 4.64062 71.2969 6.89062
L85.6875 64.7969
L45.3125 1.125
Q44.7344 0 43.3125 0
Q42.0469 0 41.8906 1.125
L33.4062 64.0156
L19.6719 9.1875
Q19.5781 8.9375 19.5312 8.5625
Q19.4844 8.20312 19.3906 7.71875
Q19.3906 5.125 21.6562 4.3125
Q23.9219 3.51562 27.2031 3.51562
Q28.2188 3.51562 28.2188 2.20312
Q27.875 0.875 27.6562 0.4375
Q27.4375 0 26.5156 0
z
" id="Cmmi10-4d"/>
      <path d="
M4.89062 0
Q3.90625 0 3.90625 1.3125
Q3.95312 1.5625 4.09375 2.17188
Q4.25 2.78125 4.51562 3.14062
Q4.78125 3.51562 5.17188 3.51562
Q11.2812 3.51562 13.7188 4.20312
Q14.9844 4.64062 15.5781 6.89062
L29.2969 61.8125
Q29.5 62.7969 29.5 63.1875
Q29.5 64.2656 28.3281 64.4062
Q26.4219 64.7969 21.0938 64.7969
Q20.125 64.7969 20.125 66.1094
Q20.1719 66.3594 20.3125 66.9688
Q20.4531 67.5781 20.7188 67.9375
Q21 68.3125 21.3906 68.3125
L51.7031 68.3125
Q55.3281 68.3125 59.2344 67.4844
Q63.1406 66.6562 66.4062 64.875
Q69.6719 63.0938 71.7656 60.125
Q73.875 57.1719 73.875 53.2188
Q73.875 48.1875 70.5469 44.2344
Q67.2344 40.2812 62.1562 37.625
Q57.0781 34.9688 52.2969 33.8906
Q56.2031 32.4688 58.6875 29.3594
Q61.1875 26.2656 61.1875 22.2188
Q61.1875 21.6875 61.1562 21.4062
Q61.1406 21.1406 61.0781 20.7969
L60.2969 11.9219
Q60.2031 9.96875 60.1094 8.59375
Q60.0156 7.23438 60.0156 6.39062
Q60.0156 3.65625 60.8125 2.01562
Q61.625 0.390625 64.0156 0.390625
Q67.1406 0.390625 69.5 3.29688
Q71.875 6.20312 72.6094 9.625
Q73.0469 10.5 73.5781 10.5
L74.5156 10.5
Q75.4844 10.5 75.4844 9.1875
Q74.75 6.29688 73.1562 3.70312
Q71.5781 1.125 69.1562 -0.53125
Q66.75 -2.20312 63.9219 -2.20312
Q58.0625 -2.20312 53.9375 0.40625
Q49.8125 3.03125 49.8125 8.59375
Q49.8125 10.6875 50.2031 12.3125
L52.3906 21.1875
Q52.7812 22.4062 52.7812 24.0312
Q52.7812 28.1719 49.9688 30.5312
Q47.1719 32.9062 42.9219 32.9062
L30.6094 32.9062
L24.0312 6.5
Q23.7812 5.67188 23.7812 5.07812
Q23.7812 4.04688 25 3.90625
Q26.9062 3.51562 32.1719 3.51562
Q33.2031 3.51562 33.2031 2.20312
Q32.8594 0.78125 32.6562 0.390625
Q32.4688 0 31.5 0
z

M31.2031 35.5
L42.2812 35.5
Q53.1719 35.5 58.6875 41.0156
Q61.2344 43.5625 62.7188 47.4844
Q64.2031 51.4219 64.2031 55.3281
Q64.2031 59.0312 62.0312 61.125
Q59.8594 63.2344 56.6562 64.0156
Q53.4688 64.7969 49.6094 64.7969
L42.9219 64.7969
Q40.1875 64.7969 39.2969 64.3281
Q38.4219 63.875 37.7031 61.375
z
" id="Cmmi10-52"/>
      <path d="
M6.10938 -2.20312
Q5.8125 -2.20312 5.5625 -1.85938
Q5.32812 -1.51562 5.32812 -1.21875
L11.0781 22.125
Q11.2812 22.7031 11.9219 22.7031
L13.0938 22.7031
Q13.4844 22.7031 13.7031 22.4062
Q13.9219 22.125 13.9219 21.6875
Q13.0938 18.2656 13.0938 15.5781
Q13.0938 8.34375 18.0625 4.82812
Q23.0469 1.3125 30.6094 1.3125
Q33.8906 1.3125 37.0625 2.92188
Q40.2344 4.54688 42.5938 7.125
Q44.9688 9.71875 46.375 12.9062
Q47.7969 16.1094 47.7969 19.3906
Q47.7969 22.9062 45.9375 25.6562
Q44.0938 28.4219 40.8281 29.2031
L28.6094 32.4219
Q23.6875 33.7344 20.75 37.7188
Q17.8281 41.7031 17.8281 46.6875
Q17.8281 52.6875 21.3906 58.25
Q24.9531 63.8125 30.6875 67.1562
Q36.4219 70.5156 42.3906 70.5156
Q46.9688 70.5156 50.7969 68.8281
Q54.6406 67.1406 56.6875 63.4844
L62.4062 70.2188
Q62.9844 70.5156 63.0938 70.5156
L63.7188 70.5156
Q64.1094 70.5156 64.3438 70.1719
Q64.5938 69.8281 64.5938 69.4844
L58.7969 46.2969
Q58.6406 45.6094 58.0156 45.6094
L56.7812 45.6094
Q55.9062 45.6094 55.9062 46.6875
Q56.3906 49.8594 56.3906 52.2031
Q56.3906 56.8438 54.7969 60.2812
Q53.2188 63.7188 50.0156 65.5
Q46.8281 67.2812 42.0938 67.2812
Q38.0938 67.2812 34.125 64.9844
Q30.1719 62.7031 27.7344 58.8906
Q25.2969 55.0781 25.2969 50.9844
Q25.2969 47.75 27.1719 45.2656
Q29.0469 42.7812 32.1719 41.8906
L44.3906 38.7188
Q47.7031 37.8438 50.1719 35.625
Q52.6406 33.4062 53.9062 30.3438
Q55.1719 27.2969 55.1719 23.6875
Q55.1719 18.9531 53.1719 14.3281
Q51.1719 9.71875 47.5781 5.90625
Q44 2.09375 39.4531 -0.046875
Q34.9062 -2.20312 30.1719 -2.20312
Q18.2656 -2.20312 13.0938 4.78125
L7.51562 -1.90625
Q6.9375 -2.20312 6.78125 -2.20312
z
" id="Cmmi10-53"/>
      <path d="
M42.3906 -116.016
L19.8281 -63.4844
L12.7969 -68.8906
L10.9844 -67.0938
L25.2969 -56
L46.3906 -105.078
L98.2969 3.07812
Q98.7812 4 100 4
Q100.828 4 101.406 3.40625
Q102 2.82812 102 2
Q102 1.51562 101.906 1.3125
L46.0938 -115.094
Q45.7031 -116.016 44.5781 -116.016
z
" id="Cmex10-70"/>
      <path d="
M2.78125 -18.7969
Q2.78125 -18.2188 2.875 -18.0156
L17.5781 41.0156
Q18.0156 42.4375 19.1562 43.3125
Q20.3125 44.1875 21.7812 44.1875
Q23.0469 44.1875 23.9219 43.4219
Q24.8125 42.6719 24.8125 41.4062
Q24.8125 41.1094 24.7812 40.9375
Q24.75 40.7656 24.7031 40.5781
L18.7969 17.1875
Q17.8281 13.0312 17.8281 10.0156
Q17.8281 6.29688 19.5781 3.90625
Q21.3438 1.51562 24.9062 1.51562
Q32.1719 1.51562 37.7031 10.5938
Q37.75 10.6875 37.7656 10.7344
Q37.7969 10.7969 37.7969 10.8906
L45.0156 39.8906
Q45.3594 41.2188 46.5781 42.1562
Q47.7969 43.1094 49.2188 43.1094
Q50.3906 43.1094 51.2969 42.3281
Q52.2031 41.5469 52.2031 40.2812
Q52.2031 39.7031 52.0938 39.5
L44.9219 10.6875
Q44.1875 7.85938 44.1875 5.8125
Q44.1875 1.51562 47.125 1.51562
Q50.25 1.51562 51.8281 5.375
Q53.4219 9.23438 54.5938 14.7031
Q54.7812 15.2812 55.4219 15.2812
L56.5938 15.2812
Q56.9844 15.2812 57.25 14.9688
Q57.5156 14.6562 57.5156 14.3125
Q55.7656 7.32812 53.6875 3.09375
Q51.6094 -1.125 46.9219 -1.125
Q43.6094 -1.125 41.0469 0.78125
Q38.4844 2.6875 37.7031 5.90625
Q35.2031 2.78125 31.8594 0.828125
Q28.5156 -1.125 24.8125 -1.125
Q18.5625 -1.125 14.9844 1.8125
L9.90625 -18.4062
Q9.625 -19.8281 8.45312 -20.7031
Q7.28125 -21.5781 5.8125 -21.5781
Q4.59375 -21.5781 3.6875 -20.8125
Q2.78125 -20.0625 2.78125 -18.7969" id="Cmmi10-b9"/>
      <path d="
M5.60938 -23
Q5.60938 -22.7031 5.71875 -22.6094
L40.4844 73.7812
Q40.6719 74.3594 41.1562 74.6719
Q41.6562 75 42.2812 75
Q43.1719 75 43.7188 74.4531
Q44.2812 73.9219 44.2812 73
L44.2812 72.6094
L9.51562 -23.7812
Q8.9375 -25 7.625 -25
Q6.78125 -25 6.1875 -24.4062
Q5.60938 -23.8281 5.60938 -23" id="Cmmi10-3d"/>
     </defs>
     <g transform="translate(20.32 218.08625)rotate(-90.0)scale(0.16 -0.16)">
      <use transform="translate(0.0 0.578125)" xlink:href="#Cmmi10-52"/>
      <use transform="translate(75.87890625 0.578125)" xlink:href="#Cmmi10-4d"/>
      <use transform="translate(172.900390625 0.578125)" xlink:href="#Cmmi10-53"/>
      <use transform="translate(234.1796875 0.578125)" xlink:href="#Cmmi10-3d"/>
      <use transform="translate(284.1796875 72.765625)scale(0.808358286681)" xlink:href="#Cmex10-70"/>
      <use transform="translate(377.5078125 0.5625)" xlink:href="#Cmmi10-b9"/>
      <path d="
M365.008 69.5
L365.008 75.75
L450.213 75.75
L450.213 69.5
L365.008 69.5
z
"/>
     </g>
    </g>
   </g>
   <g id="legend_1">
    <g id="patch_7">
     <path d="
M437.48 51.3531
L504.68 51.3531
L504.68 19.6063
L437.48 19.6063
z
" style="fill:#ffffff;stroke:#000000;stroke-linejoin:miter;"/>
    </g>
    <g id="line2d_33">
     <path d="
M441.48 27.2797
L461.48 27.2797" style="fill:none;stroke:#e41a1c;stroke-linecap:square;"/>
    </g>
    <g id="line2d_34"/>
    <g id="text_18">
     <!-- $\mu = 10$ -->
     <defs>
      <path d="
M9.28125 0
L9.28125 3.51562
Q21.7812 3.51562 21.7812 6.6875
L21.7812 59.1875
Q16.6094 56.6875 8.6875 56.6875
L8.6875 60.2031
Q20.9531 60.2031 27.2031 66.6094
L28.6094 66.6094
Q28.9531 66.6094 29.2656 66.3281
Q29.5938 66.0625 29.5938 65.7188
L29.5938 6.6875
Q29.5938 3.51562 42.0938 3.51562
L42.0938 0
z
" id="Cmr10-31"/>
      <path d="
M25 -2.20312
Q12.75 -2.20312 8.32812 7.875
Q3.90625 17.9688 3.90625 31.8906
Q3.90625 40.5781 5.48438 48.2344
Q7.07812 55.9062 11.7812 61.25
Q16.5 66.6094 25 66.6094
Q31.5938 66.6094 35.7812 63.375
Q39.9844 60.1562 42.1875 55.0469
Q44.3906 49.9531 45.1875 44.1094
Q46 38.2812 46 31.8906
Q46 23.2969 44.4062 15.7969
Q42.8281 8.29688 38.1875 3.04688
Q33.5469 -2.20312 25 -2.20312
M25 0.390625
Q30.5625 0.390625 33.2969 6.09375
Q36.0312 11.8125 36.6719 18.75
Q37.3125 25.6875 37.3125 33.5
Q37.3125 41.0156 36.6719 47.3594
Q36.0312 53.7188 33.3125 58.8594
Q30.6094 64.0156 25 64.0156
Q19.3438 64.0156 16.6094 58.8281
Q13.875 53.6562 13.2344 47.3281
Q12.5938 41.0156 12.5938 33.5
Q12.5938 27.9375 12.8594 23
Q13.1406 18.0625 14.3125 12.8125
Q15.4844 7.5625 18.0938 3.96875
Q20.7031 0.390625 25 0.390625" id="Cmr10-30"/>
      <path d="
M7.51562 13.2812
Q6.6875 13.2812 6.14062 13.9062
Q5.60938 14.5469 5.60938 15.2812
Q5.60938 16.1094 6.14062 16.6875
Q6.6875 17.2812 7.51562 17.2812
L70.3125 17.2812
Q71.0469 17.2812 71.5781 16.6875
Q72.125 16.1094 72.125 15.2812
Q72.125 14.5469 71.5781 13.9062
Q71.0469 13.2812 70.3125 13.2812
z

M7.51562 32.7188
Q6.6875 32.7188 6.14062 33.2969
Q5.60938 33.8906 5.60938 34.7188
Q5.60938 35.4531 6.14062 36.0781
Q6.6875 36.7188 7.51562 36.7188
L70.3125 36.7188
Q71.0469 36.7188 71.5781 36.0781
Q72.125 35.4531 72.125 34.7188
Q72.125 33.8906 71.5781 33.2969
Q71.0469 32.7188 70.3125 32.7188
z
" id="Cmr10-3d"/>
     </defs>
     <g transform="translate(469.48 30.7796875)scale(0.1 -0.1)">
      <use transform="translate(0.0 0.390625)" xlink:href="#Cmmi10-b9"/>
      <use transform="translate(77.763671875 0.390625)" xlink:href="#Cmr10-3d"/>
      <use transform="translate(161.822265625 0.390625)" xlink:href="#Cmr10-31"/>
      <use transform="translate(211.822265625 0.390625)" xlink:href="#Cmr10-30"/>
     </g>
    </g>
    <g id="line2d_35">
     <path d="
M441.48 41.6531
L461.48 41.6531" style="fill:none;stroke:#377eb8;stroke-linecap:square;"/>
    </g>
    <g id="line2d_36"/>
    <g id="text_19">
     <!-- $\mu = 100$ -->
     <g transform="translate(469.48 45.153125)scale(0.1 -0.1)">
      <use transform="translate(0.0 0.390625)" xlink:href="#Cmmi10-b9"/>
      <use transform="translate(77.763671875 0.390625)" xlink:href="#Cmr10-3d"/>
      <use transform="translate(161.822265625 0.390625)" xlink:href="#Cmr10-31"/>
      <use transform="translate(211.822265625 0.390625)" xlink:href="#Cmr10-30"/>
      <use transform="translate(261.822265625 0.390625)" xlink:href="#Cmr10-30"/>
     </g>
    </g>
   </g>
  </g>
 </g>
 <defs>
  <clipPath id="p98f34fbb35">
   <rect height="334.8" width="446.4" x="63.28" y="14.60625"/>
  </clipPath>
 </defs>
</svg>
