<?xml version="1.0" encoding="utf-8" standalone="no"?>
<!DOCTYPE svg PUBLIC "-//W3C//DTD SVG 1.1//EN"
  "http://www.w3.org/Graphics/SVG/1.1/DTD/svg11.dtd">
<!-- Created with matplotlib (http://matplotlib.org/) -->
<svg height="401pt" version="1.1" viewBox="0 0 523 401" width="523pt" xmlns="http://www.w3.org/2000/svg" xmlns:xlink="http://www.w3.org/1999/xlink">
 <defs>
  <style type="text/css">
*{stroke-linecap:butt;stroke-linejoin:round;}
  </style>
 </defs>
 <g id="figure_1">
  <g id="patch_1">
   <path d="
M0 401.555
L523.072 401.555
L523.072 0
L0 0
z
" style="fill:#ffffff;"/>
  </g>
  <g id="axes_1">
   <g id="patch_2">
    <path d="
M61.68 355.73
L508.08 355.73
L508.08 20.93
L61.68 20.93
z
" style="fill:#ffffff;"/>
   </g>
   <g id="line2d_1">
    <defs>
     <path d="
M1.83697e-16 -3
L-0.673542 -0.927051
L-2.85317 -0.927051
L-1.08981 0.354102
L-1.76336 2.42705
L-2.10498e-16 1.1459
L1.76336 2.42705
L1.08981 0.354102
L2.85317 -0.927051
L0.673542 -0.927051
z
" id="mc46fb7e7e6" style="stroke:#000000;stroke-linejoin:bevel;stroke-width:0.1;"/>
    </defs>
    <g clip-path="url(#p93e89a12ed)">
     <use style="fill:#e41a1c;stroke:#000000;stroke-linejoin:bevel;stroke-width:0.1;" x="61.68" xlink:href="#mc46fb7e7e6" y="355.73"/>
     <use style="fill:#e41a1c;stroke:#000000;stroke-linejoin:bevel;stroke-width:0.1;" x="106.32" xlink:href="#mc46fb7e7e6" y="355.41377804"/>
     <use style="fill:#e41a1c;stroke:#000000;stroke-linejoin:bevel;stroke-width:0.1;" x="150.96" xlink:href="#mc46fb7e7e6" y="353.200224321"/>
     <use style="fill:#e41a1c;stroke:#000000;stroke-linejoin:bevel;stroke-width:0.1;" x="195.6" xlink:href="#mc46fb7e7e6" y="347.192007084"/>
     <use style="fill:#e41a1c;stroke:#000000;stroke-linejoin:bevel;stroke-width:0.1;" x="240.24" xlink:href="#mc46fb7e7e6" y="335.491794569"/>
     <use style="fill:#e41a1c;stroke:#000000;stroke-linejoin:bevel;stroke-width:0.1;" x="284.88" xlink:href="#mc46fb7e7e6" y="316.202255018"/>
     <use style="fill:#e41a1c;stroke:#000000;stroke-linejoin:bevel;stroke-width:0.1;" x="329.52" xlink:href="#mc46fb7e7e6" y="287.426056671"/>
     <use style="fill:#e41a1c;stroke:#000000;stroke-linejoin:bevel;stroke-width:0.1;" x="374.16" xlink:href="#mc46fb7e7e6" y="247.265867769"/>
     <use style="fill:#e41a1c;stroke:#000000;stroke-linejoin:bevel;stroke-width:0.1;" x="418.8" xlink:href="#mc46fb7e7e6" y="193.824356553"/>
     <use style="fill:#e41a1c;stroke:#000000;stroke-linejoin:bevel;stroke-width:0.1;" x="463.44" xlink:href="#mc46fb7e7e6" y="125.204191263"/>
     <use style="fill:#e41a1c;stroke:#000000;stroke-linejoin:bevel;stroke-width:0.1;" x="508.08" xlink:href="#mc46fb7e7e6" y="39.5080401417"/>
    </g>
   </g>
   <g id="patch_3">
    <path d="
M61.68 20.93
L508.08 20.93" style="fill:none;stroke:#000000;stroke-linecap:square;stroke-linejoin:miter;"/>
   </g>
   <g id="patch_4">
    <path d="
M508.08 355.73
L508.08 20.93" style="fill:none;stroke:#000000;stroke-linecap:square;stroke-linejoin:miter;"/>
   </g>
   <g id="patch_5">
    <path d="
M61.68 355.73
L508.08 355.73" style="fill:none;stroke:#000000;stroke-linecap:square;stroke-linejoin:miter;"/>
   </g>
   <g id="patch_6">
    <path d="
M61.68 355.73
L61.68 20.93" style="fill:none;stroke:#000000;stroke-linecap:square;stroke-linejoin:miter;"/>
   </g>
   <g id="matplotlib.axis_1">
    <g id="xtick_1">
     <g id="line2d_2">
      <defs>
       <path d="
M0 0
L0 -4" id="m93b0483c22" style="stroke:#000000;stroke-width:0.5;"/>
      </defs>
      <g>
       <use style="stroke:#000000;stroke-width:0.5;" x="61.68" xlink:href="#m93b0483c22" y="355.73"/>
      </g>
     </g>
     <g id="line2d_3">
      <defs>
       <path d="
M0 0
L0 4" id="m741efc42ff" style="stroke:#000000;stroke-width:0.5;"/>
      </defs>
      <g>
       <use style="stroke:#000000;stroke-width:0.5;" x="61.68" xlink:href="#m741efc42ff" y="20.93"/>
      </g>
     </g>
     <g id="text_1">
      <!-- 0 -->
      <defs>
       <path d="
M27.0469 69.9219
Q40.625 69.9219 46.6875 58.7344
Q51.375 50.0938 51.375 35.0625
Q51.375 20.7969 47.125 11.4688
Q40.9688 -1.90625 27 -1.90625
Q14.4062 -1.90625 8.25 9.03125
Q3.125 18.1719 3.125 33.5469
Q3.125 45.4531 6.20312 54
Q11.9688 69.9219 27.0469 69.9219
z

M26.9531 6.10938
Q33.7969 6.10938 37.8438 12.1562
Q41.8906 18.2188 41.8906 34.7188
Q41.8906 46.625 38.9531 54.3125
Q36.0312 62.0156 27.5938 62.0156
Q19.8281 62.0156 16.2344 54.7031
Q12.6406 47.4062 12.6406 33.2031
Q12.6406 22.5156 14.9375 16.0156
Q18.4531 6.10938 26.9531 6.10938
z
" id="Helvetica-30"/>
      </defs>
      <g transform="translate(57.82 371.2075)scale(0.16 -0.16)">
       <use xlink:href="#Helvetica-30"/>
      </g>
     </g>
    </g>
    <g id="xtick_2">
     <g id="line2d_4">
      <g>
       <use style="stroke:#000000;stroke-width:0.5;" x="150.96" xlink:href="#m93b0483c22" y="355.73"/>
      </g>
     </g>
     <g id="line2d_5">
      <g>
       <use style="stroke:#000000;stroke-width:0.5;" x="150.96" xlink:href="#m741efc42ff" y="20.93"/>
      </g>
     </g>
     <g id="text_2">
      <!-- 2 -->
      <defs>
       <path d="
M3.125 0
Q3.60938 9.03125 6.85938 15.7188
Q10.1094 22.4062 19.5312 27.875
L28.9062 33.2969
Q35.2031 36.9688 37.75 39.5469
Q41.75 43.6094 41.75 48.8281
Q41.75 54.9375 38.0781 58.5156
Q34.4219 62.1094 28.3281 62.1094
Q19.2812 62.1094 15.8281 55.2812
Q13.9688 51.6094 13.7656 45.125
L4.82812 45.125
Q4.98438 54.25 8.20312 60.0156
Q13.9219 70.1719 28.375 70.1719
Q40.375 70.1719 45.9219 63.6719
Q51.4688 57.1719 51.4688 49.2188
Q51.4688 40.8281 45.5625 34.8594
Q42.1406 31.3906 33.2969 26.4688
L26.6094 22.75
Q21.8281 20.125 19.0938 17.7188
Q14.2031 13.4844 12.9375 8.29688
L51.125 8.29688
L51.125 0
L3.125 0
z
" id="Helvetica-32"/>
      </defs>
      <g transform="translate(147.0925 371.2075)scale(0.16 -0.16)">
       <use xlink:href="#Helvetica-32"/>
      </g>
     </g>
    </g>
    <g id="xtick_3">
     <g id="line2d_6">
      <g>
       <use style="stroke:#000000;stroke-width:0.5;" x="240.24" xlink:href="#m93b0483c22" y="355.73"/>
      </g>
     </g>
     <g id="line2d_7">
      <g>
       <use style="stroke:#000000;stroke-width:0.5;" x="240.24" xlink:href="#m741efc42ff" y="20.93"/>
      </g>
     </g>
     <g id="text_3">
      <!-- 4 -->
      <defs>
       <path d="
M33.0625 24.75
L33.0625 56.4531
L10.6406 24.75
z

M33.2031 0
L33.2031 17.0938
L2.54688 17.0938
L2.54688 25.6875
L34.5781 70.125
L42 70.125
L42 24.75
L52.2969 24.75
L52.2969 17.0938
L42 17.0938
L42 0
z
" id="Helvetica-34"/>
      </defs>
      <g transform="translate(236.26 371.2075)scale(0.16 -0.16)">
       <use xlink:href="#Helvetica-34"/>
      </g>
     </g>
    </g>
    <g id="xtick_4">
     <g id="line2d_8">
      <g>
       <use style="stroke:#000000;stroke-width:0.5;" x="329.52" xlink:href="#m93b0483c22" y="355.73"/>
      </g>
     </g>
     <g id="line2d_9">
      <g>
       <use style="stroke:#000000;stroke-width:0.5;" x="329.52" xlink:href="#m741efc42ff" y="20.93"/>
      </g>
     </g>
     <g id="text_4">
      <!-- 6 -->
      <defs>
       <path d="
M29.25 70.2188
Q40.9688 70.2188 45.5781 64.1406
Q50.2031 58.0625 50.2031 51.6094
L41.5 51.6094
Q40.7188 55.7656 39.0156 58.1094
Q35.8438 62.5 29.3906 62.5
Q22.0156 62.5 17.6719 55.6875
Q13.3281 48.875 12.8438 36.1875
Q15.875 40.625 20.4531 42.8281
Q24.6562 44.7812 29.8281 44.7812
Q38.625 44.7812 45.1562 39.1562
Q51.7031 33.5469 51.7031 22.4062
Q51.7031 12.8906 45.5 5.53125
Q39.3125 -1.8125 27.8281 -1.8125
Q18.0156 -1.8125 10.8906 5.64062
Q3.76562 13.0938 3.76562 30.7188
Q3.76562 43.75 6.9375 52.8281
Q13.0312 70.2188 29.25 70.2188
z

M28.6094 6
Q35.5469 6 38.9844 10.6562
Q42.4375 15.3281 42.4375 21.6875
Q42.4375 27.0469 39.3594 31.9062
Q36.2812 36.7656 28.1719 36.7656
Q22.5156 36.7656 18.2344 33
Q13.9688 29.25 13.9688 21.6875
Q13.9688 15.0469 17.8438 10.5156
Q21.7344 6 28.6094 6
z
" id="Helvetica-36"/>
      </defs>
      <g transform="translate(325.685 371.2075)scale(0.16 -0.16)">
       <use xlink:href="#Helvetica-36"/>
      </g>
     </g>
    </g>
    <g id="xtick_5">
     <g id="line2d_10">
      <g>
       <use style="stroke:#000000;stroke-width:0.5;" x="418.8" xlink:href="#m93b0483c22" y="355.73"/>
      </g>
     </g>
     <g id="line2d_11">
      <g>
       <use style="stroke:#000000;stroke-width:0.5;" x="418.8" xlink:href="#m741efc42ff" y="20.93"/>
      </g>
     </g>
     <g id="text_5">
      <!-- 8 -->
      <defs>
       <path d="
M27.2031 40.625
Q33.0156 40.625 36.2812 43.875
Q39.5469 47.125 39.5469 51.6094
Q39.5469 55.5156 36.4219 58.7812
Q33.2969 62.0625 26.9062 62.0625
Q20.5625 62.0625 17.7188 58.7812
Q14.8906 55.5156 14.8906 51.125
Q14.8906 46.1875 18.5469 43.4062
Q22.2188 40.625 27.2031 40.625
z

M27.7344 6
Q33.8438 6 37.8594 9.29688
Q41.8906 12.5938 41.8906 19.1406
Q41.8906 25.9219 37.7344 29.4375
Q33.5938 32.9531 27.0938 32.9531
Q20.7969 32.9531 16.8125 29.3594
Q12.8438 25.7812 12.8438 19.4375
Q12.8438 13.9688 16.4844 9.98438
Q20.125 6 27.7344 6
z

M15.2344 37.25
Q11.5781 38.8125 9.51562 40.9219
Q5.67188 44.8281 5.67188 51.0781
Q5.67188 58.8906 11.3281 64.5
Q17 70.125 27.3906 70.125
Q37.4531 70.125 43.1562 64.8125
Q48.875 59.5156 48.875 52.4375
Q48.875 45.9062 45.5625 41.8438
Q43.7031 39.5469 39.7969 37.3594
Q44.1406 35.3594 46.625 32.7656
Q51.2656 27.875 51.2656 20.0625
Q51.2656 10.8438 45.0625 4.42188
Q38.875 -2 27.5469 -2
Q17.3281 -2 10.2656 3.53125
Q3.21875 9.07812 3.21875 19.625
Q3.21875 25.8281 6.25 30.3438
Q9.28125 34.8594 15.2344 37.25
z
" id="Helvetica-38"/>
      </defs>
      <g transform="translate(414.95625 371.2075)scale(0.16 -0.16)">
       <use xlink:href="#Helvetica-38"/>
      </g>
     </g>
    </g>
    <g id="xtick_6">
     <g id="line2d_12">
      <g>
       <use style="stroke:#000000;stroke-width:0.5;" x="508.08" xlink:href="#m93b0483c22" y="355.73"/>
      </g>
     </g>
     <g id="line2d_13">
      <g>
       <use style="stroke:#000000;stroke-width:0.5;" x="508.08" xlink:href="#m741efc42ff" y="20.93"/>
      </g>
     </g>
     <g id="text_6">
      <!-- 10 -->
      <defs>
       <path d="
M9.57812 49.5156
L9.57812 56.25
Q19.0938 57.1719 22.8438 59.3438
Q26.6094 61.5312 28.4688 69.625
L35.4062 69.625
L35.4062 0
L26.0312 0
L26.0312 49.5156
z
" id="Helvetica-31"/>
      </defs>
      <g transform="translate(500.2875 371.2075)scale(0.16 -0.16)">
       <use xlink:href="#Helvetica-31"/>
       <use x="55.615234375" xlink:href="#Helvetica-30"/>
      </g>
     </g>
    </g>
    <g id="text_7">
     <!-- $n$ -->
     <defs>
      <path d="
M7.71875 1.70312
Q7.71875 2.29688 7.8125 2.59375
L15.2812 32.4219
Q16.0156 35.2031 16.0156 37.3125
Q16.0156 41.6094 13.0938 41.6094
Q9.96875 41.6094 8.45312 37.8594
Q6.9375 34.125 5.51562 28.4219
Q5.51562 28.125 5.21875 27.9531
Q4.9375 27.7812 4.6875 27.7812
L3.51562 27.7812
Q3.17188 27.7812 2.92188 28.1406
Q2.6875 28.5156 2.6875 28.8125
Q3.76562 33.1562 4.76562 36.1719
Q5.76562 39.2031 7.89062 41.6875
Q10.0156 44.1875 13.1875 44.1875
Q16.9375 44.1875 19.8125 41.8125
Q22.7031 39.4531 22.7031 35.7969
Q25.6875 39.7031 29.6875 41.9375
Q33.6875 44.1875 38.1875 44.1875
Q41.75 44.1875 44.3281 42.9688
Q46.9219 41.75 48.3594 39.2812
Q49.8125 36.8125 49.8125 33.4062
Q49.8125 29.2969 47.9688 23.4844
Q46.1406 17.6719 43.4062 10.5
Q42 7.23438 42 4.5
Q42 1.51562 44.2812 1.51562
Q48.1875 1.51562 50.7969 5.70312
Q53.4219 9.90625 54.5 14.7031
Q54.6875 15.2812 55.3281 15.2812
L56.5 15.2812
Q56.8906 15.2812 57.1562 15.0312
Q57.4219 14.7969 57.4219 14.4062
Q57.4219 14.3125 57.3281 14.1094
Q55.9531 8.45312 52.5625 3.65625
Q49.1719 -1.125 44.0938 -1.125
Q40.5781 -1.125 38.0781 1.29688
Q35.5938 3.71875 35.5938 7.17188
Q35.5938 9.03125 36.375 11.0781
Q37.6406 14.3594 39.2812 18.8906
Q40.9219 23.4375 41.9688 27.5781
Q43.0156 31.7344 43.0156 34.9062
Q43.0156 37.7031 41.8594 39.6562
Q40.7188 41.6094 37.9844 41.6094
Q34.3281 41.6094 31.25 39.9844
Q28.1719 38.375 25.875 35.7188
Q23.5781 33.0625 21.6875 29.3906
L14.8906 2.20312
Q14.5469 0.828125 13.3438 -0.140625
Q12.1562 -1.125 10.6875 -1.125
Q9.46875 -1.125 8.59375 -0.34375
Q7.71875 0.4375 7.71875 1.70312" id="Cmmi10-6e"/>
     </defs>
     <g transform="translate(280.0 391.02)scale(0.16 -0.16)">
      <use transform="translate(0.0 0.8125)" xlink:href="#Cmmi10-6e"/>
     </g>
    </g>
   </g>
   <g id="matplotlib.axis_2">
    <g id="ytick_1">
     <g id="line2d_14">
      <defs>
       <path d="
M0 0
L4 0" id="m728421d6d4" style="stroke:#000000;stroke-width:0.5;"/>
      </defs>
      <g>
       <use style="stroke:#000000;stroke-width:0.5;" x="61.68" xlink:href="#m728421d6d4" y="355.73"/>
      </g>
     </g>
     <g id="line2d_15">
      <defs>
       <path d="
M0 0
L-4 0" id="mcb0005524f" style="stroke:#000000;stroke-width:0.5;"/>
      </defs>
      <g>
       <use style="stroke:#000000;stroke-width:0.5;" x="508.08" xlink:href="#mcb0005524f" y="355.73"/>
      </g>
     </g>
     <g id="text_8">
      <!-- 0.00 -->
      <defs>
       <path d="
M8.54688 10.6406
L18.75 10.6406
L18.75 0
L8.54688 0
z
" id="Helvetica-2e"/>
      </defs>
      <g transform="translate(27.72 359.80125)scale(0.16 -0.16)">
       <use xlink:href="#Helvetica-30"/>
       <use x="55.615234375" xlink:href="#Helvetica-2e"/>
       <use x="83.3984375" xlink:href="#Helvetica-30"/>
       <use x="139.013671875" xlink:href="#Helvetica-30"/>
      </g>
     </g>
    </g>
    <g id="ytick_2">
     <g id="line2d_16">
      <g>
       <use style="stroke:#000000;stroke-width:0.5;" x="61.68" xlink:href="#m728421d6d4" y="307.901428571"/>
      </g>
     </g>
     <g id="line2d_17">
      <g>
       <use style="stroke:#000000;stroke-width:0.5;" x="508.08" xlink:href="#mcb0005524f" y="307.901428571"/>
      </g>
     </g>
     <g id="text_9">
      <!-- 0.05 -->
      <defs>
       <path d="
M12.3594 17.8281
Q13.2344 10.2969 19.3438 7.42188
Q22.4688 5.95312 26.5625 5.95312
Q34.375 5.95312 38.125 10.9375
Q41.8906 15.9219 41.8906 21.9688
Q41.8906 29.2969 37.4219 33.2969
Q32.9531 37.3125 26.7031 37.3125
Q22.1719 37.3125 18.9219 35.5469
Q15.6719 33.7969 13.375 30.6719
L5.76562 31.1094
L11.0781 68.75
L47.4062 68.75
L47.4062 60.25
L17.6719 60.25
L14.7031 40.8281
Q17.1406 42.6719 19.3438 43.6094
Q23.25 45.2188 28.375 45.2188
Q37.9844 45.2188 44.6719 39.0156
Q51.375 32.8125 51.375 23.2969
Q51.375 13.375 45.2344 5.79688
Q39.1094 -1.76562 25.6875 -1.76562
Q17.1406 -1.76562 10.5625 3.04688
Q4 7.85938 3.21875 17.8281
z
" id="Helvetica-35"/>
      </defs>
      <g transform="translate(27.72 311.972678571)scale(0.16 -0.16)">
       <use xlink:href="#Helvetica-30"/>
       <use x="55.615234375" xlink:href="#Helvetica-2e"/>
       <use x="83.3984375" xlink:href="#Helvetica-30"/>
       <use x="139.013671875" xlink:href="#Helvetica-35"/>
      </g>
     </g>
    </g>
    <g id="ytick_3">
     <g id="line2d_18">
      <g>
       <use style="stroke:#000000;stroke-width:0.5;" x="61.68" xlink:href="#m728421d6d4" y="260.072857143"/>
      </g>
     </g>
     <g id="line2d_19">
      <g>
       <use style="stroke:#000000;stroke-width:0.5;" x="508.08" xlink:href="#mcb0005524f" y="260.072857143"/>
      </g>
     </g>
     <g id="text_10">
      <!-- 0.10 -->
      <g transform="translate(27.72 264.144107143)scale(0.16 -0.16)">
       <use xlink:href="#Helvetica-30"/>
       <use x="55.615234375" xlink:href="#Helvetica-2e"/>
       <use x="83.3984375" xlink:href="#Helvetica-31"/>
       <use x="139.013671875" xlink:href="#Helvetica-30"/>
      </g>
     </g>
    </g>
    <g id="ytick_4">
     <g id="line2d_20">
      <g>
       <use style="stroke:#000000;stroke-width:0.5;" x="61.68" xlink:href="#m728421d6d4" y="212.244285714"/>
      </g>
     </g>
     <g id="line2d_21">
      <g>
       <use style="stroke:#000000;stroke-width:0.5;" x="508.08" xlink:href="#mcb0005524f" y="212.244285714"/>
      </g>
     </g>
     <g id="text_11">
      <!-- 0.15 -->
      <g transform="translate(27.72 216.315535714)scale(0.16 -0.16)">
       <use xlink:href="#Helvetica-30"/>
       <use x="55.615234375" xlink:href="#Helvetica-2e"/>
       <use x="83.3984375" xlink:href="#Helvetica-31"/>
       <use x="139.013671875" xlink:href="#Helvetica-35"/>
      </g>
     </g>
    </g>
    <g id="ytick_5">
     <g id="line2d_22">
      <g>
       <use style="stroke:#000000;stroke-width:0.5;" x="61.68" xlink:href="#m728421d6d4" y="164.415714286"/>
      </g>
     </g>
     <g id="line2d_23">
      <g>
       <use style="stroke:#000000;stroke-width:0.5;" x="508.08" xlink:href="#mcb0005524f" y="164.415714286"/>
      </g>
     </g>
     <g id="text_12">
      <!-- 0.20 -->
      <g transform="translate(27.72 168.486964286)scale(0.16 -0.16)">
       <use xlink:href="#Helvetica-30"/>
       <use x="55.615234375" xlink:href="#Helvetica-2e"/>
       <use x="83.3984375" xlink:href="#Helvetica-32"/>
       <use x="139.013671875" xlink:href="#Helvetica-30"/>
      </g>
     </g>
    </g>
    <g id="ytick_6">
     <g id="line2d_24">
      <g>
       <use style="stroke:#000000;stroke-width:0.5;" x="61.68" xlink:href="#m728421d6d4" y="116.587142857"/>
      </g>
     </g>
     <g id="line2d_25">
      <g>
       <use style="stroke:#000000;stroke-width:0.5;" x="508.08" xlink:href="#mcb0005524f" y="116.587142857"/>
      </g>
     </g>
     <g id="text_13">
      <!-- 0.25 -->
      <g transform="translate(27.72 120.658392857)scale(0.16 -0.16)">
       <use xlink:href="#Helvetica-30"/>
       <use x="55.615234375" xlink:href="#Helvetica-2e"/>
       <use x="83.3984375" xlink:href="#Helvetica-32"/>
       <use x="139.013671875" xlink:href="#Helvetica-35"/>
      </g>
     </g>
    </g>
    <g id="ytick_7">
     <g id="line2d_26">
      <g>
       <use style="stroke:#000000;stroke-width:0.5;" x="61.68" xlink:href="#m728421d6d4" y="68.7585714286"/>
      </g>
     </g>
     <g id="line2d_27">
      <g>
       <use style="stroke:#000000;stroke-width:0.5;" x="508.08" xlink:href="#mcb0005524f" y="68.7585714286"/>
      </g>
     </g>
     <g id="text_14">
      <!-- 0.30 -->
      <defs>
       <path d="
M25.9844 -1.90625
Q13.5781 -1.90625 7.98438 4.90625
Q2.39062 11.7188 2.39062 21.4844
L11.5781 21.4844
Q12.1562 14.7031 14.1094 11.625
Q17.5312 6.10938 26.4688 6.10938
Q33.4062 6.10938 37.5938 9.8125
Q41.7969 13.5312 41.7969 19.3906
Q41.7969 26.6094 37.375 29.4844
Q32.9531 32.375 25.0938 32.375
Q24.2188 32.375 23.3125 32.3438
Q22.4062 32.3281 21.4844 32.2812
L21.4844 40.0469
Q22.8594 39.8906 23.7812 39.8438
Q24.7031 39.7969 25.7812 39.7969
Q30.7188 39.7969 33.8906 41.3594
Q39.4531 44.0938 39.4531 51.125
Q39.4531 56.3438 35.7344 59.1719
Q32.0312 62.0156 27.0938 62.0156
Q18.3125 62.0156 14.9375 56.1562
Q13.0938 52.9375 12.8438 46.9688
L4.15625 46.9688
Q4.15625 54.7812 7.28125 60.25
Q12.6406 70.0156 26.1719 70.0156
Q36.8594 70.0156 42.7188 65.25
Q48.5781 60.5 48.5781 51.4688
Q48.5781 45.0156 45.125 41.0156
Q42.9688 38.5312 39.5469 37.1094
Q45.0625 35.5938 48.1562 31.2656
Q51.2656 26.9531 51.2656 20.7031
Q51.2656 10.6875 44.6719 4.39062
Q38.0938 -1.90625 25.9844 -1.90625
z
" id="Helvetica-33"/>
      </defs>
      <g transform="translate(27.72 72.8298214286)scale(0.16 -0.16)">
       <use xlink:href="#Helvetica-30"/>
       <use x="55.615234375" xlink:href="#Helvetica-2e"/>
       <use x="83.3984375" xlink:href="#Helvetica-33"/>
       <use x="139.013671875" xlink:href="#Helvetica-30"/>
      </g>
     </g>
    </g>
    <g id="ytick_8">
     <g id="line2d_28">
      <g>
       <use style="stroke:#000000;stroke-width:0.5;" x="61.68" xlink:href="#m728421d6d4" y="20.93"/>
      </g>
     </g>
     <g id="line2d_29">
      <g>
       <use style="stroke:#000000;stroke-width:0.5;" x="508.08" xlink:href="#mcb0005524f" y="20.93"/>
      </g>
     </g>
     <g id="text_15">
      <!-- 0.35 -->
      <g transform="translate(27.72 25.00125)scale(0.16 -0.16)">
       <use xlink:href="#Helvetica-30"/>
       <use x="55.615234375" xlink:href="#Helvetica-2e"/>
       <use x="83.3984375" xlink:href="#Helvetica-33"/>
       <use x="139.013671875" xlink:href="#Helvetica-35"/>
      </g>
     </g>
    </g>
    <g id="text_16">
     <!-- $Prob_n$ -->
     <defs>
      <path d="
M4.89062 0
Q3.90625 0 3.90625 1.3125
Q3.95312 1.5625 4.09375 2.17188
Q4.25 2.78125 4.51562 3.14062
Q4.78125 3.51562 5.17188 3.51562
Q11.2812 3.51562 13.7188 4.20312
Q14.9844 4.64062 15.5781 6.89062
L29.2969 61.8125
Q29.5 62.7969 29.5 63.1875
Q29.5 64.2656 28.3281 64.4062
Q26.4219 64.7969 21.0938 64.7969
Q20.125 64.7969 20.125 66.1094
Q20.1719 66.3594 20.3125 66.9688
Q20.4531 67.5781 20.7188 67.9375
Q21 68.3125 21.3906 68.3125
L55.9062 68.3125
Q60.6406 68.3125 65.0781 66.625
Q69.5312 64.9375 72.3594 61.4688
Q75.2031 58.0156 75.2031 53.0781
Q75.2031 46.7344 70.7344 41.75
Q66.2656 36.7656 59.5938 33.9844
Q52.9375 31.2031 46.6875 31.2031
L30.4219 31.2031
L24.3125 6.5
Q24.125 5.51562 24.125 5.07812
Q24.125 4.6875 24.2344 4.42188
Q24.3594 4.15625 24.5781 4.07812
Q24.8125 4 25.2969 3.90625
Q27.2031 3.51562 32.5156 3.51562
Q33.5 3.51562 33.5 2.20312
Q33.1562 0.78125 32.9531 0.390625
Q32.7656 0 31.7812 0
z

M30.9062 34.1875
L44.9219 34.1875
Q54.6406 34.1875 59.7188 39.4062
Q62.3125 42 63.9375 46.875
Q65.5781 51.7656 65.5781 55.7188
Q65.5781 60.6406 61.8125 62.7188
Q58.0625 64.7969 52.4844 64.7969
L42.9219 64.7969
Q40.1875 64.7969 39.2969 64.3281
Q38.4219 63.875 37.7031 61.375
z
" id="Cmmi10-50"/>
      <path d="
M7.71875 1.70312
Q7.71875 2.29688 7.8125 2.59375
L15.2812 32.4219
Q16.0156 35.2031 16.0156 37.3125
Q16.0156 41.6094 13.0938 41.6094
Q9.96875 41.6094 8.45312 37.8594
Q6.9375 34.125 5.51562 28.4219
Q5.51562 28.125 5.21875 27.9531
Q4.9375 27.7812 4.6875 27.7812
L3.51562 27.7812
Q3.17188 27.7812 2.92188 28.1406
Q2.6875 28.5156 2.6875 28.8125
Q3.76562 33.1562 4.76562 36.1719
Q5.76562 39.2031 7.89062 41.6875
Q10.0156 44.1875 13.1875 44.1875
Q16.6562 44.1875 19.2656 42.1875
Q21.875 40.1875 22.5156 36.9219
Q25.0469 40.2344 28.2969 42.2031
Q31.5469 44.1875 35.4062 44.1875
Q38.5781 44.1875 40.9844 42.3281
Q43.4062 40.4844 43.4062 37.3125
Q43.4062 34.7656 41.8125 32.875
Q40.2344 31 37.5938 31
Q35.9844 31 34.8906 32
Q33.7969 33.0156 33.7969 34.625
Q33.7969 36.8125 35.4062 38.5469
Q37.0156 40.2812 39.1094 40.2812
Q37.5 41.6094 35.2031 41.6094
Q30.9062 41.6094 27.7344 38.5469
Q24.5625 35.5 22.0156 30.8125
L14.8906 2.20312
Q14.5469 0.828125 13.3438 -0.140625
Q12.1562 -1.125 10.6875 -1.125
Q9.46875 -1.125 8.59375 -0.34375
Q7.71875 0.4375 7.71875 1.70312" id="Cmmi10-72"/>
      <path d="
M17.2812 -1.125
Q11.2344 -1.125 7.85938 3.60938
Q4.5 8.34375 4.5 14.7031
Q4.5 15.625 4.95312 18.3281
Q5.42188 21.0469 5.42188 21.6875
L15.0938 60.5
Q15.4844 62.2031 15.5781 63.1875
Q15.5781 64.7969 9.07812 64.7969
Q8.10938 64.7969 8.10938 66.1094
Q8.15625 66.3594 8.32812 66.9844
Q8.5 67.625 8.76562 67.9688
Q9.03125 68.3125 9.51562 68.3125
L23 69.3906
Q24.2188 69.3906 24.2188 68.1094
L16.7969 38.625
Q22.4688 44.1875 28.2188 44.1875
Q32.4688 44.1875 35.5156 41.9375
Q38.5781 39.7031 40.0938 36.0312
Q41.6094 32.375 41.6094 28.2188
Q41.6094 23.3906 39.7188 18.2344
Q37.8438 13.0938 34.5156 8.67188
Q31.2031 4.25 26.75 1.5625
Q22.3125 -1.125 17.2812 -1.125
M17.4844 1.51562
Q20.9062 1.51562 23.875 4.375
Q26.8594 7.23438 28.7188 10.7969
Q30.7188 14.7969 32.4531 21.6562
Q34.1875 28.5156 34.1875 32.625
Q34.1875 36.1875 32.6875 38.8906
Q31.2031 41.6094 27.9844 41.6094
Q24.3594 41.6094 21.0625 38.9375
Q17.7812 36.2812 15.2812 32.625
L12.5 21.2969
Q10.8906 14.9844 10.7969 11.1875
Q10.7969 7.42188 12.4219 4.46875
Q14.0625 1.51562 17.4844 1.51562" id="Cmmi10-62"/>
      <path d="
M20.125 -1.125
Q15.375 -1.125 11.6875 1.125
Q8.01562 3.375 6 7.17188
Q4 10.9844 4 15.8281
Q4 22.6094 7.78125 29.25
Q11.5781 35.8906 17.8438 40.0312
Q24.125 44.1875 31 44.1875
Q34.7188 44.1875 37.625 42.9219
Q40.5312 41.6562 42.6719 39.3594
Q44.8281 37.0625 45.9688 33.9844
Q47.125 30.9062 47.125 27.2969
Q47.125 22.0781 44.9219 17.0156
Q42.7188 11.9688 38.8906 7.84375
Q35.0625 3.71875 30.125 1.29688
Q25.2031 -1.125 20.125 -1.125
M20.3125 1.51562
Q24.75 1.51562 28.4375 4.53125
Q32.125 7.5625 34.4844 12.1719
Q36.8594 16.7969 38.125 21.9219
Q39.4062 27.0469 39.4062 31.2031
Q39.4062 35.5469 37.2344 38.5781
Q35.0625 41.6094 30.8125 41.6094
Q24.9531 41.6094 20.5469 36.5938
Q16.1562 31.5938 13.9375 24.625
Q11.7188 17.6719 11.7188 11.9219
Q11.7188 7.5625 13.9375 4.53125
Q16.1562 1.51562 20.3125 1.51562" id="Cmmi10-6f"/>
     </defs>
     <g transform="translate(18.4 209.21)rotate(-90.0)scale(0.16 -0.16)">
      <use transform="translate(0.0 0.609375)" xlink:href="#Cmmi10-50"/>
      <use transform="translate(64.208984375 0.609375)" xlink:href="#Cmmi10-72"/>
      <use transform="translate(109.326171875 0.609375)" xlink:href="#Cmmi10-6f"/>
      <use transform="translate(157.71484375 0.609375)" xlink:href="#Cmmi10-62"/>
      <use transform="translate(200.634765625 -24.9)scale(0.7)" xlink:href="#Cmmi10-6e"/>
     </g>
    </g>
   </g>
   <g id="text_17">
    <!-- Probability distribution of n -->
    <defs>
     <path id="Helvetica-20"/>
     <path d="
M6.45312 52.0469
L15.375 52.0469
L15.375 0
L6.45312 0
z

M6.45312 71.7344
L15.375 71.7344
L15.375 61.7656
L6.45312 61.7656
z
" id="Helvetica-69"/>
     <path d="
M39.1094 52.2969
L48.8281 52.2969
Q46.9688 47.2656 40.5781 29.3438
Q35.7969 15.875 32.5625 7.375
Q24.9531 -12.6406 21.8281 -17.0312
Q18.7031 -21.4375 11.0781 -21.4375
Q9.23438 -21.4375 8.23438 -21.2812
Q7.23438 -21.1406 5.76562 -20.75
L5.76562 -12.75
Q8.0625 -13.375 9.07812 -13.5156
Q10.1094 -13.6719 10.8906 -13.6719
Q13.3281 -13.6719 14.4688 -12.8594
Q15.625 -12.0625 16.4062 -10.8906
Q16.6562 -10.5 18.1562 -6.875
Q19.6719 -3.26562 20.3594 -1.51562
L1.03125 52.2969
L10.9844 52.2969
L25 9.71875
z

M24.9531 53.5625
z
" id="Helvetica-79"/>
     <path d="
M12.0156 25.5312
Q12.0156 17.1406 15.5781 11.4688
Q19.1406 5.8125 27 5.8125
Q33.1094 5.8125 37.0312 11.0625
Q40.9688 16.3125 40.9688 26.125
Q40.9688 36.0312 36.9062 40.7969
Q32.8594 45.5625 26.9062 45.5625
Q20.2656 45.5625 16.1406 40.4844
Q12.0156 35.4062 12.0156 25.5312
z

M25.25 53.2188
Q31.25 53.2188 35.2969 50.6875
Q37.6406 49.2188 40.625 45.5625
L40.625 71.9688
L49.0781 71.9688
L49.0781 0
L41.1562 0
L41.1562 7.28125
Q38.0938 2.4375 33.8906 0.28125
Q29.6875 -1.85938 24.2656 -1.85938
Q15.5312 -1.85938 9.125 5.48438
Q2.73438 12.8438 2.73438 25.0469
Q2.73438 36.4688 8.5625 44.8438
Q14.4062 53.2188 25.25 53.2188
z
" id="Helvetica-64"/>
     <path d="
M15.2344 52.2969
L15.2344 17.5781
Q15.2344 13.5781 16.5 11.0312
Q18.8438 6.34375 25.25 6.34375
Q34.4219 6.34375 37.75 14.5469
Q39.5469 18.9531 39.5469 26.6094
L39.5469 52.2969
L48.3438 52.2969
L48.3438 0
L40.0469 0
L40.1406 7.71875
Q38.4219 4.73438 35.8906 2.6875
Q30.8594 -1.42188 23.6875 -1.42188
Q12.5 -1.42188 8.45312 6.0625
Q6.25 10.0625 6.25 16.75
L6.25 52.2969
z

M27.2969 53.5625
z
" id="Helvetica-75"/>
     <path d="
M8.20312 66.8906
L17.0938 66.8906
L17.0938 52.2969
L25.4375 52.2969
L25.4375 45.125
L17.0938 45.125
L17.0938 10.9844
Q17.0938 8.25 18.9531 7.32812
Q19.9688 6.78125 22.3594 6.78125
Q23 6.78125 23.7344 6.8125
Q24.4688 6.84375 25.4375 6.9375
L25.4375 0
Q23.9219 -0.4375 22.2812 -0.625
Q20.6562 -0.828125 18.75 -0.828125
Q12.5938 -0.828125 10.3906 2.3125
Q8.20312 5.46875 8.20312 10.5
L8.20312 45.125
L1.125 45.125
L1.125 52.2969
L8.20312 52.2969
z
" id="Helvetica-74"/>
     <path d="
M11.6719 16.4062
Q12.0625 12.0156 13.875 9.67188
Q17.1875 5.42188 25.3906 5.42188
Q30.2812 5.42188 33.9844 7.54688
Q37.7031 9.67188 37.7031 14.1094
Q37.7031 17.4844 34.7188 19.2344
Q32.8125 20.3125 27.2031 21.7344
L20.2188 23.4844
Q13.5312 25.1406 10.3594 27.2031
Q4.6875 30.7656 4.6875 37.0625
Q4.6875 44.4844 10.0312 49.0625
Q15.375 53.6562 24.4219 53.6562
Q36.2344 53.6562 41.4531 46.7344
Q44.7344 42.3281 44.625 37.25
L36.3281 37.25
Q36.0781 40.2344 34.2344 42.6719
Q31.2031 46.1406 23.7344 46.1406
Q18.75 46.1406 16.1875 44.2344
Q13.625 42.3281 13.625 39.2031
Q13.625 35.7969 17 33.7344
Q18.9531 32.5156 22.75 31.5938
L28.5625 30.1719
Q38.0312 27.875 41.2656 25.7344
Q46.3906 22.3594 46.3906 15.1406
Q46.3906 8.15625 41.0938 3.07812
Q35.7969 -2 24.9531 -2
Q13.2812 -2 8.42188 3.29688
Q3.5625 8.59375 3.21875 16.4062
z

M24.6562 53.5625
z
" id="Helvetica-73"/>
     <path d="
M13.1875 13.9219
Q13.1875 10.1094 15.9688 7.90625
Q18.75 5.71875 22.5625 5.71875
Q27.2031 5.71875 31.5469 7.85938
Q38.875 11.4219 38.875 19.5312
L38.875 26.6094
Q37.25 25.5938 34.7031 24.9062
Q32.1719 24.2188 29.7344 23.9219
L24.4219 23.25
Q19.625 22.6094 17.2344 21.2344
Q13.1875 18.9531 13.1875 13.9219
z

M34.4688 31.6875
Q37.5 32.0781 38.5312 34.2344
Q39.1094 35.4062 39.1094 37.5938
Q39.1094 42.0938 35.9062 44.1094
Q32.7188 46.1406 26.7656 46.1406
Q19.875 46.1406 17 42.4375
Q15.375 40.375 14.8906 36.3281
L6.6875 36.3281
Q6.9375 46 12.9688 49.7812
Q19 53.5625 26.9531 53.5625
Q36.1875 53.5625 41.9375 50.0469
Q47.6562 46.5312 47.6562 39.1094
L47.6562 8.98438
Q47.6562 7.625 48.2188 6.78125
Q48.7812 5.95312 50.5938 5.95312
Q51.1719 5.95312 51.9062 6.03125
Q52.6406 6.10938 53.4688 6.25
L53.4688 -0.25
Q51.4219 -0.828125 50.3438 -0.96875
Q49.2656 -1.125 47.4062 -1.125
Q42.875 -1.125 40.8281 2.09375
Q39.75 3.8125 39.3125 6.9375
Q36.625 3.42188 31.5938 0.828125
Q26.5625 -1.76562 20.5156 -1.76562
Q13.2344 -1.76562 8.60938 2.65625
Q4 7.07812 4 13.7188
Q4 21 8.54688 25
Q13.0938 29 20.4531 29.9375
z

M27.2031 53.5625
z
" id="Helvetica-61"/>
     <path d="
M5.76562 71.9688
L14.3125 71.9688
L14.3125 45.9531
Q17.1875 49.7031 21.1875 51.6719
Q25.2031 53.6562 29.8906 53.6562
Q39.6562 53.6562 45.7344 46.9375
Q51.8125 40.2344 51.8125 27.1562
Q51.8125 14.75 45.7969 6.54688
Q39.7969 -1.65625 29.1562 -1.65625
Q23.1875 -1.65625 19.0938 1.21875
Q16.6562 2.9375 13.875 6.6875
L13.875 0
L5.76562 0
z

M28.6094 6.10938
Q35.75 6.10938 39.2812 11.7656
Q42.8281 17.4375 42.8281 26.7031
Q42.8281 34.9688 39.2812 40.375
Q35.75 45.7969 28.8594 45.7969
Q22.8594 45.7969 18.3281 41.3594
Q13.8125 36.9219 13.8125 26.7031
Q13.8125 19.3438 15.6719 14.75
Q19.1406 6.10938 28.6094 6.10938
z
" id="Helvetica-62"/>
     <path d="
M6.6875 52.2969
L15.0469 52.2969
L15.0469 43.2656
Q16.0625 45.9062 20.0625 49.6875
Q24.0781 53.4688 29.2969 53.4688
Q29.5469 53.4688 30.125 53.4219
Q30.7188 53.375 32.125 53.2188
L32.125 43.9531
Q31.3438 44.0938 30.6875 44.1406
Q30.0312 44.1875 29.25 44.1875
Q22.6094 44.1875 19.0469 39.9062
Q15.4844 35.6406 15.4844 30.0781
L15.4844 0
L6.6875 0
z
" id="Helvetica-72"/>
     <path d="
M6.45312 52.2969
L14.7969 52.2969
L14.7969 44.875
Q18.5 49.4688 22.6562 51.4688
Q26.8125 53.4688 31.8906 53.4688
Q43.0156 53.4688 46.9219 45.7031
Q49.0781 41.4531 49.0781 33.5469
L49.0781 0
L40.1406 0
L40.1406 32.9531
Q40.1406 37.75 38.7188 40.6719
Q36.375 45.5625 30.2188 45.5625
Q27.0938 45.5625 25.0938 44.9219
Q21.4844 43.8438 18.75 40.625
Q16.5469 38.0312 15.8906 35.2656
Q15.2344 32.5156 15.2344 27.3906
L15.2344 0
L6.45312 0
z

M27.0938 53.5625
z
" id="Helvetica-6e"/>
     <path d="
M27.2031 5.67188
Q35.9375 5.67188 39.1875 12.2812
Q42.4375 18.8906 42.4375 27
Q42.4375 34.3281 40.0938 38.9219
Q36.375 46.1406 27.2969 46.1406
Q19.2344 46.1406 15.5781 39.9844
Q11.9219 33.8438 11.9219 25.1406
Q11.9219 16.7969 15.5781 11.2344
Q19.2344 5.67188 27.2031 5.67188
z

M27.5469 53.8125
Q37.6406 53.8125 44.625 47.0625
Q51.6094 40.3281 51.6094 27.25
Q51.6094 14.5938 45.4531 6.34375
Q39.3125 -1.90625 26.375 -1.90625
Q15.5781 -1.90625 9.21875 5.39062
Q2.875 12.7031 2.875 25
Q2.875 38.1875 9.5625 46
Q16.2656 53.8125 27.5469 53.8125
z

M27.25 53.5625
z
" id="Helvetica-6f"/>
     <path d="
M6.6875 71.7344
L15.4844 71.7344
L15.4844 0
L6.6875 0
z
" id="Helvetica-6c"/>
     <path d="
M8.64062 60.25
Q8.84375 65.7188 10.5469 68.2656
Q13.625 72.75 22.4062 72.75
Q23.25 72.75 24.125 72.7031
Q25 72.6562 26.125 72.5625
L26.125 64.5469
Q24.75 64.6562 24.1406 64.6719
Q23.5312 64.7031 23 64.7031
Q19 64.7031 18.2188 62.625
Q17.4375 60.5469 17.4375 52.0469
L26.125 52.0469
L26.125 45.125
L17.3281 45.125
L17.3281 0
L8.64062 0
L8.64062 45.125
L1.375 45.125
L1.375 52.0469
L8.64062 52.0469
L8.64062 60.25
z
" id="Helvetica-66"/>
     <path d="
M8.54688 71.7344
L40.8281 71.7344
Q50.3906 71.7344 56.25 66.3281
Q62.1094 60.9375 62.1094 51.1719
Q62.1094 42.7812 56.875 36.5469
Q51.6562 30.3281 40.8281 30.3281
L18.2656 30.3281
L18.2656 0
L8.54688 0
z

M52.2969 51.125
Q52.2969 59.0312 46.4375 61.8594
Q43.2188 63.375 37.5938 63.375
L18.2656 63.375
L18.2656 38.5312
L37.5938 38.5312
Q44.1406 38.5312 48.2188 41.3125
Q52.2969 44.0938 52.2969 51.125
z
" id="Helvetica-50"/>
    </defs>
    <g transform="translate(214.905 15.93)scale(0.12 -0.12)">
     <use xlink:href="#Helvetica-50"/>
     <use x="66.69921875" xlink:href="#Helvetica-72"/>
     <use x="100.0" xlink:href="#Helvetica-6f"/>
     <use x="155.615234375" xlink:href="#Helvetica-62"/>
     <use x="211.23046875" xlink:href="#Helvetica-61"/>
     <use x="266.845703125" xlink:href="#Helvetica-62"/>
     <use x="322.4609375" xlink:href="#Helvetica-69"/>
     <use x="344.677734375" xlink:href="#Helvetica-6c"/>
     <use x="366.89453125" xlink:href="#Helvetica-69"/>
     <use x="389.111328125" xlink:href="#Helvetica-74"/>
     <use x="416.89453125" xlink:href="#Helvetica-79"/>
     <use x="466.89453125" xlink:href="#Helvetica-20"/>
     <use x="494.677734375" xlink:href="#Helvetica-64"/>
     <use x="550.29296875" xlink:href="#Helvetica-69"/>
     <use x="572.509765625" xlink:href="#Helvetica-73"/>
     <use x="622.509765625" xlink:href="#Helvetica-74"/>
     <use x="650.29296875" xlink:href="#Helvetica-72"/>
     <use x="683.59375" xlink:href="#Helvetica-69"/>
     <use x="705.810546875" xlink:href="#Helvetica-62"/>
     <use x="761.42578125" xlink:href="#Helvetica-75"/>
     <use x="817.041015625" xlink:href="#Helvetica-74"/>
     <use x="844.82421875" xlink:href="#Helvetica-69"/>
     <use x="867.041015625" xlink:href="#Helvetica-6f"/>
     <use x="922.65625" xlink:href="#Helvetica-6e"/>
     <use x="978.271484375" xlink:href="#Helvetica-20"/>
     <use x="1006.0546875" xlink:href="#Helvetica-6f"/>
     <use x="1061.66992188" xlink:href="#Helvetica-66"/>
     <use x="1089.453125" xlink:href="#Helvetica-20"/>
     <use x="1117.23632812" xlink:href="#Helvetica-6e"/>
    </g>
   </g>
  </g>
 </g>
 <defs>
  <clipPath id="p93e89a12ed">
   <rect height="334.8" width="446.4" x="61.68" y="20.93"/>
  </clipPath>
 </defs>
</svg>
