<?xml version="1.0" encoding="utf-8" standalone="no"?>
<!DOCTYPE svg PUBLIC "-//W3C//DTD SVG 1.1//EN"
  "http://www.w3.org/Graphics/SVG/1.1/DTD/svg11.dtd">
<!-- Created with matplotlib (http://matplotlib.org/) -->
<svg height="425pt" version="1.1" viewBox="0 0 569 425" width="569pt" xmlns="http://www.w3.org/2000/svg" xmlns:xlink="http://www.w3.org/1999/xlink">
 <defs>
  <style type="text/css">
*{stroke-linecap:butt;stroke-linejoin:round;}
  </style>
 </defs>
 <g id="figure_1">
  <g id="patch_1">
   <path d="
M0 425.949
L569.2 425.949
L569.2 0
L0 0
z
" style="fill:#ffffff;"/>
  </g>
  <g id="axes_1">
   <g id="patch_2">
    <path d="
M52.2225 169.406
L545.31 169.406
L545.31 14.6063
L52.2225 14.6063
z
" style="fill:#ffffff;"/>
   </g>
   <g id="line2d_1">
    <path clip-path="url(#pa58be2e124)" d="
M52.7156 169.406
L53.2087 104.906
L53.7018 126.406
L54.1949 104.906
L54.6879 117.806
L55.181 104.906
L55.6741 95.692
L56.1672 88.7812
L56.6603 69.0729
L57.1534 66.2063
L57.6465 75.5881
L58.1396 72.6562
L58.6326 60.2524
L59.6188 57.6063
L60.1119 48.4688
L60.605 55.5827
L61.0981 47.5729
L61.5912 47.1957
L62.5773 58.8348
L63.0704 63.8608
L63.5635 62.841
L64.0566 67.2813
L65.5359 64.2951
L66.029 58.8348
L66.522 58.1994
L67.0151 61.9063
L67.5082 57.0514
L68.4944 56.0426
L68.9875 59.3768
L69.4806 55.1491
L69.9737 58.3229
L70.4667 54.3522
L70.9598 57.3799
L71.4529 56.9447
L71.946 53.3063
L72.4391 56.138
L72.9322 52.692
L73.4253 52.4063
L74.4114 57.6063
L75.3976 56.8743
L75.8907 53.8438
L76.3838 56.2022
L76.8769 55.8863
L78.3561 47.7081
L78.8492 49.9618
L79.3423 42.7517
L79.8354 42.7098
L80.3285 44.9326
L80.8216 38.1821
L81.3147 36.0334
L81.8078 36.1063
L82.3008 31.9472
L83.7801 32.3438
L84.7663 28.679
L85.7525 32.818
L86.2455 32.928
L86.7386 34.8777
L88.2179 35.1049
L88.711 36.9198
L89.2041 31.8063
L89.6972 33.6168
L90.6833 33.7909
L91.1764 35.5075
L91.6695 33.9563
L92.1626 35.6285
L92.6557 34.1136
L93.1488 35.7436
L94.1349 32.818
L94.628 32.9063
L95.6142 30.1449
L96.1073 31.7096
L97.0935 31.9008
L97.5866 33.3954
L98.0796 30.6966
L99.5589 31
L100.052 29.7671
L101.038 29.982
L102.024 32.7429
L102.517 32.818
L103.011 34.1441
L103.504 31.7236
L103.997 31.8063
L104.49 33.1044
L104.983 31.967
L106.462 32.1972
L107.448 34.6473
L107.941 33.5567
L108.434 34.7484
L108.928 33.6758
L109.421 34.8459
L109.914 33.7909
L110.9 36.0701
L111.393 35.0313
L112.379 35.1194
L112.872 32.016
L113.365 33.124
L113.858 32.1503
L114.845 32.2803
L115.338 33.3516
L116.324 33.4601
L116.817 31.5437
L117.31 30.6335
L117.803 30.707
L118.296 29.8167
L118.789 30.8507
L119.775 30.9902
L120.269 30.1236
L120.762 31.1257
L121.255 31.192
L121.748 29.4275
L123.72 33.289
L124.213 32.4542
L124.706 32.5083
L125.199 33.4333
L126.186 33.5263
L126.679 31.0089
L127.172 30.222
L128.651 32.9159
L129.144 32.9639
L130.13 31.4252
L130.623 32.293
L131.117 31.5375
L131.61 31.5926
L132.103 32.4433
L132.596 30.9093
L134.075 33.4123
L135.061 33.4955
L135.554 32.7731
L136.54 29.8448
L137.527 29.9669
L138.513 28.612
L139.006 29.4119
L139.499 29.474
L140.485 28.1549
L141.471 28.2902
L141.964 27.648
L143.444 29.9468
L143.937 27.9224
L144.43 27.9891
L144.923 28.7414
L145.909 27.5063
L147.388 27.7068
L147.881 27.1073
L148.375 25.8524
L149.854 26.0729
L150.347 26.7932
L150.84 26.8613
L151.333 27.5704
L151.826 27.634
L152.319 27.0614
L153.305 28.4502
L153.799 27.882
L154.292 27.9425
L155.278 29.2962
L155.771 29.3491
L156.264 28.7901
L156.757 27.6279
L157.743 27.7474
L158.236 26.6063
L158.729 26.6701
L159.716 27.9796
L160.209 27.4473
L160.702 28.0926
L161.688 28.2035
L162.181 27.1013
L162.674 27.7366
L163.167 27.7929
L163.66 28.4195
L164.153 28.4723
L164.646 27.9589
L165.14 28.0132
L165.633 27.5063
L167.112 29.3333
L167.605 29.3806
L168.098 29.9765
L169.084 30.0645
L169.577 30.6499
L170.07 30.6908
L171.057 29.7009
L171.55 28.679
L172.536 28.7751
L173.029 29.3491
L173.522 29.3941
L174.015 29.9609
L174.508 29.4829
L175.494 30.6023
L176.974 30.7185
L177.467 31.2645
L177.96 31.3004
L178.453 31.8398
L178.946 30.8693
L179.439 30.9063
L179.932 30.4449
L180.425 29.4909
L180.918 29.5327
L181.411 28.5895
L181.905 27.1629
L182.398 27.2131
L183.384 28.2822
L183.877 28.3276
L184.37 27.8913
L184.863 26.9787
L186.342 27.1268
L186.835 26.703
L187.328 26.753
L187.822 25.8644
L188.315 25.4497
L189.301 25.5573
L189.794 26.0729
L190.78 26.1749
L191.766 25.3638
L192.259 25.4168
L192.752 25.922
L193.246 25.9727
L193.739 26.4725
L195.711 26.664
L196.204 26.2693
L196.697 26.7578
L197.19 26.8042
L197.683 27.2876
L199.163 26.121
L199.656 26.1688
L200.149 25.7863
L201.628 27.2082
L202.121 27.2516
L203.107 28.1808
L203.6 27.3802
L205.08 27.5063
L205.573 26.7181
L206.066 26.3486
L206.559 26.8056
L207.545 26.892
L208.038 26.5265
L208.531 25.3495
L209.024 25.3968
L210.504 26.7427
L210.997 26.3845
L211.49 26.8273
L211.983 26.8692
L212.476 27.3078
L212.969 26.9523
L213.462 26.9934
L213.955 27.4276
L215.434 27.5452
L216.421 26.0729
L217.407 26.1585
L217.9 26.5848
L218.393 26.6258
L218.886 27.0483
L219.379 26.7071
L219.872 26.7474
L220.858 27.5817
L221.352 27.243
L221.845 27.6563
L222.831 27.7299
L223.324 28.1382
L223.817 27.8028
L224.31 26.73
L225.296 26.0729
L226.282 26.1541
L227.269 26.9612
L227.762 26.9989
L228.255 27.3978
L228.748 27.0738
L230.227 28.2567
L230.72 27.5775
L231.213 27.2575
L232.199 28.0364
L232.693 27.3653
L233.679 27.4361
L234.172 27.1217
L234.665 27.1576
L235.651 27.9224
L236.144 27.9558
L236.637 26.9544
L237.13 26.6463
L237.623 27.0259
L238.116 27.0614
L238.61 27.438
L239.103 27.4722
L239.596 27.8457
L240.089 27.8787
L240.582 27.5738
L241.075 27.6073
L242.061 27.0037
L243.047 27.0729
L243.54 26.1099
L246.006 27.933
L246.992 27.9961
L247.978 28.7085
L248.964 28.7672
L249.951 28.1818
L250.444 28.2122
L250.937 28.5626
L251.43 28.5919
L251.923 28.9396
L252.416 28.9678
L252.909 28.679
L253.895 28.7363
L254.388 27.8209
L254.881 27.8515
L255.375 27.5689
L256.854 28.5942
L257.84 28.6509
L258.333 28.3704
L258.826 28.707
L259.319 28.4277
L260.305 29.0958
L261.292 29.1492
L261.785 29.4792
L262.278 29.202
L262.771 29.2283
L263.264 28.953
L263.757 29.2804
L264.743 29.332
L265.729 28.7873
L266.222 29.1113
L266.716 29.1373
L268.688 30.4154
L269.674 30.4607
L270.167 29.6076
L270.66 29.3408
L271.153 29.6563
L271.646 29.1006
L272.14 29.4152
L272.633 29.1512
L273.126 29.4643
L273.619 29.4887
L274.112 29.2263
L274.605 29.5371
L275.591 29.5851
L277.07 30.5049
L277.563 29.962
L278.057 29.9849
L278.55 30.2886
L279.043 30.3106
L279.536 30.6123
L280.029 30.6335
L281.015 31.2317
L281.508 30.974
L282.001 31.2711
L282.494 31.2906
L282.987 31.0345
L283.974 31.0743
L284.467 31.368
L284.96 30.8406
L285.453 31.1335
L285.946 31.1531
L286.439 30.901
L286.932 31.192
L287.425 31.2113
L287.918 30.4209
L288.411 30.1724
L288.905 30.1938
L289.891 30.7714
L290.384 29.9901
L291.37 30.0331
L291.863 29.789
L292.356 29.281
L292.849 29.3038
L293.342 29.5903
L294.328 29.6344
L294.822 29.9184
L295.315 29.9397
L295.808 29.6998
L296.301 29.7214
L296.794 30.003
L297.78 30.0448
L298.273 30.3241
L298.766 30.0863
L299.259 30.3643
L300.246 29.3784
L301.232 29.4221
L302.218 29.9743
L303.697 30.0357
L304.19 29.8035
L304.683 30.0762
L305.176 29.5934
L306.163 30.1363
L307.642 30.1958
L308.135 29.9669
L308.628 30.2351
L309.614 29.7798
L310.6 29.8204
L311.093 29.3491
L312.08 29.3911
L312.573 29.6563
L313.066 29.6766
L313.559 29.9402
L314.052 29.9599
L314.545 29.4946
L315.038 29.5151
L316.024 30.038
L317.504 30.0958
L317.997 30.3543
L318.49 30.134
L319.476 30.6479
L319.969 30.4283
L320.462 30.6838
L321.941 30.7371
L322.434 30.284
L323.421 30.3208
L326.379 31.8217
L327.858 31.8678
L328.352 32.1134
L328.845 32.1282
L329.831 32.6158
L330.817 32.1868
L331.31 32.2013
L331.803 31.9883
L332.296 32.0031
L333.775 32.725
L334.269 32.7384
L336.241 33.6875
L336.734 33.4756
L337.227 33.4876
L337.72 33.2767
L339.199 33.9784
L340.186 34.0004
L340.679 34.2319
L341.665 34.2529
L342.158 34.4828
L342.651 34.0548
L343.144 33.191
L343.637 33.2032
L344.13 32.9975
L345.61 33.0348
L346.103 33.2636
L346.596 33.2756
L347.582 33.7301
L348.075 33.7413
L348.568 33.5377
L349.554 33.9883
L350.047 33.5718
L350.54 33.7963
L351.034 33.8072
L351.527 34.0306
L352.02 33.4046
L353.006 33.0046
L353.499 33.2279
L354.978 33.2629
L355.471 33.0648
L355.964 33.2861
L356.457 33.0886
L357.444 33.529
L357.937 33.5401
L358.43 33.3434
L359.909 33.9976
L360.402 34.0079
L360.895 33.6059
L361.388 33.411
L361.881 33.4222
L362.375 33.2282
L362.868 33.2396
L363.361 33.4554
L363.854 33.4664
L364.347 33.2735
L364.84 33.4883
L365.333 33.296
L366.319 33.7234
L366.812 33.7338
L367.799 34.1578
L368.785 33.7754
L369.278 33.9863
L369.771 33.9963
L370.757 33.6168
L372.236 33.6482
L372.729 33.857
L373.222 33.6689
L373.716 33.6793
L374.209 33.2945
L374.702 33.3053
L375.195 33.5131
L376.181 33.5341
L376.674 33.7406
L377.66 33.3699
L378.646 33.3911
L379.633 33.0237
L380.126 33.2288
L380.619 33.0459
L381.112 33.0569
L381.605 33.261
L382.591 33.2824
L383.084 33.4852
L384.07 33.5058
L384.563 33.3246
L385.55 33.3456
L386.043 33.5466
L386.536 33.5567
L387.029 33.3768
L387.522 33.3871
L388.015 33.208
L389.987 33.25
L390.974 32.8953
L391.467 32.9063
L392.453 32.1802
L393.439 32.2039
L393.932 32.0296
L394.425 32.0417
L394.918 32.2393
L395.904 32.2628
L396.398 31.9048
L396.891 31.917
L397.384 31.7448
L397.877 31.7572
L399.356 31.2443
L400.835 31.2832
L401.328 31.1139
L402.315 31.1401
L402.808 31.3345
L403.301 31.3473
L404.78 31.9265
L405.273 31.7582
L405.766 31.9502
L407.246 31.9854
L407.739 32.176
L408.232 32.1874
L408.725 32.3772
L409.218 32.3883
L409.711 32.5773
L410.697 32.5988
L411.19 32.7867
L411.683 32.6202
L412.176 32.6309
L412.669 32.4651
L413.656 32.8387
L414.149 32.849
L414.642 32.6838
L415.135 32.8696
L415.628 32.7048
L416.121 32.89
L416.614 32.7256
L417.6 32.7463
L418.093 32.9305
L419.08 32.6038
L420.559 32.6352
L421.052 32.4731
L422.038 32.4943
L422.531 32.333
L423.517 32.3545
L424.01 32.194
L424.504 32.2049
L424.997 32.0451
L425.49 32.0562
L425.983 31.7268
L427.462 32.2696
L427.955 32.111
L428.448 32.1218
L429.928 32.6595
L430.421 32.5014
L430.914 32.0078
L431.407 31.851
L431.9 32.0296
L432.393 32.0405
L432.886 32.2184
L433.872 31.9063
L434.365 31.5843
L434.858 31.7619
L435.845 31.7841
L436.338 31.464
L436.831 31.4755
L437.324 31.6521
L437.817 31.6633
L438.31 31.8392
L439.296 31.861
L439.789 31.7078
L440.282 31.7188
L440.775 31.8936
L441.269 31.9043
L441.762 32.0784
L442.748 32.0994
L443.734 32.4453
L444.227 32.1308
L445.706 32.1619
L446.199 32.3337
L447.679 32.3639
L448.172 32.5345
L448.665 32.5443
L449.651 32.8839
L450.637 32.9025
L451.13 32.5929
L451.623 32.7618
L452.116 32.7712
L452.61 32.9395
L454.089 32.4921
L454.582 32.6599
L455.075 32.3536
L456.061 32.6883
L457.047 32.7071
L457.54 32.4026
L458.034 32.5691
L458.527 32.5786
L459.02 32.4317
L459.513 32.4414
L460.499 32.7722
L460.992 32.6258
L461.485 32.7906
L462.471 32.8089
L462.964 32.9729
L463.457 32.8271
L463.951 32.8362
L464.937 33.1625
L465.43 32.7094
L465.923 32.411
L466.416 32.4205
L467.402 32.7459
L470.854 32.8091
L471.84 33.1301
L472.333 33.1386
L473.319 33.4578
L474.305 33.474
L474.798 33.3316
L475.292 33.3398
L475.785 33.4982
L476.771 33.5143
L477.757 33.8292
L478.743 33.8444
L479.236 34.0009
L479.729 34.0083
L480.716 34.3199
L481.209 33.7338
L481.702 33.8896
L482.195 33.7491
L482.688 33.9045
L483.181 33.7644
L483.674 33.9194
L484.167 33.6323
L484.66 33.64
L485.153 33.5008
L485.646 33.5086
L486.14 33.6631
L486.633 33.6707
L487.126 33.5321
L487.619 33.686
L488.112 33.6936
L488.605 33.5554
L489.591 33.8617
L490.084 33.8691
L491.07 33.5939
L494.029 34.5033
L494.522 34.5099
L495.015 34.3728
L495.508 34.523
L496.987 34.1136
L497.481 34.1205
L497.974 33.9848
L498.467 33.9919
L498.96 33.8566
L499.453 33.8638
L499.946 33.5869
L500.439 33.5944
L502.411 34.1894
L502.904 34.1962
L503.398 34.344
L504.384 34.3572
L504.877 34.2232
L505.37 33.9492
L505.863 33.9563
L506.356 34.1033
L506.849 33.9702
L507.342 33.9772
L507.835 34.1238
L508.328 34.1306
L508.822 34.2767
L509.315 34.1441
L509.808 34.1509
L510.301 34.2965
L510.794 34.303
L511.287 34.4481
L511.78 34.4545
L512.273 34.5992
L512.766 34.3292
L513.259 34.1977
L514.739 34.6301
L515.232 34.4989
L515.725 34.5052
L516.218 34.6485
L516.711 34.3808
L517.204 34.3872
L517.697 34.2569
L518.19 34.2634
L519.176 34.5488
L520.656 34.5673
L521.149 34.4378
L522.135 34.4503
L522.628 34.5918
L523.614 34.6039
L524.6 34.8854
L525.093 34.8911
L526.08 35.1711
L527.559 35.1874
L528.052 34.9254
L528.545 34.9311
L529.531 35.2089
L530.024 35.2143
L530.517 35.3526
L531.01 35.225
L531.504 35.2303
L531.997 35.1031
L532.49 35.1085
L533.476 35.3837
L533.969 35.3888
L534.955 35.6626
L535.448 35.6675
L535.941 35.8038
L536.434 35.8085
L537.421 35.2934
L537.914 35.4296
L538.407 35.4346
L538.9 35.309
L539.886 35.5802
L540.379 35.585
L542.351 36.1236
L542.845 35.7389
L543.338 35.6141
L543.831 35.3601
L544.817 35.3702
L545.31 35.5043
L545.31 35.5043" style="fill:none;stroke:#e41a1c;stroke-linecap:square;"/>
   </g>
   <g id="patch_3">
    <path d="
M52.2225 14.6063
L545.31 14.6063" style="fill:none;stroke:#000000;stroke-linecap:square;stroke-linejoin:miter;"/>
   </g>
   <g id="patch_4">
    <path d="
M545.31 169.406
L545.31 14.6063" style="fill:none;stroke:#000000;stroke-linecap:square;stroke-linejoin:miter;"/>
   </g>
   <g id="patch_5">
    <path d="
M52.2225 169.406
L545.31 169.406" style="fill:none;stroke:#000000;stroke-linecap:square;stroke-linejoin:miter;"/>
   </g>
   <g id="patch_6">
    <path d="
M52.2225 169.406
L52.2225 14.6063" style="fill:none;stroke:#000000;stroke-linecap:square;stroke-linejoin:miter;"/>
   </g>
   <g id="matplotlib.axis_1">
    <g id="xtick_1">
     <g id="line2d_2">
      <defs>
       <path d="
M0 0
L0 -4" id="m93b0483c22" style="stroke:#000000;stroke-width:0.5;"/>
      </defs>
      <g>
       <use style="stroke:#000000;stroke-width:0.5;" x="52.2225" xlink:href="#m93b0483c22" y="169.40625"/>
      </g>
     </g>
     <g id="line2d_3">
      <defs>
       <path d="
M0 0
L0 4" id="m741efc42ff" style="stroke:#000000;stroke-width:0.5;"/>
      </defs>
      <g>
       <use style="stroke:#000000;stroke-width:0.5;" x="52.2225" xlink:href="#m741efc42ff" y="14.60625"/>
      </g>
     </g>
     <g id="text_1">
      <!-- 0 -->
      <defs>
       <path d="
M27.0469 69.9219
Q40.625 69.9219 46.6875 58.7344
Q51.375 50.0938 51.375 35.0625
Q51.375 20.7969 47.125 11.4688
Q40.9688 -1.90625 27 -1.90625
Q14.4062 -1.90625 8.25 9.03125
Q3.125 18.1719 3.125 33.5469
Q3.125 45.4531 6.20312 54
Q11.9688 69.9219 27.0469 69.9219
z

M26.9531 6.10938
Q33.7969 6.10938 37.8438 12.1562
Q41.8906 18.2188 41.8906 34.7188
Q41.8906 46.625 38.9531 54.3125
Q36.0312 62.0156 27.5938 62.0156
Q19.8281 62.0156 16.2344 54.7031
Q12.6406 47.4062 12.6406 33.2031
Q12.6406 22.5156 14.9375 16.0156
Q18.4531 6.10938 26.9531 6.10938
z
" id="Helvetica-30"/>
      </defs>
      <g transform="translate(48.3625 184.88375)scale(0.16 -0.16)">
       <use xlink:href="#Helvetica-30"/>
      </g>
     </g>
    </g>
    <g id="xtick_2">
     <g id="line2d_4">
      <g>
       <use style="stroke:#000000;stroke-width:0.5;" x="150.84" xlink:href="#m93b0483c22" y="169.40625"/>
      </g>
     </g>
     <g id="line2d_5">
      <g>
       <use style="stroke:#000000;stroke-width:0.5;" x="150.84" xlink:href="#m741efc42ff" y="14.60625"/>
      </g>
     </g>
     <g id="text_2">
      <!-- 200 -->
      <defs>
       <path d="
M3.125 0
Q3.60938 9.03125 6.85938 15.7188
Q10.1094 22.4062 19.5312 27.875
L28.9062 33.2969
Q35.2031 36.9688 37.75 39.5469
Q41.75 43.6094 41.75 48.8281
Q41.75 54.9375 38.0781 58.5156
Q34.4219 62.1094 28.3281 62.1094
Q19.2812 62.1094 15.8281 55.2812
Q13.9688 51.6094 13.7656 45.125
L4.82812 45.125
Q4.98438 54.25 8.20312 60.0156
Q13.9219 70.1719 28.375 70.1719
Q40.375 70.1719 45.9219 63.6719
Q51.4688 57.1719 51.4688 49.2188
Q51.4688 40.8281 45.5625 34.8594
Q42.1406 31.3906 33.2969 26.4688
L26.6094 22.75
Q21.8281 20.125 19.0938 17.7188
Q14.2031 13.4844 12.9375 8.29688
L51.125 8.29688
L51.125 0
L3.125 0
z
" id="Helvetica-32"/>
      </defs>
      <g transform="translate(138.0825 184.88375)scale(0.16 -0.16)">
       <use xlink:href="#Helvetica-32"/>
       <use x="55.615234375" xlink:href="#Helvetica-30"/>
       <use x="111.23046875" xlink:href="#Helvetica-30"/>
      </g>
     </g>
    </g>
    <g id="xtick_3">
     <g id="line2d_6">
      <g>
       <use style="stroke:#000000;stroke-width:0.5;" x="249.4575" xlink:href="#m93b0483c22" y="169.40625"/>
      </g>
     </g>
     <g id="line2d_7">
      <g>
       <use style="stroke:#000000;stroke-width:0.5;" x="249.4575" xlink:href="#m741efc42ff" y="14.60625"/>
      </g>
     </g>
     <g id="text_3">
      <!-- 400 -->
      <defs>
       <path d="
M33.0625 24.75
L33.0625 56.4531
L10.6406 24.75
z

M33.2031 0
L33.2031 17.0938
L2.54688 17.0938
L2.54688 25.6875
L34.5781 70.125
L42 70.125
L42 24.75
L52.2969 24.75
L52.2969 17.0938
L42 17.0938
L42 0
z
" id="Helvetica-34"/>
      </defs>
      <g transform="translate(236.65375 184.88375)scale(0.16 -0.16)">
       <use xlink:href="#Helvetica-34"/>
       <use x="55.615234375" xlink:href="#Helvetica-30"/>
       <use x="111.23046875" xlink:href="#Helvetica-30"/>
      </g>
     </g>
    </g>
    <g id="xtick_4">
     <g id="line2d_8">
      <g>
       <use style="stroke:#000000;stroke-width:0.5;" x="348.075" xlink:href="#m93b0483c22" y="169.40625"/>
      </g>
     </g>
     <g id="line2d_9">
      <g>
       <use style="stroke:#000000;stroke-width:0.5;" x="348.075" xlink:href="#m741efc42ff" y="14.60625"/>
      </g>
     </g>
     <g id="text_4">
      <!-- 600 -->
      <defs>
       <path d="
M29.25 70.2188
Q40.9688 70.2188 45.5781 64.1406
Q50.2031 58.0625 50.2031 51.6094
L41.5 51.6094
Q40.7188 55.7656 39.0156 58.1094
Q35.8438 62.5 29.3906 62.5
Q22.0156 62.5 17.6719 55.6875
Q13.3281 48.875 12.8438 36.1875
Q15.875 40.625 20.4531 42.8281
Q24.6562 44.7812 29.8281 44.7812
Q38.625 44.7812 45.1562 39.1562
Q51.7031 33.5469 51.7031 22.4062
Q51.7031 12.8906 45.5 5.53125
Q39.3125 -1.8125 27.8281 -1.8125
Q18.0156 -1.8125 10.8906 5.64062
Q3.76562 13.0938 3.76562 30.7188
Q3.76562 43.75 6.9375 52.8281
Q13.0312 70.2188 29.25 70.2188
z

M28.6094 6
Q35.5469 6 38.9844 10.6562
Q42.4375 15.3281 42.4375 21.6875
Q42.4375 27.0469 39.3594 31.9062
Q36.2812 36.7656 28.1719 36.7656
Q22.5156 36.7656 18.2344 33
Q13.9688 29.25 13.9688 21.6875
Q13.9688 15.0469 17.8438 10.5156
Q21.7344 6 28.6094 6
z
" id="Helvetica-36"/>
      </defs>
      <g transform="translate(335.36875 184.88375)scale(0.16 -0.16)">
       <use xlink:href="#Helvetica-36"/>
       <use x="55.615234375" xlink:href="#Helvetica-30"/>
       <use x="111.23046875" xlink:href="#Helvetica-30"/>
      </g>
     </g>
    </g>
    <g id="xtick_5">
     <g id="line2d_10">
      <g>
       <use style="stroke:#000000;stroke-width:0.5;" x="446.6925" xlink:href="#m93b0483c22" y="169.40625"/>
      </g>
     </g>
     <g id="line2d_11">
      <g>
       <use style="stroke:#000000;stroke-width:0.5;" x="446.6925" xlink:href="#m741efc42ff" y="14.60625"/>
      </g>
     </g>
     <g id="text_5">
      <!-- 800 -->
      <defs>
       <path d="
M27.2031 40.625
Q33.0156 40.625 36.2812 43.875
Q39.5469 47.125 39.5469 51.6094
Q39.5469 55.5156 36.4219 58.7812
Q33.2969 62.0625 26.9062 62.0625
Q20.5625 62.0625 17.7188 58.7812
Q14.8906 55.5156 14.8906 51.125
Q14.8906 46.1875 18.5469 43.4062
Q22.2188 40.625 27.2031 40.625
z

M27.7344 6
Q33.8438 6 37.8594 9.29688
Q41.8906 12.5938 41.8906 19.1406
Q41.8906 25.9219 37.7344 29.4375
Q33.5938 32.9531 27.0938 32.9531
Q20.7969 32.9531 16.8125 29.3594
Q12.8438 25.7812 12.8438 19.4375
Q12.8438 13.9688 16.4844 9.98438
Q20.125 6 27.7344 6
z

M15.2344 37.25
Q11.5781 38.8125 9.51562 40.9219
Q5.67188 44.8281 5.67188 51.0781
Q5.67188 58.8906 11.3281 64.5
Q17 70.125 27.3906 70.125
Q37.4531 70.125 43.1562 64.8125
Q48.875 59.5156 48.875 52.4375
Q48.875 45.9062 45.5625 41.8438
Q43.7031 39.5469 39.7969 37.3594
Q44.1406 35.3594 46.625 32.7656
Q51.2656 27.875 51.2656 20.0625
Q51.2656 10.8438 45.0625 4.42188
Q38.875 -2 27.5469 -2
Q17.3281 -2 10.2656 3.53125
Q3.21875 9.07812 3.21875 19.625
Q3.21875 25.8281 6.25 30.3438
Q9.28125 34.8594 15.2344 37.25
z
" id="Helvetica-38"/>
      </defs>
      <g transform="translate(433.9425 184.88375)scale(0.16 -0.16)">
       <use xlink:href="#Helvetica-38"/>
       <use x="55.615234375" xlink:href="#Helvetica-30"/>
       <use x="111.23046875" xlink:href="#Helvetica-30"/>
      </g>
     </g>
    </g>
    <g id="xtick_6">
     <g id="line2d_12">
      <g>
       <use style="stroke:#000000;stroke-width:0.5;" x="545.31" xlink:href="#m93b0483c22" y="169.40625"/>
      </g>
     </g>
     <g id="line2d_13">
      <g>
       <use style="stroke:#000000;stroke-width:0.5;" x="545.31" xlink:href="#m741efc42ff" y="14.60625"/>
      </g>
     </g>
     <g id="text_6">
      <!-- 1000 -->
      <defs>
       <path d="
M9.57812 49.5156
L9.57812 56.25
Q19.0938 57.1719 22.8438 59.3438
Q26.6094 61.5312 28.4688 69.625
L35.4062 69.625
L35.4062 0
L26.0312 0
L26.0312 49.5156
z
" id="Helvetica-31"/>
      </defs>
      <g transform="translate(528.62 184.88375)scale(0.16 -0.16)">
       <use xlink:href="#Helvetica-31"/>
       <use x="55.615234375" xlink:href="#Helvetica-30"/>
       <use x="111.23046875" xlink:href="#Helvetica-30"/>
       <use x="166.845703125" xlink:href="#Helvetica-30"/>
      </g>
     </g>
    </g>
    <g id="text_7">
     <!-- Time (s) -->
     <defs>
      <path id="Helvetica-20"/>
      <path d="
M59.8125 71.7344
L59.8125 63.1875
L35.6406 63.1875
L35.6406 0
L25.7812 0
L25.7812 63.1875
L1.60938 63.1875
L1.60938 71.7344
z
" id="Helvetica-54"/>
      <path d="
M6.45312 52.0469
L15.375 52.0469
L15.375 0
L6.45312 0
z

M6.45312 71.7344
L15.375 71.7344
L15.375 61.7656
L6.45312 61.7656
z
" id="Helvetica-69"/>
      <path d="
M29.5938 72.9062
Q21.9219 58.0156 19.625 50.9844
Q16.1562 40.2812 16.1562 26.2656
Q16.1562 12.1094 20.125 0.390625
Q22.5625 -6.84375 29.7344 -20.4062
L23.8281 -20.4062
Q16.7031 -9.28125 14.9844 -6.20312
Q13.2812 -3.125 11.2812 2.15625
Q8.54688 9.375 7.46875 17.5781
Q6.9375 21.8281 6.9375 25.6875
Q6.9375 40.1406 11.4688 51.4219
Q14.3594 58.5938 23.4844 72.9062
z
" id="Helvetica-28"/>
      <path d="
M28.2188 53.4688
Q33.7969 53.4688 39.0156 50.8594
Q44.2344 48.25 46.9688 44.0938
Q49.6094 40.1406 50.4844 34.8594
Q51.2656 31.25 51.2656 23.3438
L12.9375 23.3438
Q13.1875 15.375 16.7031 10.5625
Q20.2188 5.76562 27.5938 5.76562
Q34.4688 5.76562 38.5781 10.2969
Q40.9219 12.9375 41.8906 16.4062
L50.5312 16.4062
Q50.2031 13.5312 48.2656 9.98438
Q46.3438 6.45312 43.9531 4.20312
Q39.9375 0.296875 34.0312 -1.07812
Q30.8594 -1.85938 26.8594 -1.85938
Q17.0938 -1.85938 10.2969 5.25
Q3.51562 12.3594 3.51562 25.1406
Q3.51562 37.75 10.3438 45.6094
Q17.1875 53.4688 28.2188 53.4688
z

M42.2344 30.3281
Q41.7031 36.0312 39.75 39.4531
Q36.1406 45.7969 27.6875 45.7969
Q21.625 45.7969 17.5156 41.4219
Q13.4219 37.0625 13.1875 30.3281
z

M27.3906 53.5625
z
" id="Helvetica-65"/>
      <path d="
M11.6719 16.4062
Q12.0625 12.0156 13.875 9.67188
Q17.1875 5.42188 25.3906 5.42188
Q30.2812 5.42188 33.9844 7.54688
Q37.7031 9.67188 37.7031 14.1094
Q37.7031 17.4844 34.7188 19.2344
Q32.8125 20.3125 27.2031 21.7344
L20.2188 23.4844
Q13.5312 25.1406 10.3594 27.2031
Q4.6875 30.7656 4.6875 37.0625
Q4.6875 44.4844 10.0312 49.0625
Q15.375 53.6562 24.4219 53.6562
Q36.2344 53.6562 41.4531 46.7344
Q44.7344 42.3281 44.625 37.25
L36.3281 37.25
Q36.0781 40.2344 34.2344 42.6719
Q31.2031 46.1406 23.7344 46.1406
Q18.75 46.1406 16.1875 44.2344
Q13.625 42.3281 13.625 39.2031
Q13.625 35.7969 17 33.7344
Q18.9531 32.5156 22.75 31.5938
L28.5625 30.1719
Q38.0312 27.875 41.2656 25.7344
Q46.3906 22.3594 46.3906 15.1406
Q46.3906 8.15625 41.0938 3.07812
Q35.7969 -2 24.9531 -2
Q13.2812 -2 8.42188 3.29688
Q3.5625 8.59375 3.21875 16.4062
z

M24.6562 53.5625
z
" id="Helvetica-73"/>
      <path d="
M3.46875 -20.4062
Q11.2344 -5.28125 13.4844 1.65625
Q16.8906 12.1562 16.8906 26.2656
Q16.8906 40.375 12.9375 52.0938
Q10.5 59.3281 3.32812 72.9062
L9.23438 72.9062
Q16.75 60.8906 18.3281 58.0781
Q19.9219 55.2812 21.7812 50.3438
Q24.125 44.2344 25.125 38.2812
Q26.125 32.3281 26.125 26.8125
Q26.125 12.3594 21.5312 1.03125
Q18.6562 -6.25 9.57812 -20.4062
z
" id="Helvetica-29"/>
      <path d="
M6.45312 52.2969
L15.1406 52.2969
L15.1406 44.875
Q18.2656 48.7344 20.7969 50.4844
Q25.1406 53.4688 30.6719 53.4688
Q36.9219 53.4688 40.7188 50.3906
Q42.875 48.6406 44.625 45.2188
Q47.5625 49.4219 51.5156 51.4375
Q55.4688 53.4688 60.4062 53.4688
Q70.9531 53.4688 74.75 45.8438
Q76.8125 41.75 76.8125 34.8125
L76.8125 0
L67.6719 0
L67.6719 36.3281
Q67.6719 41.5469 65.0625 43.5
Q62.4531 45.4531 58.6875 45.4531
Q53.5156 45.4531 49.7812 41.9844
Q46.0469 38.5312 46.0469 30.4219
L46.0469 0
L37.1094 0
L37.1094 34.125
Q37.1094 39.4531 35.8438 41.8906
Q33.8438 45.5625 28.375 45.5625
Q23.3906 45.5625 19.3125 41.7031
Q15.2344 37.8438 15.2344 27.7344
L15.2344 0
L6.45312 0
z
" id="Helvetica-6d"/>
     </defs>
     <g transform="translate(270.01375 204.81375)scale(0.16 -0.16)">
      <use xlink:href="#Helvetica-54"/>
      <use x="61.083984375" xlink:href="#Helvetica-69"/>
      <use x="83.30078125" xlink:href="#Helvetica-6d"/>
      <use x="166.6015625" xlink:href="#Helvetica-65"/>
      <use x="222.216796875" xlink:href="#Helvetica-20"/>
      <use x="250.0" xlink:href="#Helvetica-28"/>
      <use x="283.30078125" xlink:href="#Helvetica-73"/>
      <use x="333.30078125" xlink:href="#Helvetica-29"/>
     </g>
    </g>
   </g>
   <g id="matplotlib.axis_2">
    <g id="ytick_1">
     <g id="line2d_14">
      <defs>
       <path d="
M0 0
L4 0" id="m728421d6d4" style="stroke:#000000;stroke-width:0.5;"/>
      </defs>
      <g>
       <use style="stroke:#000000;stroke-width:0.5;" x="52.2225" xlink:href="#m728421d6d4" y="169.40625"/>
      </g>
     </g>
     <g id="line2d_15">
      <defs>
       <path d="
M0 0
L-4 0" id="mcb0005524f" style="stroke:#000000;stroke-width:0.5;"/>
      </defs>
      <g>
       <use style="stroke:#000000;stroke-width:0.5;" x="545.31" xlink:href="#mcb0005524f" y="169.40625"/>
      </g>
     </g>
     <g id="text_8">
      <!-- 0.0 -->
      <defs>
       <path d="
M8.54688 10.6406
L18.75 10.6406
L18.75 0
L8.54688 0
z
" id="Helvetica-2e"/>
      </defs>
      <g transform="translate(27.16 173.4775)scale(0.16 -0.16)">
       <use xlink:href="#Helvetica-30"/>
       <use x="55.615234375" xlink:href="#Helvetica-2e"/>
       <use x="83.3984375" xlink:href="#Helvetica-30"/>
      </g>
     </g>
    </g>
    <g id="ytick_2">
     <g id="line2d_16">
      <g>
       <use style="stroke:#000000;stroke-width:0.5;" x="52.2225" xlink:href="#m728421d6d4" y="143.60625"/>
      </g>
     </g>
     <g id="line2d_17">
      <g>
       <use style="stroke:#000000;stroke-width:0.5;" x="545.31" xlink:href="#mcb0005524f" y="143.60625"/>
      </g>
     </g>
     <g id="text_9">
      <!-- 0.2 -->
      <g transform="translate(27.145 147.6775)scale(0.16 -0.16)">
       <use xlink:href="#Helvetica-30"/>
       <use x="55.615234375" xlink:href="#Helvetica-2e"/>
       <use x="83.3984375" xlink:href="#Helvetica-32"/>
      </g>
     </g>
    </g>
    <g id="ytick_3">
     <g id="line2d_18">
      <g>
       <use style="stroke:#000000;stroke-width:0.5;" x="52.2225" xlink:href="#m728421d6d4" y="117.80625"/>
      </g>
     </g>
     <g id="line2d_19">
      <g>
       <use style="stroke:#000000;stroke-width:0.5;" x="545.31" xlink:href="#mcb0005524f" y="117.80625"/>
      </g>
     </g>
     <g id="text_10">
      <!-- 0.4 -->
      <g transform="translate(27.0125 121.8775)scale(0.16 -0.16)">
       <use xlink:href="#Helvetica-30"/>
       <use x="55.615234375" xlink:href="#Helvetica-2e"/>
       <use x="83.3984375" xlink:href="#Helvetica-34"/>
      </g>
     </g>
    </g>
    <g id="ytick_4">
     <g id="line2d_20">
      <g>
       <use style="stroke:#000000;stroke-width:0.5;" x="52.2225" xlink:href="#m728421d6d4" y="92.00625"/>
      </g>
     </g>
     <g id="line2d_21">
      <g>
       <use style="stroke:#000000;stroke-width:0.5;" x="545.31" xlink:href="#mcb0005524f" y="92.00625"/>
      </g>
     </g>
     <g id="text_11">
      <!-- 0.6 -->
      <g transform="translate(27.1075 96.0775)scale(0.16 -0.16)">
       <use xlink:href="#Helvetica-30"/>
       <use x="55.615234375" xlink:href="#Helvetica-2e"/>
       <use x="83.3984375" xlink:href="#Helvetica-36"/>
      </g>
     </g>
    </g>
    <g id="ytick_5">
     <g id="line2d_22">
      <g>
       <use style="stroke:#000000;stroke-width:0.5;" x="52.2225" xlink:href="#m728421d6d4" y="66.20625"/>
      </g>
     </g>
     <g id="line2d_23">
      <g>
       <use style="stroke:#000000;stroke-width:0.5;" x="545.31" xlink:href="#mcb0005524f" y="66.20625"/>
      </g>
     </g>
     <g id="text_12">
      <!-- 0.8 -->
      <g transform="translate(27.1775 70.2775)scale(0.16 -0.16)">
       <use xlink:href="#Helvetica-30"/>
       <use x="55.615234375" xlink:href="#Helvetica-2e"/>
       <use x="83.3984375" xlink:href="#Helvetica-38"/>
      </g>
     </g>
    </g>
    <g id="ytick_6">
     <g id="line2d_24">
      <g>
       <use style="stroke:#000000;stroke-width:0.5;" x="52.2225" xlink:href="#m728421d6d4" y="40.40625"/>
      </g>
     </g>
     <g id="line2d_25">
      <g>
       <use style="stroke:#000000;stroke-width:0.5;" x="545.31" xlink:href="#mcb0005524f" y="40.40625"/>
      </g>
     </g>
     <g id="text_13">
      <!-- 1.0 -->
      <g transform="translate(28.1925 44.4775)scale(0.16 -0.16)">
       <use xlink:href="#Helvetica-31"/>
       <use x="55.615234375" xlink:href="#Helvetica-2e"/>
       <use x="83.3984375" xlink:href="#Helvetica-30"/>
      </g>
     </g>
    </g>
    <g id="ytick_7">
     <g id="line2d_26">
      <g>
       <use style="stroke:#000000;stroke-width:0.5;" x="52.2225" xlink:href="#m728421d6d4" y="14.60625"/>
      </g>
     </g>
     <g id="line2d_27">
      <g>
       <use style="stroke:#000000;stroke-width:0.5;" x="545.31" xlink:href="#mcb0005524f" y="14.60625"/>
      </g>
     </g>
     <g id="text_14">
      <!-- 1.2 -->
      <g transform="translate(28.1775 18.6775)scale(0.16 -0.16)">
       <use xlink:href="#Helvetica-31"/>
       <use x="55.615234375" xlink:href="#Helvetica-2e"/>
       <use x="83.3984375" xlink:href="#Helvetica-32"/>
      </g>
     </g>
    </g>
    <g id="text_15">
     <!-- Photons/s -->
     <defs>
      <path d="
M6.45312 71.9688
L15.2344 71.9688
L15.2344 45.2188
Q18.3594 49.1719 20.8438 50.7812
Q25.0938 53.5625 31.4531 53.5625
Q42.8281 53.5625 46.875 45.6094
Q49.0781 41.2656 49.0781 33.5469
L49.0781 0
L40.0469 0
L40.0469 32.9531
Q40.0469 38.7188 38.5781 41.4062
Q36.1875 45.7031 29.5938 45.7031
Q24.125 45.7031 19.6719 41.9375
Q15.2344 38.1875 15.2344 27.7344
L15.2344 0
L6.45312 0
z
" id="Helvetica-68"/>
      <path d="
M8.54688 71.7344
L40.8281 71.7344
Q50.3906 71.7344 56.25 66.3281
Q62.1094 60.9375 62.1094 51.1719
Q62.1094 42.7812 56.875 36.5469
Q51.6562 30.3281 40.8281 30.3281
L18.2656 30.3281
L18.2656 0
L8.54688 0
z

M52.2969 51.125
Q52.2969 59.0312 46.4375 61.8594
Q43.2188 63.375 37.5938 63.375
L18.2656 63.375
L18.2656 38.5312
L37.5938 38.5312
Q44.1406 38.5312 48.2188 41.3125
Q52.2969 44.0938 52.2969 51.125
z
" id="Helvetica-50"/>
      <path d="
M8.20312 66.8906
L17.0938 66.8906
L17.0938 52.2969
L25.4375 52.2969
L25.4375 45.125
L17.0938 45.125
L17.0938 10.9844
Q17.0938 8.25 18.9531 7.32812
Q19.9688 6.78125 22.3594 6.78125
Q23 6.78125 23.7344 6.8125
Q24.4688 6.84375 25.4375 6.9375
L25.4375 0
Q23.9219 -0.4375 22.2812 -0.625
Q20.6562 -0.828125 18.75 -0.828125
Q12.5938 -0.828125 10.3906 2.3125
Q8.20312 5.46875 8.20312 10.5
L8.20312 45.125
L1.125 45.125
L1.125 52.2969
L8.20312 52.2969
z
" id="Helvetica-74"/>
      <path d="
M22.75 71.7344
L30.1719 71.7344
L7.42188 0
L0 0
z
" id="Helvetica-2f"/>
      <path d="
M6.45312 52.2969
L14.7969 52.2969
L14.7969 44.875
Q18.5 49.4688 22.6562 51.4688
Q26.8125 53.4688 31.8906 53.4688
Q43.0156 53.4688 46.9219 45.7031
Q49.0781 41.4531 49.0781 33.5469
L49.0781 0
L40.1406 0
L40.1406 32.9531
Q40.1406 37.75 38.7188 40.6719
Q36.375 45.5625 30.2188 45.5625
Q27.0938 45.5625 25.0938 44.9219
Q21.4844 43.8438 18.75 40.625
Q16.5469 38.0312 15.8906 35.2656
Q15.2344 32.5156 15.2344 27.3906
L15.2344 0
L6.45312 0
z

M27.0938 53.5625
z
" id="Helvetica-6e"/>
      <path d="
M27.2031 5.67188
Q35.9375 5.67188 39.1875 12.2812
Q42.4375 18.8906 42.4375 27
Q42.4375 34.3281 40.0938 38.9219
Q36.375 46.1406 27.2969 46.1406
Q19.2344 46.1406 15.5781 39.9844
Q11.9219 33.8438 11.9219 25.1406
Q11.9219 16.7969 15.5781 11.2344
Q19.2344 5.67188 27.2031 5.67188
z

M27.5469 53.8125
Q37.6406 53.8125 44.625 47.0625
Q51.6094 40.3281 51.6094 27.25
Q51.6094 14.5938 45.4531 6.34375
Q39.3125 -1.90625 26.375 -1.90625
Q15.5781 -1.90625 9.21875 5.39062
Q2.875 12.7031 2.875 25
Q2.875 38.1875 9.5625 46
Q16.2656 53.8125 27.5469 53.8125
z

M27.25 53.5625
z
" id="Helvetica-6f"/>
     </defs>
     <g transform="translate(18.6775 126.61)rotate(-90.0)scale(0.16 -0.16)">
      <use xlink:href="#Helvetica-50"/>
      <use x="66.69921875" xlink:href="#Helvetica-68"/>
      <use x="122.314453125" xlink:href="#Helvetica-6f"/>
      <use x="177.9296875" xlink:href="#Helvetica-74"/>
      <use x="205.712890625" xlink:href="#Helvetica-6f"/>
      <use x="261.328125" xlink:href="#Helvetica-6e"/>
      <use x="316.943359375" xlink:href="#Helvetica-73"/>
      <use x="366.943359375" xlink:href="#Helvetica-2f"/>
      <use x="394.7265625" xlink:href="#Helvetica-73"/>
     </g>
    </g>
   </g>
  </g>
  <g id="axes_2">
   <g id="patch_7">
    <path d="
M52.2225 380.006
L545.31 380.006
L545.31 225.206
L52.2225 225.206
z
" style="fill:#ffffff;"/>
   </g>
   <g id="line2d_28">
    <path clip-path="url(#pa5f9c9d4f4)" d="
M52.7156 329.177
L53.2087 349.645
L53.7018 343.149
L54.1949 339.491
L54.6879 361.429
L55.181 347.597
L55.6741 355.429
L56.1672 370.2
L56.6603 372.529
L57.1534 371.449
L57.6465 363.889
L58.1396 358.87
L58.6326 346.19
L59.1257 347.341
L59.6188 344.172
L60.1119 346.064
L61.0981 354.206
L61.5912 351.954
L62.0843 354.939
L62.5773 364.193
L63.0704 365.343
L63.5635 351.483
L64.0566 353.538
L64.5497 353.552
L65.0428 354.206
L65.5359 351.064
L66.029 354.825
L66.522 349.352
L67.5082 363.54
L68.0013 360.522
L68.4944 355.337
L68.9875 348.621
L69.4806 349.25
L69.9737 354.206
L70.4667 353.135
L71.4529 364.665
L72.4391 359.819
L72.9322 355.214
L73.4253 352.214
L73.9184 359.131
L74.4114 360.043
L74.9045 361.416
L75.3976 361.814
L75.8907 357.03
L76.3838 355.607
L76.8769 351.439
L77.37 349.635
L77.8631 348.781
L78.8492 341.312
L79.3423 339.671
L79.8354 333.25
L80.8216 327.649
L81.3147 332.109
L81.8078 334.8
L82.3008 336.235
L82.7939 332.2
L83.287 329.884
L84.2732 321.356
L85.2594 308.342
L85.7525 305.947
L86.7386 304.227
L87.2317 301.143
L87.7248 301.486
L88.2179 306.034
L88.711 305.515
L89.2041 300.55
L89.6972 302.775
L90.1902 302.406
L90.6833 304.605
L91.1764 299.317
L91.6695 297.43
L92.1626 294.499
L92.6557 294.497
L93.1488 291.968
L93.6419 298.062
L94.1349 294.872
L94.628 293.098
L95.1211 295.557
L95.6142 296.6
L96.1073 295.087
L96.6004 294.353
L97.0935 294.991
L98.0796 294.994
L98.5727 295.665
L99.0658 297.33
L100.052 295.276
L100.545 296.548
L101.531 291.265
L102.024 291.988
L102.517 287.097
L103.011 286.132
L103.504 286.765
L103.997 285.892
L104.49 288.08
L104.983 292.535
L105.476 293.396
L105.969 296.502
L106.462 297.714
L106.955 297.952
L107.941 302.118
L108.434 303.235
L108.928 298.86
L109.421 299.716
L110.407 295.078
L110.9 297.129
L111.393 297.398
L111.886 297.022
L112.379 293.69
L113.365 289.812
L113.858 292.405
L114.352 289.716
L114.845 288.193
L115.338 288.721
L115.831 291.268
L116.324 287.785
L116.817 285.209
L117.31 285.488
L117.803 280.363
L118.296 281.422
L118.789 280.224
L119.282 279.934
L119.775 279.957
L120.269 280.51
L120.762 278.869
L121.748 283.221
L122.241 283.431
L122.734 282.853
L123.227 283.371
L123.72 285.528
L124.213 290.399
L124.706 291.124
L125.199 288.611
L125.693 289.091
L126.186 290.138
L126.679 290.886
L127.172 289.235
L127.665 291.545
L128.158 290.939
L128.651 292.402
L129.144 290.749
L129.637 294.856
L130.623 292.574
L131.117 294.08
L131.61 293.493
L132.103 294.474
L132.596 298.273
L133.089 298.733
L133.582 299.911
L134.075 300.607
L134.568 303.581
L135.061 303.225
L135.554 306.18
L136.047 307.869
L136.54 306.002
L137.034 306.413
L137.527 305.293
L138.02 305.918
L138.513 306.821
L139.006 306.926
L139.499 309.023
L140.485 309.277
L140.978 310.123
L141.471 312.696
L141.964 311.576
L142.458 311.712
L142.951 310.135
L143.444 309.752
L144.43 309.527
L144.923 310.099
L145.416 310.228
L145.909 309.635
L146.895 308.932
L147.388 305.967
L147.881 306.314
L148.375 304.78
L148.868 303.96
L149.361 302.24
L149.854 299.326
L150.347 297.135
L150.84 294.236
L151.333 294.611
L151.826 294.317
L152.319 291.692
L152.812 290.476
L153.305 293.164
L153.799 293.347
L154.785 291.115
L155.278 291.042
L155.771 291.637
L156.264 290.668
L156.757 289.019
L157.25 288.293
L157.743 287.081
L158.236 289.709
L158.729 289.647
L159.222 292.462
L159.716 293.476
L161.195 289.478
L161.688 288.263
L162.181 287.517
L162.674 283.503
L163.167 284.532
L166.126 277.894
L166.619 277.868
L167.112 280.195
L167.605 280.763
L168.098 284.541
L168.591 285.329
L169.084 283.135
L169.577 281.581
L170.07 282.55
L170.564 282.301
L171.057 280.354
L171.55 280.711
L172.043 280.026
L172.536 278.937
L173.029 276.781
L173.522 273.801
L174.015 273.097
L175.001 275.322
L175.987 269.629
L176.481 269.174
L176.974 271.628
L177.467 269.571
L177.96 268.931
L178.453 266.79
L178.946 265.962
L179.439 265.943
L179.932 266.914
L180.425 266.865
L180.918 268.421
L181.411 265.15
L181.905 265.698
L182.398 264.034
L183.384 264.751
L183.877 261.271
L184.37 259.212
L184.863 258.971
L185.356 259.126
L185.849 258.521
L186.342 258.115
L186.835 259.677
L187.328 257.898
L187.822 257.477
L188.315 256.432
L188.808 255.041
L189.301 256.21
L189.794 258.959
L190.287 259.297
L190.78 258.091
L191.273 258.108
L191.766 257.135
L192.259 258.279
L192.752 262.139
L193.739 258.402
L194.232 258.193
L194.725 256.809
L195.711 257.173
L196.204 255.451
L196.697 254.269
L198.176 249.083
L198.669 248.294
L199.163 248.075
L199.656 247.47
L200.642 250.822
L201.135 250.769
L201.628 253.053
L202.121 252.057
L202.614 250.142
L203.107 250.689
L203.6 249.386
L204.093 249.384
L204.587 250.66
L205.08 251.195
L205.573 251.357
L206.066 250.919
L206.559 252.21
L207.052 251.25
L207.545 253.606
L208.038 253.006
L208.531 253.88
L209.024 256.607
L209.517 256.555
L210.011 255.958
L210.504 255.549
L210.997 254.216
L211.49 256.068
L211.983 256.221
L212.476 259.118
L212.969 259.099
L213.955 262.657
L214.448 261.718
L214.941 262.392
L215.434 261.817
L215.928 263.772
L216.914 263.681
L217.407 267.233
L217.9 265.924
L218.393 263.906
L219.379 266.361
L219.872 268.089
L220.365 268.02
L220.858 269.717
L221.352 268.592
L221.845 270.121
L222.338 271.092
L223.324 266.561
L223.817 269.357
L224.31 269.476
L224.803 269.432
L225.296 270.422
L225.789 269.659
L226.282 268.206
L226.775 267.778
L227.269 268.961
L227.762 268.725
L228.255 270.929
L228.748 271.061
L230.227 277.475
L230.72 277.058
L231.213 276.83
L232.199 273.951
L232.693 276.473
L233.186 276.93
L233.679 276.18
L234.172 276.287
L234.665 275.515
L235.158 277.185
L235.651 276.584
L236.144 277.691
L236.637 280.167
L237.13 279.438
L237.623 281.229
L238.116 279.118
L238.61 278.193
L239.103 280.162
L239.596 279.595
L240.089 277.15
L240.582 277.396
L241.075 279.673
L241.568 278.603
L242.061 278.366
L242.554 278.469
L243.047 277.911
L243.54 276.161
L244.034 277.264
L244.527 277.185
L245.02 277.792
L245.513 277.219
L246.006 276.148
L246.499 276.096
L246.992 273.359
L247.485 273.295
L247.978 274.393
L248.471 274.657
L248.964 277.725
L249.458 275.194
L250.444 277.526
L250.937 278.269
L251.43 277.883
L251.923 277.834
L252.416 277.945
L252.909 277.225
L253.402 279.927
L253.895 279.197
L254.388 281.061
L254.881 281.625
L255.375 280.581
L255.868 277.74
L256.361 278.472
L257.347 276.881
L257.84 279.078
L258.333 280.457
L258.826 280.558
L259.319 280.97
L259.812 279.119
L260.305 279.694
L260.799 277.551
L261.292 276.357
L261.785 276.441
L262.278 274.297
L262.771 274.537
L263.264 272.558
L263.757 273.287
L264.25 273.218
L264.743 271.24
L265.236 272.589
L265.729 271.255
L266.222 271.518
L266.716 272.583
L267.702 275.472
L268.688 276.281
L269.181 275.896
L269.674 276.768
L270.167 276.687
L270.66 274.266
L271.153 275.92
L271.646 275.069
L272.14 275.477
L272.633 274.931
L273.126 273.752
L273.619 273.985
L275.591 267.343
L276.084 266.522
L276.577 266.154
L277.07 265.021
L277.563 262.507
L278.057 261.079
L278.55 261.026
L279.043 261.895
L279.536 261.983
L280.029 260.693
L280.522 262.165
L281.015 262.105
L281.508 264.033
L282.001 263.671
L282.987 260.047
L283.481 261.972
L283.974 259.789
L284.467 259.75
L284.96 257.437
L285.453 258.766
L285.946 256.433
L286.439 255.464
L286.932 256.614
L287.918 254.731
L288.905 257.347
L289.398 258.344
L289.891 255.149
L290.384 254.822
L290.877 254.03
L291.37 253.853
L291.863 255.317
L292.356 255.429
L292.849 256.861
L293.342 256.818
L293.835 259.299
L294.328 257.153
L294.822 256.665
L295.315 256.765
L295.808 257.601
L296.301 256.089
L297.287 254.811
L297.78 255.327
L298.273 255.408
L298.766 255.651
L299.259 253.68
L300.246 254.602
L300.739 254.421
L301.232 255.098
L301.725 256.066
L302.218 255.878
L302.711 256.278
L303.204 255.935
L303.697 255.76
L304.19 255.431
L304.683 254.799
L305.669 256.157
L306.163 253.794
L306.656 253.023
L307.149 252.545
L307.642 251.338
L308.628 255.152
L309.121 255.388
L309.614 256.627
L310.107 255.418
L310.6 253.066
L311.093 249.985
L311.587 248.213
L312.08 246.9
L312.573 247.866
L313.066 247.675
L313.559 247.641
L314.052 247.329
L314.545 247.726
L315.038 248.528
L315.531 248.045
L316.024 247.998
L316.517 248.677
L317.01 248.486
L317.504 247.877
L317.997 248.952
L318.49 249.041
L318.983 248.563
L319.969 250.621
L320.462 252.56
L320.955 250.686
L321.448 250.496
L321.941 249.877
L322.434 248.561
L322.928 248.645
L323.421 249.156
L323.914 248.265
L324.407 247.931
L324.9 249.712
L325.393 249.783
L325.886 249.457
L326.379 248.996
L326.872 249.932
L327.365 250.177
L327.858 249.42
L328.352 248.979
L328.845 249.771
L329.338 249.859
L329.831 252.32
L330.324 251.841
L330.817 252.21
L331.31 253.275
L331.803 252.82
L332.296 253.059
L332.789 252.873
L333.775 253.026
L334.269 252.701
L334.762 253.891
L335.255 255.502
L335.748 255.447
L336.241 256.354
L337.227 256.952
L337.72 259.215
L338.213 260.14
L338.706 261.309
L339.199 260.155
L339.693 260.914
L340.186 260.458
L340.679 259.746
L341.172 260.92
L341.665 261.282
L342.158 262.301
L343.144 257.588
L344.13 256.654
L344.623 258.336
L345.116 258.685
L345.61 258.894
L346.103 261.814
L346.596 262.429
L347.089 262.496
L347.582 263.102
L348.075 262.093
L348.568 259.348
L349.061 257.66
L349.554 258.15
L350.047 258.353
L350.54 258.948
L351.034 260.509
L351.527 260.434
L352.02 259.838
L352.513 259.914
L353.499 262.617
L353.992 264.963
L354.485 264.641
L354.978 265.24
L355.471 264.247
L355.964 264.039
L356.457 263.056
L356.951 263.661
L357.444 262.666
L357.937 263.931
L358.923 262.727
L359.416 264.775
L359.909 265.89
L360.402 265.684
L360.895 264.705
L361.388 266.358
L361.881 265.761
L362.375 268.195
L362.868 268.25
L363.361 269.637
L363.854 270.36
L364.347 271.352
L364.84 270.89
L365.333 271.082
L365.826 270.885
L366.319 271.602
L366.812 270.37
L367.305 270.833
L368.785 270.247
L369.278 269.649
L369.771 269.598
L370.264 268.501
L370.757 267.91
L371.25 266.286
L372.236 264.095
L372.729 263.909
L373.222 263.977
L374.209 262.687
L374.702 261.096
L375.195 262.197
L376.674 263.816
L377.167 263.501
L377.66 262.796
L378.153 261.835
L378.646 263.05
L379.14 263.26
L379.633 262.04
L380.126 264.662
L380.619 263.97
L381.112 264.698
L381.605 263.095
L382.098 263.8
L382.591 262.84
L383.084 263.667
L383.577 265.647
L384.07 264.205
L384.563 263.511
L385.057 263.195
L385.55 262.615
L386.043 262.674
L386.536 260.725
L387.029 259.901
L387.522 260.587
L388.508 258.825
L389.001 259.012
L389.494 258.712
L390.481 258.831
L390.974 257.261
L391.467 258.196
L391.96 258.652
L392.453 258.346
L392.946 257.682
L393.439 258.123
L394.425 259.401
L394.918 259.346
L395.411 257.673
L395.904 257.867
L396.398 256.68
L396.891 256.125
L397.384 254.947
L397.877 255.76
L398.37 254.593
L398.863 254.164
L399.356 253.976
L400.342 255.355
L400.835 254.957
L401.328 255.64
L402.315 257.898
L402.808 257.59
L403.301 256.676
L403.794 256.993
L404.287 256.314
L404.78 256.63
L405.273 255.964
L405.766 256.518
L406.259 256.336
L406.752 256.64
L407.246 257.331
L407.739 257.512
L408.725 258.616
L409.711 260.715
L410.204 261.147
L410.697 260.824
L411.19 262.476
L411.683 262.425
L412.176 262.493
L412.669 264.015
L413.163 263.592
L413.656 263.765
L414.149 263.709
L414.642 262.552
L415.135 262.617
L415.628 263.042
L416.121 261.753
L416.614 261.819
L417.107 261.397
L417.6 260.605
L418.093 260.058
L419.08 256.554
L419.573 257.335
L420.066 256.916
L420.559 256.144
L421.052 256.208
L421.545 256.766
L422.038 256.104
L422.531 254.721
L423.517 255.234
L424.01 255.543
L424.504 254.781
L424.997 255.822
L425.49 256.482
L425.983 255.345
L426.476 256.009
L426.969 255.825
L427.462 254.696
L427.955 255.126
L428.448 255.31
L428.941 254.531
L429.434 255.19
L429.928 253.937
L430.421 253.286
L430.914 252.875
L431.407 254.03
L432.393 252.024
L432.886 252.925
L433.379 252.863
L433.872 252.218
L434.858 251.408
L435.351 252.079
L435.845 252.267
L436.338 252.331
L436.831 252.046
L437.324 252.568
L437.817 251.679
L438.31 251.743
L438.803 252.287
L439.789 251.95
L440.282 252.025
L440.775 251.845
L441.269 252.268
L441.762 252.433
L442.255 252.955
L442.748 254.421
L443.241 255.293
L443.734 253.485
L444.227 252.142
L445.213 252.487
L445.706 250.093
L446.199 250.622
L446.693 251.378
L447.186 251.558
L447.679 250.92
L448.172 252.969
L449.158 253.685
L449.651 254.792
L450.144 253.911
L450.637 254.204
L451.13 253.907
L451.623 254.44
L452.116 254.62
L453.103 252.76
L453.596 252.25
L454.089 253.816
L454.582 254.454
L455.075 254.413
L455.568 256.9
L456.061 256.98
L456.554 257.734
L457.047 257.334
L457.54 256.243
L458.034 256.88
L458.527 256.485
L459.02 256.43
L459.513 257.186
L460.006 259.319
L460.499 260.863
L460.992 261.028
L461.485 262.701
L462.471 264.063
L462.964 264.57
L463.951 264.116
L464.937 267.532
L465.43 267.25
L465.923 266.837
L466.416 267.576
L466.909 268.99
L467.402 267.552
L468.881 269.845
L469.375 269.441
L469.868 270.736
L470.361 270.218
L470.854 270.055
L471.347 270.447
L471.84 271.854
L472.333 270.994
L472.826 271.277
L473.319 271.783
L473.812 270.473
L474.798 270.9
L475.292 272.208
L475.785 271.241
L476.278 270.832
L476.771 270.655
L477.264 270.828
L477.757 270.53
L478.25 268.336
L478.743 268.839
L479.236 268.656
L479.729 270.16
L480.222 270.652
L480.716 270.57
L481.702 271.898
L482.195 269.937
L482.688 270.549
L483.181 270.358
L483.674 269.299
L484.167 269.35
L484.66 268.392
L485.153 267.102
L485.646 267.248
L486.14 268.18
L486.633 266.677
L487.126 266.614
L488.112 264.832
L489.098 265.824
L489.591 265.982
L490.084 267.135
L490.577 266.861
L491.07 266.793
L491.563 265.734
L492.057 265.017
L492.55 266.273
L493.043 265.11
L493.536 266.265
L494.029 265.645
L494.522 264.041
L495.015 263.749
L495.508 263.786
L496.001 262.956
L496.494 262.572
L496.987 261.637
L497.481 261.681
L498.467 265.31
L498.96 265.142
L499.946 261.505
L500.439 262.215
L500.932 261.179
L501.425 261.221
L501.918 261.929
L502.904 261.918
L503.398 261.864
L503.891 260.488
L504.384 260.756
L504.877 259.289
L505.37 259.981
L505.863 260.362
L506.356 260.19
L506.849 259.142
L507.342 259.628
L507.835 259.353
L508.328 258.427
L508.822 259.237
L509.315 259.824
L509.808 259.107
L510.301 259.159
L511.287 257.754
L511.78 258.778
L512.273 259.257
L513.259 257.629
L513.752 257.357
L514.245 257.628
L515.232 255.553
L516.218 255.434
L516.711 256.028
L517.204 256.196
L517.697 256.569
L518.19 256.408
L518.683 255.182
L519.176 256.934
L519.669 257.739
L520.163 259.94
L520.656 260.738
L521.149 258.334
L521.642 257.628
L522.135 257.673
L522.628 258.147
L523.121 258.082
L523.614 258.345
L524.107 258.175
L524.6 257.039
L525.587 258.083
L526.08 258.025
L526.573 256.797
L527.066 256.524
L527.559 256.46
L528.052 257.371
L528.545 257.952
L529.038 257.894
L529.531 256.996
L530.024 256.836
L531.01 257.466
L531.504 258.675
L532.49 256.971
L533.476 256.747
L534.462 255.276
L535.448 256.755
L535.941 256.707
L536.434 254.966
L536.928 255.454
L537.421 254.254
L537.914 253.667
L538.407 254.031
L538.9 252.401
L539.393 253.607
L539.886 252.615
L540.379 253.612
L540.872 253.136
L541.365 254.66
L541.858 255.01
L542.351 253.182
L542.845 253.755
L543.338 253.694
L543.831 253.521
L544.324 254.614
L544.817 254.036
L545.31 254.607
L545.31 254.607" style="fill:none;stroke:#e41a1c;stroke-linecap:square;"/>
   </g>
   <g id="patch_8">
    <path d="
M52.2225 225.206
L545.31 225.206" style="fill:none;stroke:#000000;stroke-linecap:square;stroke-linejoin:miter;"/>
   </g>
   <g id="patch_9">
    <path d="
M545.31 380.006
L545.31 225.206" style="fill:none;stroke:#000000;stroke-linecap:square;stroke-linejoin:miter;"/>
   </g>
   <g id="patch_10">
    <path d="
M52.2225 380.006
L545.31 380.006" style="fill:none;stroke:#000000;stroke-linecap:square;stroke-linejoin:miter;"/>
   </g>
   <g id="patch_11">
    <path d="
M52.2225 380.006
L52.2225 225.206" style="fill:none;stroke:#000000;stroke-linecap:square;stroke-linejoin:miter;"/>
   </g>
   <g id="matplotlib.axis_3">
    <g id="xtick_7">
     <g id="line2d_29">
      <g>
       <use style="stroke:#000000;stroke-width:0.5;" x="52.2225" xlink:href="#m93b0483c22" y="380.00625"/>
      </g>
     </g>
     <g id="line2d_30">
      <g>
       <use style="stroke:#000000;stroke-width:0.5;" x="52.2225" xlink:href="#m741efc42ff" y="225.20625"/>
      </g>
     </g>
     <g id="text_16">
      <!-- 0 -->
      <g transform="translate(48.3625 395.48375)scale(0.16 -0.16)">
       <use xlink:href="#Helvetica-30"/>
      </g>
     </g>
    </g>
    <g id="xtick_8">
     <g id="line2d_31">
      <g>
       <use style="stroke:#000000;stroke-width:0.5;" x="150.84" xlink:href="#m93b0483c22" y="380.00625"/>
      </g>
     </g>
     <g id="line2d_32">
      <g>
       <use style="stroke:#000000;stroke-width:0.5;" x="150.84" xlink:href="#m741efc42ff" y="225.20625"/>
      </g>
     </g>
     <g id="text_17">
      <!-- 200 -->
      <g transform="translate(138.0825 395.48375)scale(0.16 -0.16)">
       <use xlink:href="#Helvetica-32"/>
       <use x="55.615234375" xlink:href="#Helvetica-30"/>
       <use x="111.23046875" xlink:href="#Helvetica-30"/>
      </g>
     </g>
    </g>
    <g id="xtick_9">
     <g id="line2d_33">
      <g>
       <use style="stroke:#000000;stroke-width:0.5;" x="249.4575" xlink:href="#m93b0483c22" y="380.00625"/>
      </g>
     </g>
     <g id="line2d_34">
      <g>
       <use style="stroke:#000000;stroke-width:0.5;" x="249.4575" xlink:href="#m741efc42ff" y="225.20625"/>
      </g>
     </g>
     <g id="text_18">
      <!-- 400 -->
      <g transform="translate(236.65375 395.48375)scale(0.16 -0.16)">
       <use xlink:href="#Helvetica-34"/>
       <use x="55.615234375" xlink:href="#Helvetica-30"/>
       <use x="111.23046875" xlink:href="#Helvetica-30"/>
      </g>
     </g>
    </g>
    <g id="xtick_10">
     <g id="line2d_35">
      <g>
       <use style="stroke:#000000;stroke-width:0.5;" x="348.075" xlink:href="#m93b0483c22" y="380.00625"/>
      </g>
     </g>
     <g id="line2d_36">
      <g>
       <use style="stroke:#000000;stroke-width:0.5;" x="348.075" xlink:href="#m741efc42ff" y="225.20625"/>
      </g>
     </g>
     <g id="text_19">
      <!-- 600 -->
      <g transform="translate(335.36875 395.48375)scale(0.16 -0.16)">
       <use xlink:href="#Helvetica-36"/>
       <use x="55.615234375" xlink:href="#Helvetica-30"/>
       <use x="111.23046875" xlink:href="#Helvetica-30"/>
      </g>
     </g>
    </g>
    <g id="xtick_11">
     <g id="line2d_37">
      <g>
       <use style="stroke:#000000;stroke-width:0.5;" x="446.6925" xlink:href="#m93b0483c22" y="380.00625"/>
      </g>
     </g>
     <g id="line2d_38">
      <g>
       <use style="stroke:#000000;stroke-width:0.5;" x="446.6925" xlink:href="#m741efc42ff" y="225.20625"/>
      </g>
     </g>
     <g id="text_20">
      <!-- 800 -->
      <g transform="translate(433.9425 395.48375)scale(0.16 -0.16)">
       <use xlink:href="#Helvetica-38"/>
       <use x="55.615234375" xlink:href="#Helvetica-30"/>
       <use x="111.23046875" xlink:href="#Helvetica-30"/>
      </g>
     </g>
    </g>
    <g id="xtick_12">
     <g id="line2d_39">
      <g>
       <use style="stroke:#000000;stroke-width:0.5;" x="545.31" xlink:href="#m93b0483c22" y="380.00625"/>
      </g>
     </g>
     <g id="line2d_40">
      <g>
       <use style="stroke:#000000;stroke-width:0.5;" x="545.31" xlink:href="#m741efc42ff" y="225.20625"/>
      </g>
     </g>
     <g id="text_21">
      <!-- 1000 -->
      <g transform="translate(528.62 395.48375)scale(0.16 -0.16)">
       <use xlink:href="#Helvetica-31"/>
       <use x="55.615234375" xlink:href="#Helvetica-30"/>
       <use x="111.23046875" xlink:href="#Helvetica-30"/>
       <use x="166.845703125" xlink:href="#Helvetica-30"/>
      </g>
     </g>
    </g>
    <g id="text_22">
     <!-- Time (s) -->
     <g transform="translate(270.01375 415.41375)scale(0.16 -0.16)">
      <use xlink:href="#Helvetica-54"/>
      <use x="61.083984375" xlink:href="#Helvetica-69"/>
      <use x="83.30078125" xlink:href="#Helvetica-6d"/>
      <use x="166.6015625" xlink:href="#Helvetica-65"/>
      <use x="222.216796875" xlink:href="#Helvetica-20"/>
      <use x="250.0" xlink:href="#Helvetica-28"/>
      <use x="283.30078125" xlink:href="#Helvetica-73"/>
      <use x="333.30078125" xlink:href="#Helvetica-29"/>
     </g>
    </g>
   </g>
   <g id="matplotlib.axis_4">
    <g id="ytick_8">
     <g id="line2d_41">
      <g>
       <use style="stroke:#000000;stroke-width:0.5;" x="52.2225" xlink:href="#m728421d6d4" y="380.00625"/>
      </g>
     </g>
     <g id="line2d_42">
      <g>
       <use style="stroke:#000000;stroke-width:0.5;" x="545.31" xlink:href="#mcb0005524f" y="380.00625"/>
      </g>
     </g>
     <g id="text_23">
      <!-- 1 -->
      <defs>
       <path d="
M55.4219 29.5938
L55.4219 21.3906
L4.5 21.3906
L4.5 29.5938
z
" id="Helvetica-2212"/>
      </defs>
      <g transform="translate(33.9325 384.0775)scale(0.16 -0.16)">
       <use xlink:href="#Helvetica-2212"/>
       <use x="58.3984375" xlink:href="#Helvetica-31"/>
      </g>
     </g>
    </g>
    <g id="ytick_9">
     <g id="line2d_43">
      <g>
       <use style="stroke:#000000;stroke-width:0.5;" x="52.2225" xlink:href="#m728421d6d4" y="354.20625"/>
      </g>
     </g>
     <g id="line2d_44">
      <g>
       <use style="stroke:#000000;stroke-width:0.5;" x="545.31" xlink:href="#mcb0005524f" y="354.20625"/>
      </g>
     </g>
     <g id="text_24">
      <!-- 0 -->
      <g transform="translate(40.5025 358.2775)scale(0.16 -0.16)">
       <use xlink:href="#Helvetica-30"/>
      </g>
     </g>
    </g>
    <g id="ytick_10">
     <g id="line2d_45">
      <g>
       <use style="stroke:#000000;stroke-width:0.5;" x="52.2225" xlink:href="#m728421d6d4" y="328.40625"/>
      </g>
     </g>
     <g id="line2d_46">
      <g>
       <use style="stroke:#000000;stroke-width:0.5;" x="545.31" xlink:href="#mcb0005524f" y="328.40625"/>
      </g>
     </g>
     <g id="text_25">
      <!-- 1 -->
      <g transform="translate(44.09 332.4775)scale(0.16 -0.16)">
       <use xlink:href="#Helvetica-31"/>
      </g>
     </g>
    </g>
    <g id="ytick_11">
     <g id="line2d_47">
      <g>
       <use style="stroke:#000000;stroke-width:0.5;" x="52.2225" xlink:href="#m728421d6d4" y="302.60625"/>
      </g>
     </g>
     <g id="line2d_48">
      <g>
       <use style="stroke:#000000;stroke-width:0.5;" x="545.31" xlink:href="#mcb0005524f" y="302.60625"/>
      </g>
     </g>
     <g id="text_26">
      <!-- 2 -->
      <g transform="translate(40.4875 306.6775)scale(0.16 -0.16)">
       <use xlink:href="#Helvetica-32"/>
      </g>
     </g>
    </g>
    <g id="ytick_12">
     <g id="line2d_49">
      <g>
       <use style="stroke:#000000;stroke-width:0.5;" x="52.2225" xlink:href="#m728421d6d4" y="276.80625"/>
      </g>
     </g>
     <g id="line2d_50">
      <g>
       <use style="stroke:#000000;stroke-width:0.5;" x="545.31" xlink:href="#mcb0005524f" y="276.80625"/>
      </g>
     </g>
     <g id="text_27">
      <!-- 3 -->
      <defs>
       <path d="
M25.9844 -1.90625
Q13.5781 -1.90625 7.98438 4.90625
Q2.39062 11.7188 2.39062 21.4844
L11.5781 21.4844
Q12.1562 14.7031 14.1094 11.625
Q17.5312 6.10938 26.4688 6.10938
Q33.4062 6.10938 37.5938 9.8125
Q41.7969 13.5312 41.7969 19.3906
Q41.7969 26.6094 37.375 29.4844
Q32.9531 32.375 25.0938 32.375
Q24.2188 32.375 23.3125 32.3438
Q22.4062 32.3281 21.4844 32.2812
L21.4844 40.0469
Q22.8594 39.8906 23.7812 39.8438
Q24.7031 39.7969 25.7812 39.7969
Q30.7188 39.7969 33.8906 41.3594
Q39.4531 44.0938 39.4531 51.125
Q39.4531 56.3438 35.7344 59.1719
Q32.0312 62.0156 27.0938 62.0156
Q18.3125 62.0156 14.9375 56.1562
Q13.0938 52.9375 12.8438 46.9688
L4.15625 46.9688
Q4.15625 54.7812 7.28125 60.25
Q12.6406 70.0156 26.1719 70.0156
Q36.8594 70.0156 42.7188 65.25
Q48.5781 60.5 48.5781 51.4688
Q48.5781 45.0156 45.125 41.0156
Q42.9688 38.5312 39.5469 37.1094
Q45.0625 35.5938 48.1562 31.2656
Q51.2656 26.9531 51.2656 20.7031
Q51.2656 10.6875 44.6719 4.39062
Q38.0938 -1.90625 25.9844 -1.90625
z
" id="Helvetica-33"/>
      </defs>
      <g transform="translate(40.4025 280.8775)scale(0.16 -0.16)">
       <use xlink:href="#Helvetica-33"/>
      </g>
     </g>
    </g>
    <g id="ytick_13">
     <g id="line2d_51">
      <g>
       <use style="stroke:#000000;stroke-width:0.5;" x="52.2225" xlink:href="#m728421d6d4" y="251.00625"/>
      </g>
     </g>
     <g id="line2d_52">
      <g>
       <use style="stroke:#000000;stroke-width:0.5;" x="545.31" xlink:href="#mcb0005524f" y="251.00625"/>
      </g>
     </g>
     <g id="text_28">
      <!-- 4 -->
      <g transform="translate(40.2625 255.0775)scale(0.16 -0.16)">
       <use xlink:href="#Helvetica-34"/>
      </g>
     </g>
    </g>
    <g id="ytick_14">
     <g id="line2d_53">
      <g>
       <use style="stroke:#000000;stroke-width:0.5;" x="52.2225" xlink:href="#m728421d6d4" y="225.20625"/>
      </g>
     </g>
     <g id="line2d_54">
      <g>
       <use style="stroke:#000000;stroke-width:0.5;" x="545.31" xlink:href="#mcb0005524f" y="225.20625"/>
      </g>
     </g>
     <g id="text_29">
      <!-- 5 -->
      <defs>
       <path d="
M12.3594 17.8281
Q13.2344 10.2969 19.3438 7.42188
Q22.4688 5.95312 26.5625 5.95312
Q34.375 5.95312 38.125 10.9375
Q41.8906 15.9219 41.8906 21.9688
Q41.8906 29.2969 37.4219 33.2969
Q32.9531 37.3125 26.7031 37.3125
Q22.1719 37.3125 18.9219 35.5469
Q15.6719 33.7969 13.375 30.6719
L5.76562 31.1094
L11.0781 68.75
L47.4062 68.75
L47.4062 60.25
L17.6719 60.25
L14.7031 40.8281
Q17.1406 42.6719 19.3438 43.6094
Q23.25 45.2188 28.375 45.2188
Q37.9844 45.2188 44.6719 39.0156
Q51.375 32.8125 51.375 23.2969
Q51.375 13.375 45.2344 5.79688
Q39.1094 -1.76562 25.6875 -1.76562
Q17.1406 -1.76562 10.5625 3.04688
Q4 7.85938 3.21875 17.8281
z
" id="Helvetica-35"/>
      </defs>
      <g transform="translate(40.5175 229.2775)scale(0.16 -0.16)">
       <use xlink:href="#Helvetica-35"/>
      </g>
     </g>
    </g>
    <g id="text_30">
     <!-- SNR -->
     <defs>
      <path d="
M40.9688 38.875
Q47.7969 38.875 51.7812 41.6094
Q55.7656 44.3438 55.7656 51.4688
Q55.7656 59.125 50.2031 61.9219
Q47.2188 63.375 42.2344 63.375
L18.5 63.375
L18.5 38.875
z

M8.79688 71.7344
L42 71.7344
Q50.2031 71.7344 55.5156 69.3438
Q65.625 64.75 65.625 52.3906
Q65.625 45.9531 62.9531 41.8438
Q60.2969 37.75 55.5156 35.25
Q59.7188 33.5469 61.8438 30.7656
Q63.9688 27.9844 64.2031 21.7344
L64.5469 12.1094
Q64.7031 8.01562 65.2344 6
Q66.1094 2.59375 68.3594 1.60938
L68.3594 0
L56.4531 0
Q55.9531 0.921875 55.6562 2.39062
Q55.375 3.85938 55.1719 8.0625
L54.5938 20.0156
Q54.25 27.0469 49.3594 29.4375
Q46.5781 30.7656 40.625 30.7656
L18.5 30.7656
L18.5 0
L8.79688 0
z
" id="Helvetica-52"/>
      <path d="
M13.9688 23.1406
Q14.3125 17.0469 16.8438 13.2344
Q21.6875 6.10938 33.8906 6.10938
Q39.3594 6.10938 43.8438 7.67188
Q52.5469 10.6875 52.5469 18.5
Q52.5469 24.3594 48.875 26.8594
Q45.1719 29.2969 37.25 31.1094
L27.5469 33.2969
Q18.0156 35.4531 14.0625 38.0312
Q7.23438 42.5312 7.23438 51.4688
Q7.23438 61.1406 13.9219 67.3281
Q20.6094 73.5312 32.8594 73.5312
Q44.1406 73.5312 52.0156 68.0781
Q59.9062 62.6406 59.9062 50.6875
L50.7812 50.6875
Q50.0469 56.4531 47.6562 59.5156
Q43.2188 65.1406 32.5625 65.1406
Q23.9688 65.1406 20.2031 61.5156
Q16.4531 57.9062 16.4531 53.125
Q16.4531 47.8594 20.8438 45.4062
Q23.7344 43.8438 33.8906 41.5
L43.9531 39.2031
Q51.2188 37.5469 55.1719 34.6719
Q62.0156 29.6406 62.0156 20.0625
Q62.0156 8.15625 53.3438 3.03125
Q44.6719 -2.09375 33.2031 -2.09375
Q19.8281 -2.09375 12.25 4.73438
Q4.6875 11.5312 4.82812 23.1406
z

M33.5938 73.6875
z
" id="Helvetica-53"/>
      <path d="
M7.625 71.7344
L19.0938 71.7344
L55.3281 13.625
L55.3281 71.7344
L64.5469 71.7344
L64.5469 0
L53.6562 0
L16.8906 58.0625
L16.8906 0
L7.625 0
z

M35.4531 71.7344
z
" id="Helvetica-4e"/>
     </defs>
     <g transform="translate(25.5975 318.81375)rotate(-90.0)scale(0.16 -0.16)">
      <use xlink:href="#Helvetica-53"/>
      <use x="66.69921875" xlink:href="#Helvetica-4e"/>
      <use x="138.916015625" xlink:href="#Helvetica-52"/>
     </g>
    </g>
   </g>
  </g>
 </g>
 <defs>
  <clipPath id="pa5f9c9d4f4">
   <rect height="154.8" width="493.0875" x="52.2225" y="225.20625"/>
  </clipPath>
  <clipPath id="pa58be2e124">
   <rect height="154.8" width="493.0875" x="52.2225" y="14.60625"/>
  </clipPath>
 </defs>
</svg>
